<svg width="49" height="51" viewBox="0 0 49 51" fill="none" xmlns="http://www.w3.org/2000/svg">
<path d="M28.3248 13.3387C28.4136 13.3663 28.5023 13.394 28.5937 13.4225C32.2422 14.5943 35.1626 17.1051 36.9442 20.4847C37.3241 21.2523 37.6053 22.0499 37.8543 22.8681C37.8795 22.9486 37.9046 23.029 37.9306 23.1119C38.6304 25.4509 38.5862 28.3922 37.8543 30.7159C37.8267 30.8047 37.799 30.8934 37.7705 30.9848C36.5987 34.6333 34.0879 37.5537 30.7082 39.3353C29.9406 39.7152 29.143 39.9964 28.3248 40.2454C28.2444 40.2706 28.1639 40.2957 28.0811 40.3217C25.7421 41.0215 22.8008 40.9773 20.477 40.2454C20.3883 40.2178 20.2996 40.1901 20.2081 40.1616C16.5596 38.9898 13.6393 36.479 11.8577 33.0994C11.4778 32.3317 11.1966 31.5342 10.9475 30.7159C10.9098 30.5953 10.9098 30.5953 10.8713 30.4722C10.1715 28.1332 10.2157 25.1919 10.9475 22.8681C10.9752 22.7794 11.0029 22.6907 11.0314 22.5992C12.2032 18.9508 14.714 16.0304 18.0936 14.2488C18.8612 13.8689 19.6588 13.5877 20.477 13.3387C20.5575 13.3135 20.6379 13.2883 20.7208 13.2624C23.0598 12.5626 26.0011 12.6068 28.3248 13.3387ZM23.8894 15.9102C22.2935 17.9153 21.8133 20.5002 21.486 22.9803C21.4711 23.091 21.4563 23.2017 21.4409 23.3157C21.3571 24.0343 21.3739 24.713 21.3739 25.4467C23.3717 25.4467 25.3696 25.4467 27.4279 25.4467C27.4279 24.5453 27.409 23.7051 27.2948 22.8191C27.2725 22.6459 27.2725 22.6459 27.2498 22.4692C26.9576 20.3297 26.4766 17.3831 24.8494 15.8051C24.4116 15.6375 24.2675 15.6243 23.8894 15.9102ZM17.3379 18.1595C17.2473 18.2353 17.1567 18.3112 17.0633 18.3894C14.8492 20.2983 13.8343 22.6073 13.3019 25.4467C15.0407 25.4467 16.7796 25.4467 18.5711 25.4467C18.6151 24.9334 18.659 24.42 18.7043 23.8912C18.9306 21.4774 19.3429 19.1768 20.1897 16.8973C20.2643 16.7007 20.2643 16.7007 20.2528 16.4778C19.3084 16.4778 18.0143 17.5709 17.3379 18.1595ZM28.5491 16.4778C28.5668 16.5366 28.5846 16.5954 28.6029 16.656C28.6607 16.848 28.718 17.0401 28.775 17.2323C28.8534 17.4926 28.9342 17.7521 29.0168 18.011C29.7822 20.4456 30.0066 22.9142 30.2307 25.4467C31.9696 25.4467 33.7084 25.4467 35.5 25.4467C34.8837 22.1601 33.4428 19.4334 30.653 17.5035C29.6581 16.8107 29.6581 16.8107 28.5491 16.4778ZM13.3019 28.1374C13.5338 29.5318 13.5338 29.5318 13.9535 30.807C13.9824 30.8755 14.0114 30.9439 14.0412 31.0145C14.4933 32.0626 15.0321 32.9834 15.7683 33.8551C15.8406 33.9437 15.9129 34.0322 15.9873 34.1235C17.1 35.4319 18.4716 36.3951 20.0286 37.1063C20.1026 37.1063 20.1766 37.1063 20.2528 37.1063C20.235 37.0475 20.2173 36.9887 20.1989 36.9281C20.1411 36.7361 20.0838 36.544 20.0268 36.3517C19.9485 36.0915 19.8676 35.832 19.7851 35.5731C19.0196 33.1385 18.7952 30.6699 18.5711 28.1374C16.8323 28.1374 15.0934 28.1374 13.3019 28.1374ZM21.3739 28.1374C21.3739 29.0388 21.3929 29.879 21.507 30.765C21.5219 30.8805 21.5367 30.9959 21.552 31.1149C21.8442 33.2544 22.3252 36.201 23.9525 37.779C24.2766 37.928 24.2766 37.928 24.6252 37.8911C26.4974 36.4755 26.9459 33.241 27.2532 31.0724C27.2743 30.9163 27.2952 30.7601 27.3158 30.6038C27.3307 30.4931 27.3456 30.3824 27.3609 30.2684C27.4447 29.5498 27.4279 28.8711 27.4279 28.1374C25.4301 28.1374 23.4323 28.1374 21.3739 28.1374ZM30.2307 28.1374C30.1648 28.9074 30.1648 28.9074 30.0976 29.6929C29.8713 32.1067 29.4589 34.4073 28.6122 36.6868C28.5376 36.8834 28.5376 36.8834 28.5491 37.1063C30.8565 36.4827 32.8032 34.4722 34.0425 32.5097C34.8276 31.1336 35.3033 29.7107 35.5 28.1374C33.7611 28.1374 32.0223 28.1374 30.2307 28.1374Z" fill="#A9805C"/>
<path d="M23.4436 0.230275C23.7321 0.388562 24.0107 0.556638 24.2888 0.732505C24.3873 0.793609 24.4858 0.854713 24.5872 0.917669C26.5405 2.15045 26.5405 2.15045 26.8673 3.36012C27.0418 4.19208 27.0292 4.94587 26.6431 5.71446C25.8535 6.90463 24.3662 7.97116 23.0555 8.51725C22.7007 8.55454 22.3874 8.50995 22.0465 8.40514C21.6774 8.10522 21.404 7.85958 21.3432 7.37686C21.3087 6.5005 21.3087 6.5005 21.6401 6.09984C21.9344 5.82657 21.9344 5.82657 22.1587 5.71446C18.6914 6.03891 15.0509 7.24646 12.2596 9.38743C12.0686 9.52625 12.0686 9.52625 11.8444 9.52625C11.8755 9.60068 11.9065 9.67511 11.9386 9.75179C11.9995 9.90028 11.9995 9.90028 12.0616 10.0518C12.1221 10.1981 12.1221 10.1981 12.1838 10.3474C12.5949 11.4783 12.5613 12.9118 12.0686 14.0107C11.8646 14.3994 11.6398 14.767 11.396 15.1318C11.3312 15.2313 11.2665 15.3307 11.1998 15.4331C10.2891 16.3691 9.05671 16.9701 7.74751 17.0566C7.03073 17.0618 6.37468 16.9827 5.67827 16.8135C4.01216 19.8267 3.18884 23.2511 3.19079 26.6863C3.19072 26.8193 3.19065 26.9524 3.19057 27.0894C3.19599 27.9947 3.26188 28.8687 3.3848 29.7646C3.54854 31.0115 3.54854 31.0115 3.2959 31.6052C3.02639 31.9228 2.80472 32.1447 2.38586 32.2214C1.74931 32.2224 1.346 32.1762 0.85747 31.7243C-0.833465 28.5241 0.334901 22.8988 1.30592 19.6163C1.74347 18.259 2.25203 16.926 2.95403 15.6818C3.11985 15.3787 3.21478 15.1794 3.19298 14.8301C3.10571 14.5879 3.00916 14.3746 2.88248 14.1509C2.30926 13.0336 2.27046 11.7845 2.60221 10.5843C3.07006 9.22148 3.83184 8.24356 5.10764 7.55685C5.86932 7.19703 6.50815 7.04189 7.35293 7.02476C7.42681 7.02314 7.50068 7.02151 7.5768 7.01984C8.12461 7.02219 8.51214 7.15062 9.02059 7.3681C9.40852 7.49362 9.67563 7.56861 10.0625 7.4137C10.6077 7.10624 11.1002 6.72445 11.597 6.34552C14.1476 4.46265 17.468 3.48175 20.5491 2.95957C20.9766 2.88207 21.3989 2.78471 21.8223 2.68745C21.6871 2.55912 21.6871 2.55912 21.5491 2.42819C21.2124 2.0751 21.1599 1.89941 21.1146 1.41919C21.1652 0.822269 21.4016 0.50715 21.8433 0.115891C22.3886 -0.0901076 22.9141 -0.00264199 23.4436 0.230275ZM5.62922 10.7595C5.24374 11.2973 5.16604 11.7821 5.22982 12.4412C5.4769 13.1801 5.79061 13.6529 6.47794 14.0287C7.01499 14.2702 7.48562 14.3231 8.0602 14.1662C8.74289 13.9048 9.1275 13.5202 9.49006 12.8896C9.69651 12.2702 9.69376 11.6665 9.41999 11.0678C9.12382 10.5424 8.74664 10.2375 8.22179 9.93966C7.17414 9.67166 6.30357 9.89887 5.62922 10.7595Z" fill="#A9805C"/>
<path d="M7.23385 35.8792C7.36652 35.9208 7.49919 35.9623 7.63588 36.0051C8.37543 36.2529 9.00519 36.4928 9.37798 37.2176C9.48384 37.6874 9.48994 38.0396 9.23741 38.4613C8.96212 38.798 8.78767 38.9839 8.36898 39.1235C8.10743 39.1282 7.84575 39.128 7.5842 39.1235C7.43621 39.1235 7.28823 39.1235 7.13575 39.1235C10.54 43.7253 15.3639 46.7977 21.0376 47.756C21.1137 47.7692 21.1898 47.7823 21.2682 47.7958C26.5115 48.6601 32.1494 47.3065 36.4771 44.2572C36.9652 43.9046 37.4449 43.5429 37.9016 43.1503C38.3914 42.7356 38.7615 42.4876 39.4155 42.4636C39.8833 42.5103 40.1918 42.6986 40.524 43.0193C40.7823 43.5088 40.8067 43.9089 40.6711 44.4417C39.3937 46.9742 34.6947 48.8299 32.1717 49.69C26.0333 51.7033 19.2789 51.2501 13.488 48.3661C11.5978 47.3927 9.83035 46.1793 8.27395 44.729C8.05185 44.5227 7.82363 44.328 7.59121 44.1334C6.62015 43.286 5.79103 42.2708 5.00564 41.2536C4.95939 41.3738 4.91314 41.4941 4.8655 41.6179C4.70773 41.9856 4.53575 42.231 4.22085 42.4868C3.71249 42.6563 3.28165 42.6857 2.79143 42.4518C2.32333 42.1007 2.16162 41.9101 2.07672 41.3166C1.9884 40.6505 1.93532 39.9833 1.89454 39.3126C1.88816 39.219 1.88179 39.1254 1.87522 39.0289C1.82479 38.0338 2.03063 37.2259 2.65129 36.4328C3.94496 35.035 5.57275 35.3098 7.23385 35.8792Z" fill="#A9805C"/>
<path d="M32.8515 4.13288C38.0037 6.06492 42.2953 9.7752 45.1418 14.4594C45.2149 14.5754 45.288 14.6915 45.3634 14.8111C48.6269 20.2004 49.2509 26.9162 47.7742 32.953C47.4242 34.3079 46.9318 35.6 46.375 36.8817C46.449 36.8447 46.523 36.8077 46.5992 36.7696C47.1225 36.726 47.3929 36.719 47.8675 36.9518C48.2113 37.2556 48.3624 37.4542 48.5051 37.8907C48.5267 38.3483 48.4622 38.6695 48.2297 39.0666C47.8281 39.4632 47.3887 39.6157 46.8655 39.8106C46.77 39.848 46.6744 39.8855 46.576 39.924C44.1459 40.8615 44.1459 40.8615 42.8715 40.3922C41.9734 39.9874 41.5172 39.4388 41.1058 38.5634C40.9065 37.9657 40.9729 37.325 40.9726 36.6995C40.9712 36.5598 40.9699 36.42 40.9685 36.276C40.9655 34.4153 40.9655 34.4153 41.3534 33.8982C41.7556 33.5206 42.1339 33.4062 42.6753 33.4062C43.1091 33.5364 43.3742 33.6423 43.6703 33.9878C43.8329 34.3942 43.8597 34.7651 43.9085 35.2C46.0415 29.7663 46.2541 23.9059 43.93 18.4779C43.0027 16.3939 41.8229 14.4974 40.321 12.7777C40.27 12.7192 40.219 12.6607 40.1664 12.6004C39.4186 11.7487 38.6397 11.008 37.7424 10.3113C37.6582 10.2394 37.5739 10.1676 37.4871 10.0936C35.993 8.82942 34.1735 7.83892 32.3646 7.09945C32.2575 7.05552 32.2575 7.05552 32.1483 7.01069C31.9544 6.93244 31.7592 6.85708 31.564 6.78195C31.133 6.5554 30.8747 6.28691 30.7114 5.82375C30.6481 5.28079 30.6891 4.94505 31.0157 4.48148C31.6121 3.96639 32.1003 3.93464 32.8515 4.13288Z" fill="#A9805C"/>
<path d="M46.5992 46.9718C46.9952 47.1235 47.1243 47.2586 47.3699 47.6025C47.5348 48.0971 47.5375 48.4906 47.3839 48.9898C47.084 49.359 46.8384 49.6324 46.3557 49.6932C45.4791 49.7277 45.4791 49.7277 45.0786 49.4033C44.6952 48.9805 44.6605 48.6563 44.6687 48.0925C44.7156 47.665 44.9193 47.407 45.2315 47.1273C45.6602 46.857 46.1093 46.9146 46.5992 46.9718Z" fill="#A9805C"/>
</svg>
