<svg width="59" height="53" viewBox="0 0 59 53" fill="none" xmlns="http://www.w3.org/2000/svg">
<path d="M24.3171 0.82835C24.885 0.809086 25.2839 0.807273 25.7381 1.19054C26.0066 1.59325 26.008 1.74818 25.9673 2.22203C25.8573 2.52558 25.8573 2.52558 25.7011 2.83445C25.6429 2.95113 25.5847 3.06781 25.5247 3.18802C25.461 3.31231 25.3973 3.43661 25.3316 3.56467C25.234 3.75878 25.234 3.75878 25.1345 3.95682C24.9615 4.30013 24.7874 4.64278 24.6127 4.9852C24.4712 5.26317 24.3309 5.54174 24.1907 5.82035C23.0138 8.15825 23.0138 8.15825 22.529 8.98405C22.6369 8.95228 22.7447 8.92052 22.8558 8.88779C22.9985 8.84628 23.1413 8.80476 23.2883 8.76199C23.4997 8.70016 23.4997 8.70016 23.7154 8.63708C26.2327 7.96598 29.0881 8.38908 31.3388 9.67982C33.8254 11.1763 33.8254 11.1763 34.3339 12.1931C34.3753 12.6321 34.3866 12.9043 34.1633 13.2905C33.7743 13.6661 33.4201 13.7391 32.9019 13.8544C32.8057 13.8777 32.7095 13.901 32.6104 13.925C32.4077 13.9741 32.2048 14.0224 32.0017 14.0698C31.6183 14.1603 31.2369 14.2577 30.8553 14.3555C30.3691 14.48 29.8821 14.6018 29.3953 14.724C29.2917 14.75 29.188 14.776 29.0813 14.8028C28.5361 14.9397 27.9908 15.0765 27.4455 15.213C26.8839 15.3538 26.3225 15.4951 25.7611 15.6366C25.3265 15.746 24.8918 15.8549 24.4571 15.9637C24.2498 16.0156 24.0426 16.0678 23.8354 16.1201C23.5477 16.1927 23.2598 16.2647 22.9718 16.3365C22.8869 16.3581 22.8019 16.3797 22.7144 16.402C22.3305 16.497 22.0108 16.5483 21.6121 16.5483C21.6901 16.6263 21.7681 16.7043 21.8485 16.7847C21.901 16.8373 21.9534 16.8899 22.0074 16.9441C22.1289 17.0653 22.251 17.1858 22.3737 17.3058C22.8724 17.7967 23.3392 18.3052 23.7897 18.8405C23.87 18.9357 23.87 18.9357 23.952 19.0327C24.8546 20.1069 25.68 21.205 26.4258 22.3935C26.4682 22.4606 26.5107 22.5277 26.5544 22.5968C28.2406 25.2772 29.4986 28.1345 30.5088 31.1325C30.5467 31.245 30.5846 31.3575 30.6237 31.4733C30.8133 32.0544 30.9219 32.5492 31.0102 33.1668C31.9557 33.2047 32.9012 33.2425 33.8754 33.2815C34.0385 32.9269 34.2016 32.5723 34.3697 32.207C35.7588 29.2634 37.6531 26.7497 39.9498 24.4565C38.6417 24.0754 37.3233 23.7392 36.0007 23.4133C35.8292 23.371 35.6578 23.3287 35.4864 23.2863C34.7754 23.1109 34.0643 22.9357 33.3529 22.7619C32.9127 22.6543 32.4726 22.5458 32.0327 22.4367C31.8666 22.3957 31.7004 22.355 31.5342 22.3147C31.3029 22.2586 31.0719 22.2013 30.841 22.1438C30.7101 22.1117 30.5791 22.0796 30.4442 22.0465C30.0894 21.9338 29.8204 21.8109 29.5202 21.5912C29.3507 21.1932 29.2495 20.9336 29.3707 20.5109C30.1947 18.885 32.3491 17.9229 33.9824 17.3466C35.6176 16.8894 37.5332 16.9535 39.1475 17.4652C39.0679 17.306 38.9883 17.1469 38.9087 16.9877C38.832 16.8343 38.7556 16.6807 38.6794 16.5271C38.4256 16.0163 38.1674 15.5082 37.9042 15.0022C37.7459 14.6973 37.5892 14.3916 37.4326 14.0858C37.3538 13.9327 37.2743 13.7799 37.1941 13.6275C37.0794 13.4093 36.9672 13.19 36.8553 12.9703C36.7891 12.8428 36.7229 12.7152 36.6547 12.5838C36.4775 12.1006 36.4689 11.7882 36.5115 11.2763C36.7416 10.9365 36.7416 10.9365 37.0845 10.7032C37.4136 10.647 37.6605 10.6263 37.9871 10.6387C38.0728 10.6407 38.1584 10.6427 38.2467 10.6447C40.2286 10.7271 42.0401 11.5586 43.5027 12.8808C43.5838 12.9526 43.6649 13.0244 43.7485 13.0984C45.1837 14.443 46.1802 16.4952 46.2735 18.4631C46.2747 18.819 46.2691 19.1727 46.2534 19.5282C46.334 19.4769 46.4147 19.4257 46.4978 19.3729C48.6933 18.0286 51.0966 17.577 53.6138 18.1558C55.6328 18.6769 57.4288 19.911 58.5955 21.6503C58.741 21.9257 58.7983 22.0863 58.8032 22.3935C58.8068 22.4667 58.8103 22.54 58.8139 22.6155C58.7051 22.9937 58.4961 23.2164 58.1728 23.425C57.7345 23.5534 57.2911 23.6035 56.8383 23.6564C56.7093 23.6734 56.5804 23.6904 56.4476 23.7079C56.0368 23.7615 55.6257 23.8118 55.2145 23.8619C54.9354 23.8977 54.6565 23.9338 54.3775 23.97C53.6945 24.0583 53.0113 24.1438 52.3277 24.2272C52.4616 24.3608 52.4616 24.3608 52.5981 24.4971C54.596 26.4986 55.5567 28.649 55.5798 31.4763C55.5814 31.6039 55.583 31.7315 55.5846 31.863C55.5804 32.5952 55.5511 33.3126 55.193 33.9691C54.8395 34.2048 54.6179 34.2758 54.1942 34.2619C53.6212 34.1228 53.214 33.6655 52.7862 33.2815C52.6607 33.1735 52.5349 33.0659 52.4087 32.9587C52.1354 32.7262 51.8629 32.4928 51.5913 32.2585C51.2084 31.9285 50.823 31.6017 50.4366 31.2758C49.9137 30.8345 49.3937 30.3898 48.8751 29.9434C48.4096 29.5431 47.941 29.1481 47.4639 28.7615C46.8546 28.2676 46.2635 27.7538 45.6745 27.236C45.6042 27.1745 45.5338 27.1129 45.4614 27.0495C45.3986 26.9943 45.3358 26.939 45.2711 26.8821C45.1056 26.7374 45.1056 26.7374 44.878 26.6341C42.5361 30.6478 42.5361 30.6478 41.5543 35.1152C41.6152 35.137 41.6761 35.1588 41.7389 35.1812C44.7364 36.2627 47.5204 37.6863 49.9209 39.8142C50.0177 39.8986 50.1144 39.983 50.2141 40.0699C50.992 40.7578 50.992 40.7578 51.3074 41.1278C51.9408 41.8594 52.4512 41.9925 53.395 42.1423C54.8331 42.4104 55.7824 43.5287 56.7863 44.5105C57.2024 44.912 57.6331 45.298 58.0658 45.6816C58.4414 46.0221 58.7102 46.2996 58.7765 46.8139C58.7774 46.8983 58.7783 46.9828 58.7792 47.0698C58.7814 47.2144 58.7814 47.2144 58.7836 47.362C58.784 47.5169 58.784 47.5169 58.7844 47.6749C58.7852 47.782 58.7859 47.8891 58.7867 47.9995C58.7879 48.2259 58.7884 48.4523 58.7884 48.6786C58.7889 49.024 58.793 49.3693 58.7974 49.7146C58.7981 49.9349 58.7985 50.1552 58.7987 50.3754C58.8004 50.4782 58.802 50.581 58.8037 50.687C58.7991 51.3232 58.713 51.6882 58.2875 52.1922C57.6988 52.7108 57.349 52.7821 56.5818 52.7806C56.4395 52.781 56.4395 52.781 56.2943 52.7814C55.973 52.7822 55.6516 52.7821 55.3302 52.7821C55.0989 52.7825 54.8675 52.7829 54.6362 52.7834C53.9977 52.7845 53.3593 52.7849 52.7208 52.7853C52.0333 52.7857 51.3458 52.7868 50.6582 52.7878C49.0751 52.79 47.492 52.7911 45.9089 52.7921C45.1269 52.7926 44.3449 52.7932 43.5629 52.7938C40.887 52.7958 38.2112 52.7975 35.5353 52.7984C35.3672 52.7984 35.1992 52.7985 35.0311 52.7986C34.9061 52.7986 34.9061 52.7986 34.7786 52.7986C34.3564 52.7988 33.9341 52.7989 33.5119 52.7991C33.4281 52.7991 33.3443 52.7991 33.258 52.7991C30.5405 52.8 27.823 52.8027 25.1055 52.8064C22.2337 52.8104 19.3619 52.8126 16.4901 52.813C16.175 52.8131 15.8598 52.8131 15.5447 52.8132C15.4283 52.8132 15.4283 52.8132 15.3096 52.8132C14.0597 52.8135 12.8098 52.8153 11.5599 52.8176C10.304 52.82 9.04813 52.8205 7.79226 52.8195C7.1116 52.819 6.43096 52.8192 5.7503 52.8214C5.1276 52.8234 4.50494 52.8233 3.88224 52.8215C3.65656 52.8213 3.43088 52.8218 3.20521 52.8231C2.89913 52.8249 2.59319 52.8238 2.28711 52.822C2.19889 52.8231 2.11066 52.8243 2.01976 52.8255C1.42773 52.8179 1.09524 52.6787 0.638418 52.3068C0.259832 51.877 0.0526645 51.6082 0.0450793 51.037C0.0436083 50.9406 0.0421372 50.8441 0.0406216 50.7448C0.039775 50.6403 0.0389284 50.5359 0.0380561 50.4282C0.037131 50.3208 0.0362059 50.2134 0.0352527 50.1027C0.0336659 49.8749 0.0324373 49.6472 0.0315365 49.4194C0.0295667 49.072 0.0245378 48.7247 0.0194767 48.3773C0.0183158 48.156 0.0173398 47.9347 0.0165666 47.7134C0.01456 47.6099 0.0125534 47.5064 0.010486 47.3997C0.0131185 46.6313 0.206793 46.2317 0.734701 45.6604C0.841503 45.5615 0.841503 45.5615 0.950462 45.4606C1.03042 45.3859 1.11037 45.3112 1.19275 45.2343C1.31903 45.1185 1.31903 45.1185 1.44785 45.0004C1.53521 44.9197 1.62257 44.8391 1.71258 44.756C1.88675 44.5952 2.06111 44.4347 2.23569 44.2745C2.43536 44.089 2.63078 43.9008 2.82407 43.7088C3.74151 42.8173 4.72826 42.167 6.01168 42.0312C6.82988 41.9069 7.20503 41.5064 7.7371 40.903C7.91556 40.7135 8.09464 40.5246 8.27434 40.3363C8.36017 40.2455 8.44601 40.1548 8.53445 40.0613C11.7409 36.779 16.915 34.9508 21.2683 33.9691C20.1162 26.0674 20.1162 26.0674 16.34 19.1844C15.867 19.1844 15.7616 19.3698 15.4232 19.693C15.3095 19.7996 15.1957 19.906 15.0816 20.0122C15.0237 20.066 14.9659 20.1198 14.9064 20.1752C14.6544 20.4042 14.3915 20.6181 14.1266 20.8319C13.6343 21.2294 13.1517 21.6364 12.6725 22.0496C12.1007 22.5425 11.5216 23.0244 10.9354 23.5002C10.5549 23.8138 10.1808 24.1345 9.80725 24.4565C9.23621 24.9486 8.65814 25.4301 8.07242 25.9048C7.61008 26.2864 7.15728 26.6789 6.7065 27.0741C5.66282 27.9798 5.66282 27.9798 5.04376 28.0667C4.56376 27.9969 4.39217 27.9204 4.07673 27.5509C3.34101 25.0288 3.78917 22.0585 4.99361 19.7574C5.70113 18.5562 6.67912 17.3244 7.85887 16.5483C7.93452 16.5483 8.01016 16.5483 8.08809 16.5483C8.08809 16.4727 8.08809 16.397 8.08809 16.3191C7.96548 16.3225 7.84286 16.3259 7.71653 16.3293C7.06482 16.3288 6.42639 16.2403 5.78111 16.1557C5.64949 16.1387 5.51786 16.1217 5.38224 16.1042C5.10508 16.0682 4.82795 16.0319 4.55087 15.9952C4.12802 15.9396 3.70495 15.8859 3.28184 15.8322C3.01179 15.7969 2.74176 15.7615 2.47174 15.7259C2.34588 15.7101 2.22003 15.6944 2.09037 15.6781C0.597878 15.4763 0.597878 15.4763 0.0653656 14.9438C-0.050351 14.3556 -0.0280029 14.0694 0.281156 13.5492C1.8771 11.33 4.26499 9.9172 6.94199 9.44249C9.68977 9.03447 12.3293 9.74855 14.6209 11.2763C14.6321 11.139 14.6433 11.0018 14.6549 10.8603C14.9276 7.78273 15.9729 5.06304 18.403 3.0243C20.1281 1.69507 22.1486 0.961848 24.3171 0.82835ZM22.2496 3.31799C20.9896 3.7606 20.0364 4.37559 19.0907 5.31651C19.0105 5.39275 18.9302 5.46898 18.8476 5.54752C17.8339 6.583 17.191 8.03127 16.9131 9.44249C16.8871 9.57014 16.8611 9.69778 16.8343 9.8293C16.7275 11.0684 16.6511 12.717 17.3715 13.7977C17.5508 13.5304 17.7298 13.2629 17.9088 12.9954C17.9586 12.9211 18.0085 12.8468 18.0599 12.7702C18.2135 12.5403 18.3659 12.3097 18.5176 12.0785C18.5648 12.0071 18.612 11.9358 18.6607 11.8622C19.0736 11.2219 19.4077 10.5488 19.7425 9.86511C20.1622 9.01656 20.5867 8.17195 21.0319 7.33652C21.7489 5.98922 22.4237 4.62056 23.1021 3.25352C22.7684 3.08671 22.5993 3.20205 22.2496 3.31799ZM20.1437 13.2676C19.701 13.8288 19.3801 14.4075 19.0907 15.0584C20.337 14.8663 21.5548 14.543 22.777 14.2382C23.0114 14.18 23.2457 14.1218 23.48 14.0635C23.9685 13.9421 24.4568 13.8203 24.9452 13.6982C25.5723 13.5416 26.1996 13.3863 26.8271 13.2312C27.3098 13.1117 27.7923 12.9913 28.2747 12.8707C28.5062 12.813 28.7377 12.7556 28.9692 12.6986C29.2913 12.6191 29.613 12.5385 29.9346 12.4575C30.0308 12.434 30.127 12.4106 30.2262 12.3864C30.4512 12.3291 30.6738 12.2621 30.8956 12.1931C30.9334 12.1175 30.9712 12.0419 31.0102 11.9639C30.1598 11.4356 29.3362 10.9885 28.3741 10.7032C28.2449 10.6644 28.2449 10.6644 28.1131 10.6249C25.1649 9.8941 22.0963 10.9836 20.1437 13.2676ZM3.04524 13.6831C4.13812 13.8352 5.23131 13.9847 6.32494 14.1314C6.83314 14.1996 7.34122 14.2686 7.84905 14.3395C10.3137 14.6832 12.7015 14.927 15.1939 14.8292C15.0855 14.682 14.9767 14.5352 14.8678 14.3884C14.8072 14.3066 14.7467 14.2248 14.6843 14.1405C13.4417 12.5475 11.2856 11.7167 9.35597 11.441C6.96706 11.1864 4.73707 11.9729 3.04524 13.6831ZM39.3767 12.9954C39.5525 13.5853 39.8072 14.1076 40.0895 14.6514C40.1373 14.7445 40.1851 14.8376 40.2344 14.9335C40.3874 15.2308 40.5411 15.5278 40.6948 15.8249C40.7945 16.0186 40.8942 16.2124 40.9938 16.4062C41.2433 16.8909 41.494 17.3751 41.7454 17.8589C41.8488 18.0579 41.9521 18.2569 42.0552 18.456C42.2087 18.7519 42.3627 19.0474 42.5169 19.3429C42.5629 19.4318 42.609 19.5207 42.6564 19.6123C43.003 20.2739 43.3877 20.8856 43.8465 21.4766C44.4654 20.5484 44.2919 18.9933 44.1161 17.9349C43.6226 16.0603 42.6243 14.5806 40.9598 13.5613C40.4371 13.2764 39.9623 13.0968 39.3767 12.9954ZM7.90678 19.3155C6.753 20.6781 5.8833 22.3254 5.90333 24.1484C5.90437 24.2709 5.9054 24.3934 5.90647 24.5196C5.9078 24.6122 5.90913 24.7048 5.9105 24.8003C6.37903 24.6067 6.73068 24.2783 7.10674 23.9479C7.25057 23.8231 7.39443 23.6983 7.53832 23.5736C7.61094 23.5104 7.68355 23.4473 7.75837 23.3822C8.08352 23.1004 8.41139 22.8218 8.73994 22.5439C8.80155 22.4917 8.86316 22.4396 8.92663 22.3859C9.31013 22.0621 9.69714 21.743 10.0866 21.4264C10.6441 20.9729 11.1893 20.5064 11.7337 20.0373C12.1376 19.6899 12.5453 19.3483 12.959 19.0125C13.4666 18.599 13.9704 18.1814 14.4705 17.7589C14.5421 17.6992 14.6138 17.6395 14.6876 17.578C14.8608 17.4309 15.028 17.2767 15.1939 17.1214C15.1939 17.0457 15.1939 16.9701 15.1939 16.8922C12.48 16.4901 9.81665 17.3085 7.90678 19.3155ZM18.3314 17.4079C18.1909 17.4558 18.1909 17.4558 18.0476 17.5046C17.9758 17.5294 17.904 17.5543 17.83 17.5798C17.8746 17.6469 17.9192 17.714 17.9652 17.7831C19.3347 19.8846 20.4038 22.1041 21.2683 24.4565C22.5321 24.3875 23.3012 23.7659 24.1336 22.8519C23.5408 21.8424 22.8444 20.9729 22.0706 20.1013C21.9888 20.0087 21.9888 20.0086 21.9054 19.9142C21.274 19.2016 20.6271 18.5323 19.893 17.9237C19.8182 17.8573 19.7435 17.791 19.6664 17.7226C19.5946 17.659 19.5228 17.5953 19.4489 17.5297C19.3853 17.4731 19.3218 17.4165 19.2563 17.3582C18.9439 17.1277 18.6707 17.2916 18.3314 17.4079ZM32.7293 20.2159C32.7293 20.2915 32.7293 20.3672 32.7293 20.4451C33.9208 20.7443 35.1123 21.0432 36.3039 21.3417C36.8571 21.4803 37.4103 21.619 37.9635 21.758C38.497 21.892 39.0306 22.0257 39.5642 22.1592C39.7681 22.2103 39.972 22.2615 40.1759 22.3128C40.4607 22.3844 40.7456 22.4557 41.0305 22.5269C41.1154 22.5483 41.2003 22.5697 41.2878 22.5918C41.7026 22.6998 41.7026 22.6998 42.1274 22.7373C41.6639 21.4589 40.5742 20.4576 39.3911 19.8362C37.0986 18.7779 34.9203 19.0155 32.7293 20.2159ZM46.368 22.1642C46.2877 22.3151 46.2105 22.4676 46.1388 22.6227C48.13 22.6982 50.0542 22.4791 52.0211 22.1977C52.419 22.1411 52.8173 22.0865 53.2155 22.0317C53.9895 21.925 54.7633 21.8161 55.5368 21.7058C55.1681 20.9045 54.2951 20.5928 53.5025 20.2947C50.9966 19.4056 48.2118 20.3469 46.368 22.1642ZM46.0241 24.6857C46.8441 25.533 47.7397 26.2931 48.6553 27.0343C49.0591 27.3671 49.4546 27.7087 49.8493 28.0524C51.5778 29.8421 51.5778 29.8421 53.4738 30.9892C53.5875 29.5398 52.9439 28.1209 52.073 26.9913C50.865 25.5861 49.3496 24.7881 47.5141 24.5711C47.0042 24.5372 46.5219 24.5612 46.0241 24.6857ZM24.6708 25.1656C23.8547 25.7956 22.9791 26.2266 21.956 26.4048C22.031 27.1597 22.1984 27.8697 22.3857 28.6039C22.789 30.2258 23.0664 31.8614 23.3313 33.5107C23.7399 33.6457 24.0764 33.6134 24.5011 33.5653C24.641 33.55 24.7809 33.5347 24.925 33.5189C25.0728 33.502 25.2205 33.4851 25.3728 33.4677C26.5256 33.3416 27.6742 33.2249 28.8326 33.1668C28.7615 32.4654 28.5644 31.8392 28.3312 31.1755C28.291 31.0611 28.2509 30.9467 28.2096 30.8289C27.4457 28.6999 26.4826 26.6663 25.3943 24.6857C25.146 24.6857 24.849 25.024 24.6708 25.1656ZM42.1323 25.2538C42.0209 25.3605 41.9119 25.4698 41.805 25.5811C41.7164 25.6684 41.7164 25.6684 41.6259 25.7574C41.5049 25.877 41.3848 25.9975 41.2657 26.1189C41.1158 26.2701 40.9607 26.416 40.8049 26.5611C40.1856 27.145 39.6503 27.7849 39.126 28.4535C39.0584 28.5381 38.9909 28.6227 38.9212 28.7099C38.8595 28.7904 38.7979 28.871 38.7343 28.954C38.6786 29.0259 38.6228 29.0979 38.5654 29.172C38.4367 29.3822 38.4367 29.3822 38.4901 29.6294C38.7025 30.1675 39.2973 30.5171 39.8065 30.7457C40.1675 30.8934 40.1675 30.8934 40.5228 30.8746C40.5659 30.7606 40.5659 30.7606 40.6099 30.6444C41.2037 29.0852 41.8334 27.5945 42.6882 26.1598C42.8879 25.8238 43.0803 25.4838 43.2735 25.1441C42.7812 25.0184 42.5658 24.9669 42.1323 25.2538ZM37.1991 31.5623C37.0864 31.7284 36.9802 31.8989 36.8768 32.0709C36.8193 32.1653 36.7619 32.2597 36.7026 32.357C36.4593 32.8044 36.2599 33.2745 36.053 33.7399C37.1877 34.0046 38.3223 34.2694 39.4913 34.5422C39.7341 33.6913 39.7341 33.6913 39.8352 32.823C39.7396 32.7896 39.644 32.7562 39.5455 32.7218C38.7977 32.4494 38.1438 32.1603 37.4982 31.6926C37.3358 31.5513 37.3358 31.5513 37.1991 31.5623ZM10.1666 42.8562C10.5842 43.6107 10.8977 44.1388 12.2545 44.2745C13.135 44.2035 14.1253 43.6756 14.7599 43.0649C16.4302 41.8122 16.9683 41.5873 18.5181 41.6034C19.7864 41.6784 20.7574 42.75 21.6694 43.6107C22.2812 44.1749 22.9107 44.4532 23.7324 44.5706C24.589 44.4482 25.1991 44.162 25.8241 43.5606C26.9575 42.4739 28.2494 42.0661 29.7992 42.0823C31.0675 42.1573 32.1038 42.75 33.0159 43.6107C33.6276 44.1749 34.2572 44.4532 35.0788 44.5706C35.9355 44.4482 36.5455 44.162 37.1705 43.5606C38.3039 42.4739 39.5958 42.0661 41.1456 42.0823C42.414 42.1573 43.4503 42.75 44.3623 43.6107C44.9741 44.1749 45.6036 44.4532 46.4253 44.5706C47.4603 44.4227 48.111 43.9826 48.8581 43.2673C49.1566 42.9878 49.4576 42.776 49.8063 42.5649C48.7714 41.5226 47.7182 40.6091 46.4826 39.8142C46.4182 39.7725 46.3539 39.7307 46.2876 39.6877C37.0563 33.7517 15.8038 35.3489 10.1666 42.8562ZM4.1985 45.337C3.52135 45.9964 2.83215 46.6305 2.12835 47.2639C2.12835 48.3986 2.12835 49.5332 2.12835 50.7022C20.1314 50.7022 38.1344 50.7022 56.6829 50.7022C57.0507 47.4839 57.0507 47.4839 55.8377 46.2539C55.4629 45.9729 55.4629 45.9729 55.0789 45.7049C54.7598 45.4824 54.502 45.2241 54.2259 44.9502C53.4972 44.3054 52.7954 43.962 51.8084 44.0123C51.0237 44.1303 50.5122 44.4758 49.9424 45.0147C48.8864 46.0116 47.5891 46.5297 46.1383 46.4975C44.5495 46.3318 43.4846 45.5229 42.3194 44.5079C41.6615 44.0276 40.9683 43.9626 40.179 44.0548C39.5221 44.2216 39.0834 44.5537 38.596 45.0147C37.54 46.0116 36.2427 46.5297 34.7919 46.4975C33.2031 46.3318 32.1382 45.5229 30.973 44.5079C30.3151 44.0276 29.6219 43.9626 28.8326 44.0548C28.0385 44.2564 27.5378 44.7367 26.9536 45.2864C25.9229 46.178 24.768 46.5217 23.4257 46.4899C21.869 46.3542 20.7794 45.5424 19.6476 44.533C18.9849 44.0296 18.2924 43.9606 17.4861 44.0548C16.6921 44.2564 16.1914 44.7367 15.6072 45.2864C14.5878 46.1682 13.4257 46.5273 12.095 46.4975C10.508 46.33 9.44433 45.522 8.28016 44.5079C7.80085 44.158 7.32404 44.0216 6.73426 44.0119C6.64606 44.0086 6.55786 44.0054 6.46698 44.002C5.51276 44.156 4.86574 44.6711 4.1985 45.337Z" fill="#A9805C"/>
</svg>
