<svg width="45" height="53" viewBox="0 0 45 53" fill="none" xmlns="http://www.w3.org/2000/svg">
<path d="M24.0422 0.323601C24.7018 0.756837 25.2768 1.30564 25.8561 1.83886C29.5865 5.25138 34.3442 6.61565 39.2677 7.11067C41.1086 7.29707 42.5387 7.95578 43.7587 9.37256C44.7093 10.6894 44.9071 12.1576 44.9062 13.7328C44.9068 13.8721 44.9068 13.8721 44.9073 14.0142C44.9083 14.3188 44.9085 14.6234 44.9086 14.928C44.9089 15.1434 44.9093 15.3588 44.9096 15.5742C44.9102 16.0258 44.9104 16.4774 44.9104 16.9291C44.9104 17.3864 44.9111 17.8438 44.9125 18.3012C44.9275 23.2534 44.9275 23.2534 44.6855 25.6072C44.6735 25.7291 44.6735 25.7291 44.6612 25.8535C44.6154 26.3085 44.5605 26.7616 44.499 27.2149C44.4814 27.3467 44.4638 27.4786 44.4457 27.6145C43.6925 33.0791 41.972 38.3253 38.5119 42.6874C38.4327 42.7885 38.3536 42.8895 38.272 42.9937C36.9872 44.6003 35.5275 46.0799 33.8817 47.3176C33.8209 47.3642 33.76 47.4108 33.6974 47.4588C31.962 48.7819 30.0781 49.8929 28.1064 50.8268C27.9105 50.9205 27.7165 51.0174 27.5225 51.115C23.1505 53.2848 23.1505 53.2848 20.9052 52.5848C17.3224 51.3681 13.9194 49.5397 10.9366 47.2147C10.8463 47.1444 10.7559 47.0741 10.6629 47.0017C4.51596 42.095 1.45648 35.0175 0.428635 27.3499C0.412296 27.2303 0.395957 27.1107 0.379122 26.9875C0.324859 26.5622 0.278469 26.1367 0.23571 25.7101C0.226484 25.6206 0.217257 25.5312 0.207751 25.4391C-0.0238972 23.0919 -0.0018002 20.7388 0.00309545 18.3827C0.00427786 17.808 0.00358402 17.2334 0.00236068 16.6588C0.00161354 16.2101 0.00185558 15.7615 0.00238737 15.3129C0.00252314 15.101 0.00236 14.8891 0.00187554 14.6772C-0.00480378 10.9435 -0.00480299 10.9435 1.16175 9.45295C1.22263 9.37496 1.28351 9.29697 1.34623 9.21662C2.45483 7.88388 3.86297 7.27819 5.56887 7.09967C5.80821 7.07934 6.04762 7.05994 6.28711 7.04139C10.5222 6.65375 14.5283 5.35937 17.9333 2.7649C18.0238 2.69633 18.1142 2.62775 18.2074 2.5571C18.6921 2.17941 19.1442 1.77584 19.5925 1.35655C20.7965 0.234534 22.4293 -0.435095 24.0422 0.323601ZM22.0925 3.39201C22.0405 3.4445 21.9885 3.49699 21.9349 3.55107C21.8751 3.60973 21.8153 3.66838 21.7536 3.72882C21.6579 3.82467 21.6579 3.82467 21.5603 3.92245C17.7788 7.57175 12.5762 9.66604 7.38195 10.1459C7.18301 10.1643 7.18301 10.1643 6.98005 10.1832C6.72211 10.2059 6.46398 10.2267 6.20569 10.245C5.31599 10.3206 4.46061 10.4988 3.8434 11.1957C3.27308 12.0425 3.20412 12.7986 3.20466 13.7928C3.20432 13.8848 3.20397 13.9768 3.20362 14.0716C3.20264 14.375 3.20244 14.6784 3.20233 14.9818C3.20199 15.1956 3.20165 15.4094 3.20129 15.6232C3.20067 16.0722 3.20048 16.5213 3.20054 16.9704C3.20055 17.4256 3.19985 17.8807 3.19843 18.3359C3.18107 21.9254 3.18107 21.9254 3.4254 25.5043C3.43318 25.5819 3.44097 25.6595 3.449 25.7395C3.49295 26.1747 3.54571 26.6079 3.60546 27.0412C3.63157 27.2317 3.63157 27.2317 3.65821 27.426C4.49751 33.2802 6.77527 39.5206 11.4486 43.4366C11.593 43.5592 11.7338 43.686 11.8715 43.816C13.2759 45.139 14.9234 46.1643 16.5957 47.1118C16.6754 47.157 16.755 47.2022 16.8371 47.2488C18.0911 47.9524 19.3926 48.5296 20.7303 49.0554C20.9256 49.1324 21.1199 49.2122 21.3131 49.2944C22.4435 49.753 23.1934 49.476 24.287 49.0218C24.3997 48.9756 24.5124 48.9294 24.6285 48.8818C27.5378 47.6759 30.2465 46.1803 32.647 44.1279C32.7265 44.06 32.8059 43.9921 32.8878 43.9221C38.8129 38.7167 41.1441 31.4197 41.6516 23.7113C41.718 22.6181 41.7185 21.5256 41.7189 20.4308C41.7192 20.2143 41.7196 19.9978 41.7199 19.7813C41.7205 19.331 41.7207 18.8808 41.7207 18.4305C41.7207 17.8557 41.7221 17.2808 41.7239 16.706C41.725 16.2603 41.7252 15.8146 41.7251 15.3689C41.7253 15.157 41.7257 14.945 41.7265 14.7331C41.7275 14.4368 41.7272 14.1405 41.7266 13.8442C41.7272 13.7583 41.7278 13.6724 41.7284 13.5839C41.7231 12.5847 41.6073 11.7268 40.8785 10.9963C40.0572 10.2759 38.9322 10.2809 37.8917 10.1745C33.4064 9.71285 29.0932 8.35147 25.4445 5.64591C25.3821 5.59962 25.3196 5.55333 25.2553 5.50563C24.4943 4.93559 23.7794 4.33174 23.1048 3.66082C22.6567 3.22455 22.6567 3.22455 22.0925 3.39201Z" fill="#A9805C"/>
<path d="M31.2192 16.5269C33.7238 18.6867 35.3395 21.9037 35.6308 25.1957C35.8584 29.0428 34.7292 32.4463 32.2064 35.3718C30.0043 37.8419 26.7033 39.4228 23.4022 39.618C19.4933 39.7703 16.0496 38.5166 13.1637 35.854C10.7225 33.5005 9.32907 30.1177 9.25378 26.7491C9.22786 23.0119 10.6006 19.6605 13.2001 16.9642C18.1954 12.091 25.9696 12.1425 31.2192 16.5269ZM15.4637 19.3308C15.3942 19.3926 15.3247 19.4544 15.2531 19.5181C13.618 21.0289 12.5943 23.4201 12.4668 25.6268C12.3771 28.3659 13.1207 30.7687 14.8464 32.9127C14.927 33.0209 15.0077 33.1291 15.0907 33.2406C16.7609 35.0301 19.1989 36.2823 21.6568 36.424C24.5355 36.5185 27.1248 35.6963 29.2807 33.7422C30.9259 32.1997 31.9398 30.2986 32.3382 28.0767C32.3662 27.9346 32.3662 27.9346 32.3949 27.7897C32.7375 25.3408 32.1326 22.7595 30.7024 20.7411C30.3454 20.2813 29.9621 19.8542 29.5601 19.4337C29.4674 19.3294 29.4674 19.3294 29.3728 19.2231C27.7599 17.4775 25.313 16.5564 22.9769 16.4108C20.0858 16.3049 17.5446 17.3419 15.4637 19.3308Z" fill="#A9805C"/>
<path d="M28.2675 22.0571C28.6596 22.4396 28.9205 22.8162 28.9593 23.375C28.897 24.2749 28.3286 24.8111 27.7175 25.4183C27.6469 25.4893 27.5762 25.5604 27.5034 25.6335C27.271 25.8669 27.0378 26.0995 26.8045 26.332C26.6423 26.4944 26.4801 26.6568 26.3179 26.8192C25.9785 27.159 25.6387 27.4983 25.2987 27.8374C24.8627 28.2722 24.4277 28.7079 23.9929 29.1439C23.6584 29.4791 23.3234 29.8139 22.9882 30.1485C22.8276 30.309 22.6671 30.4697 22.5068 30.6305C22.2829 30.8549 22.0584 31.0786 21.8337 31.3021C21.7344 31.402 21.7344 31.402 21.6332 31.5039C21.5717 31.5648 21.5103 31.6257 21.447 31.6884C21.394 31.7412 21.3411 31.7941 21.2865 31.8486C20.9291 32.1494 20.6203 32.2242 20.1583 32.2307C20.0641 32.2336 19.9699 32.2365 19.8729 32.2395C19.2006 32.1308 18.7191 31.5692 18.2564 31.1057C18.1591 31.009 18.1591 31.009 18.0598 30.9104C17.9236 30.7748 17.7877 30.639 17.652 30.5029C17.4446 30.2951 17.2358 30.0887 17.0269 29.8824C16.8943 29.7501 16.7618 29.6176 16.6294 29.4851C16.5671 29.4238 16.5048 29.3625 16.4407 29.2993C16.02 28.8739 15.8028 28.5499 15.7339 27.9413C15.7882 27.4074 15.9385 26.9712 16.3356 26.5953C16.7592 26.3119 17.1727 26.279 17.6732 26.2725C18.3831 26.4217 18.8747 27.0378 19.3609 27.5362C19.4317 27.6079 19.5025 27.6797 19.5755 27.7536C19.7488 27.9293 19.9215 28.1056 20.094 28.2821C20.7394 27.7546 21.3212 27.1684 21.9068 26.5768C22.0886 26.3932 22.2709 26.2099 22.4532 26.0267C22.971 25.5064 23.4883 24.9854 24.0051 24.4641C24.3224 24.144 24.6402 23.8245 24.9583 23.5052C25.079 23.3838 25.1996 23.2622 25.32 23.1404C25.4879 22.9705 25.6564 22.8013 25.8251 22.6322C25.9207 22.5358 26.0164 22.4394 26.1149 22.3401C26.7343 21.779 27.5061 21.7248 28.2675 22.0571Z" fill="#A9805C"/>
</svg>
