<svg width="48" height="49" viewBox="0 0 48 49" fill="none" xmlns="http://www.w3.org/2000/svg">
<path d="M26.1194 0.592297C26.4198 0.813419 26.7077 1.04664 26.9942 1.28521C27.1167 1.38469 27.2393 1.48397 27.3621 1.58308C27.6255 1.79602 27.8881 2.0099 28.1503 2.2244C28.5006 2.51028 28.855 2.79054 29.2115 3.0687C29.6982 3.4487 30.1792 3.83515 30.6576 4.22555C31.3578 4.79672 32.0662 5.35664 32.7785 5.91264C33.5575 6.52071 34.3303 7.13529 35.0959 7.7601C35.5091 8.0967 35.9254 8.42862 36.3455 8.75658C36.8988 9.18867 37.4442 9.62997 37.9881 10.0739C38.4555 10.4547 38.9279 10.8286 39.4032 11.1995C39.8287 11.5324 40.2476 11.8729 40.6656 12.2151C41.192 12.6457 41.726 13.064 42.2683 13.4744C42.9828 14.0154 43.6758 14.5791 44.3644 15.1524C44.661 15.3991 44.9633 15.637 45.2689 15.8725C46.1939 16.6115 46.9311 17.5188 47.0679 18.7325C47.1395 20.0244 46.9192 21.0834 46.0823 22.1087C45.4772 22.7683 44.5863 23.3213 43.6708 23.3729C43.6042 23.3724 43.5375 23.3718 43.4689 23.3713C43.3962 23.371 43.3235 23.3707 43.2486 23.3704C43.1736 23.3696 43.0987 23.3688 43.0215 23.3679C42.9451 23.3675 42.8686 23.3671 42.7899 23.3666C42.602 23.3655 42.4141 23.3638 42.2262 23.3619C42.2281 23.5118 42.2281 23.5118 42.23 23.6648C42.2418 24.608 42.2505 25.5512 42.2561 26.4945C42.2591 26.9794 42.2632 27.4643 42.2698 27.9492C42.2761 28.4174 42.2795 28.8855 42.281 29.3537C42.2821 29.5321 42.2842 29.7105 42.2873 29.8889C42.2915 30.1393 42.2921 30.3895 42.2918 30.6399C42.2939 30.7132 42.296 30.7865 42.2981 30.8621C42.2923 31.3719 42.1436 31.633 41.8002 32.0065C41.4655 32.288 41.1 32.2594 40.6837 32.2312C40.2846 32.0777 40.0312 31.93 39.816 31.5563C39.7352 31.2907 39.709 31.0583 39.7148 30.7814C39.716 30.7048 39.7173 30.6282 39.7187 30.5493C39.7205 30.4661 39.7224 30.383 39.7243 30.2973C39.7275 30.1142 39.7306 29.9312 39.7336 29.7481C39.7361 29.6027 39.7361 29.6027 39.7387 29.4543C39.7483 28.8309 39.7506 28.2074 39.7539 27.5839C39.7572 27.0369 39.7633 26.4902 39.7755 25.9433C39.7871 25.4133 39.7912 24.8838 39.7901 24.3536C39.7911 24.1526 39.7947 23.9515 39.8012 23.7505C39.8593 22.6785 39.8593 22.6785 39.4746 21.7115C39.1165 21.3428 38.7122 21.059 38.277 20.7884C37.9695 20.5912 37.6896 20.3619 37.4059 20.1324C37.2956 20.0458 37.1851 19.9594 37.0745 19.8733C36.6993 19.5785 36.3295 19.2772 35.9598 18.9755C35.2596 18.4043 34.5512 17.8444 33.8389 17.2884C33.0599 16.6803 32.2872 16.0658 31.5215 15.4409C31.1084 15.1044 30.692 14.7724 30.272 14.4445C29.7186 14.0124 29.1732 13.5711 28.6293 13.1272C28.2162 12.7906 27.7998 12.4587 27.3798 12.1308C26.8853 11.7445 26.3963 11.352 25.9096 10.9558C25.812 10.8768 25.812 10.8768 25.7124 10.7961C25.4276 10.5652 25.1445 10.3333 24.8676 10.0931C24.784 10.0219 24.7004 9.95065 24.6142 9.87729C24.5442 9.8159 24.4743 9.75451 24.4022 9.69126C24.2056 9.55963 24.2056 9.55963 23.9793 9.56699C23.5744 9.72941 23.2792 10.0039 22.9512 10.287C22.8039 10.4113 22.6566 10.5354 22.5091 10.6594C22.4361 10.7212 22.363 10.7829 22.2878 10.8465C21.9958 11.0904 21.6972 11.3251 21.3967 11.5583C20.9117 11.9361 20.4328 12.3205 19.9566 12.7092C19.4242 13.1437 18.8873 13.5719 18.3456 13.9948C17.9144 14.3324 17.4888 14.6766 17.0645 15.0229C16.5295 15.4594 15.9906 15.8901 15.4467 16.3153C15.0357 16.6369 14.6276 16.9618 14.2205 17.2884C13.7588 17.6589 13.2951 18.0264 12.8287 18.391C12.3402 18.7732 11.8572 19.1618 11.3766 19.5539C10.7831 20.0381 10.1848 20.5154 9.58144 20.9872C9.5338 21.0269 9.48616 21.0666 9.43708 21.1075C9.2557 21.241 9.2557 21.241 9.03745 21.3408C8.73922 21.502 8.58405 21.636 8.38805 21.9158C8.21785 22.5811 8.28091 23.3022 8.2924 23.9825C8.29259 24.1874 8.29235 24.3924 8.29171 24.5973C8.29098 25.1359 8.29517 25.6744 8.30064 26.2131C8.30861 27.075 8.30925 27.937 8.30961 28.799C8.31046 29.0996 8.31349 29.4 8.31686 29.7005C8.31781 29.8854 8.31871 30.0703 8.31956 30.2552C8.32106 30.3383 8.32256 30.4213 8.32411 30.5069C8.32441 31.0268 8.24752 31.3844 8.00243 31.8455C7.69253 32.1361 7.42741 32.2238 7.00223 32.2553C6.52112 32.2221 6.30376 32.0737 5.96673 31.7399C5.73233 31.3785 5.73354 31.0782 5.74134 30.6618C5.74129 30.5828 5.74123 30.5037 5.74117 30.4223C5.74144 30.1619 5.74444 29.9017 5.74746 29.6414C5.74818 29.4605 5.74873 29.2797 5.74912 29.0988C5.75059 28.6235 5.75437 28.1482 5.75864 27.6729C5.76259 27.1876 5.76435 26.7023 5.76629 26.217C5.77042 25.2653 5.777 24.3136 5.78512 23.3619C5.61773 23.3646 5.61773 23.3646 5.44695 23.3674C5.29858 23.3689 5.15021 23.3703 5.00183 23.3717C4.92851 23.373 4.85519 23.3743 4.77965 23.3757C3.70789 23.3832 2.81567 22.946 2.03136 22.2265C1.14069 21.2879 0.916683 20.2152 0.938141 18.9668C0.977905 18.0459 1.31688 17.2926 1.92893 16.6136C1.99808 16.5345 1.99808 16.5345 2.06864 16.4539C2.57832 15.9096 3.18576 15.4701 3.77469 15.0162C4.0563 14.7989 4.33638 14.5797 4.61621 14.3601C4.67133 14.3169 4.72646 14.2737 4.78325 14.2292C5.28383 13.8355 5.77747 13.4335 6.27086 13.0308C6.73811 12.6502 7.21033 12.2765 7.68535 11.9056C8.11661 11.568 8.54217 11.2238 8.96648 10.8775C9.49896 10.4429 10.0358 10.0148 10.5775 9.59184C11.0088 9.25425 11.4343 8.91004 11.8586 8.56377C12.6128 7.94856 13.3771 7.34695 14.1443 6.74808C14.8682 6.18267 15.5853 5.60997 16.297 5.02923C16.7642 4.64855 17.2364 4.27486 17.7115 3.90395C18.1427 3.56636 18.5683 3.22213 18.9926 2.87589C19.6431 2.34567 20.2967 1.82018 20.9612 1.30752C21.1053 1.19521 21.2473 1.08023 21.3892 0.965112C22.7704 -0.116769 24.5877 -0.356556 26.1194 0.592297ZM22.3607 3.46034C22.2142 3.58301 22.0676 3.70553 21.9209 3.82788C21.8491 3.88778 21.7772 3.94768 21.7032 4.0094C21.4291 4.23494 21.1491 4.45061 20.8665 4.6654C20.3294 5.07391 19.8054 5.49662 19.2829 5.92358C18.8683 6.26196 18.4504 6.59559 18.0285 6.92489C17.5418 7.3049 17.0609 7.69133 16.5825 8.08175C16.05 8.5163 15.5132 8.94442 14.9714 9.3674C14.5402 9.70499 14.1146 10.0492 13.6903 10.3955C12.9361 11.0107 12.1719 11.6123 11.4047 12.2112C10.6808 12.7766 9.96363 13.3493 9.25198 13.93C8.78473 14.3107 8.31251 14.6844 7.83749 15.0553C7.34019 15.4446 6.85062 15.843 6.36148 16.2425C5.93229 16.5923 5.49877 16.9359 5.06208 17.2764C4.00494 17.9901 4.00494 17.9901 3.43902 19.0557C3.42968 19.6486 3.48847 19.9973 3.85702 20.4698C4.22912 20.7653 4.63349 20.9421 5.11029 20.9518C5.72707 20.7661 6.13818 20.4954 6.62264 20.0781C6.75847 19.9644 6.89442 19.8508 7.03048 19.7373C7.09713 19.6814 7.16379 19.6254 7.23246 19.5678C7.49976 19.3466 7.77418 19.137 8.05063 18.9273C8.58938 18.5164 9.11555 18.0918 9.64018 17.6631C10.0548 17.3247 10.4727 16.9911 10.8946 16.6618C11.3813 16.2818 11.8623 15.8953 12.3407 15.5049C12.8731 15.0704 13.4098 14.6423 13.9515 14.2195C14.3851 13.8801 14.8125 13.5336 15.2388 13.1852C15.7968 12.7295 16.3625 12.2871 16.9353 11.8502C17.3708 11.5152 17.7948 11.166 18.2202 10.8184C18.6349 10.48 19.0527 10.1463 19.4746 9.81703C19.9613 9.43702 20.4423 9.05056 20.9207 8.66018C21.4223 8.25134 21.9254 7.8445 22.433 7.44307C22.4874 7.39976 22.5418 7.35645 22.5978 7.31183C23.448 6.64257 23.448 6.64257 23.9996 6.6417C24.078 6.63984 24.1564 6.63797 24.2372 6.63605C24.8376 6.7507 25.3271 7.27236 25.7891 7.65395C26.2833 8.0589 26.7796 8.46012 27.2834 8.85299C27.7724 9.23464 28.2551 9.62335 28.7355 10.0159C29.1943 10.3906 29.6563 10.7592 30.1273 11.1185C30.6661 11.5294 31.1923 11.954 31.7169 12.3827C32.1315 12.7211 32.5494 13.0547 32.9713 13.384C33.5247 13.8161 34.07 14.2574 34.6139 14.7013C35.0271 15.0379 35.4434 15.3698 35.8634 15.6977C36.3501 16.0778 36.8311 16.4642 37.3095 16.8546C37.9556 17.3816 38.6082 17.8995 39.2652 18.4126C39.4875 18.5862 39.7095 18.7601 39.9313 18.9342C40.0428 19.0216 40.1544 19.1088 40.2662 19.1958C40.5678 19.4314 40.864 19.6716 41.1559 19.9192C41.2504 19.9982 41.2504 19.9982 41.3469 20.0787C41.4671 20.1794 41.5864 20.2813 41.7044 20.3846C42.1271 20.7359 42.5403 20.9148 43.0938 20.9518C43.6388 20.8465 43.9901 20.6111 44.3471 20.1806C44.5214 19.889 44.5707 19.6638 44.576 19.325C44.5788 19.2457 44.5815 19.1664 44.5843 19.0847C44.4801 18.4897 44.0369 18.1166 43.5879 17.7524C43.5331 17.707 43.4783 17.6616 43.4219 17.6149C42.9792 17.2502 42.5286 16.8953 42.0761 16.5429C41.6394 16.2025 41.2089 15.8551 40.7801 15.5049C40.2477 15.0704 39.711 14.6423 39.1693 14.2195C38.7357 13.8801 38.3083 13.5336 37.8819 13.1852C37.4231 12.8104 36.9611 12.4418 36.4901 12.0825C35.9513 11.6717 35.4252 11.2471 34.9005 10.8184C34.4859 10.48 34.068 10.1463 33.6461 9.81703C33.0927 9.38496 32.5474 8.94365 32.0035 8.49975C31.5903 8.16318 31.174 7.83127 30.754 7.50332C30.2673 7.1233 29.7863 6.73686 29.3079 6.34646C28.6621 5.81971 28.0098 5.30214 27.353 4.78925C27.127 4.61242 26.9016 4.43475 26.6763 4.257C26.5636 4.16836 26.4508 4.07998 26.3377 3.99189C26.0562 3.77254 25.7781 3.55051 25.5044 3.32138C24.7974 2.72571 24.7974 2.72571 23.9186 2.49742C23.2895 2.62513 22.8348 3.05726 22.3607 3.46034Z" fill="#A9805C"/>
<path d="M26.9431 27.7043C27.8767 28.4275 28.6098 29.5806 28.8057 30.7606C28.9318 32.1109 28.7072 33.3037 27.9584 34.4489C27.8948 34.5125 27.8311 34.5761 27.7656 34.6417C27.8485 34.692 27.9314 34.7423 28.0168 34.7942C30.0997 36.081 31.7125 37.7584 32.4284 40.1578C32.5428 40.6605 32.6394 41.1324 32.3693 41.5964C32.1332 41.886 31.9811 42.0415 31.6218 42.1612C31.1182 42.1993 30.7884 42.1613 30.3685 41.872C30.0649 41.458 29.9236 41.0315 29.7599 40.5465C29.4553 39.6662 29.0223 38.9423 28.344 38.3051C28.344 38.2414 28.344 38.1778 28.344 38.1122C28.2893 38.087 28.2346 38.0618 28.1783 38.0358C27.9406 37.91 27.7395 37.7617 27.5246 37.6001C26.1221 36.6072 24.5017 36.3317 22.8237 36.5905C21.2204 36.9272 19.8267 37.8274 18.8963 39.1727C18.5059 39.851 18.2009 40.5309 17.9971 41.288C17.8799 41.6469 17.6748 41.8723 17.378 42.095C16.937 42.2297 16.5425 42.2272 16.1247 42.0468C15.5587 41.5908 15.5587 41.5908 15.4849 41.1851C15.4113 39.6015 16.4549 37.9056 17.4696 36.7536C18.2565 35.9043 19.1728 35.1857 20.246 34.7381C20.1937 34.6552 20.1414 34.5723 20.0875 34.4869C19.2974 33.1977 18.9677 31.9011 19.294 30.3938C19.6601 29.0896 20.4379 28.0494 21.6066 27.3639C23.3393 26.4588 25.3338 26.6083 26.9431 27.7043ZM22.1741 30.207C21.7875 30.787 21.6358 31.2443 21.6921 31.9423C21.883 32.7333 22.2857 33.2139 22.9453 33.6776C23.5319 33.9771 24.2162 33.95 24.8373 33.768C25.5404 33.3644 25.9943 32.9557 26.2596 32.1751C26.4547 31.4168 26.2179 30.8506 25.8676 30.189C25.5221 29.7688 25.0986 29.5108 24.5842 29.3394C23.5658 29.2474 22.847 29.4033 22.1741 30.207Z" fill="#A9805C"/>
<path d="M39.4604 33.4362C39.5926 33.4369 39.5926 33.4369 39.7275 33.4377C40.9915 33.47 42.0322 33.9994 42.9611 34.8461C43.9282 35.8672 44.3008 37.0834 44.2912 38.4572C44.2582 39.4279 43.9832 40.2533 43.3994 41.0322C43.2683 41.19 43.2683 41.19 43.2865 41.3896C43.4551 41.4968 43.629 41.5957 43.8046 41.6909C45.8922 42.8771 47.3154 44.7917 47.9564 47.0993C48.0584 47.6054 47.9827 47.9113 47.7452 48.3609C47.4241 48.7444 47.1991 48.7991 46.7088 48.8429C46.2438 48.8014 46.025 48.651 45.6906 48.3368C45.4582 47.9696 45.3502 47.5981 45.2195 47.1856C44.6683 45.5484 43.5222 44.4345 42.008 43.6773C40.6159 43.0138 38.9743 42.9584 37.512 43.4326C36.7128 43.7177 36.0305 44.1187 35.3813 44.6674C35.2776 44.7531 35.2776 44.7531 35.1719 44.8406C34.3044 45.6274 33.8167 46.7184 33.4691 47.8169C33.299 48.3257 33.0611 48.575 32.5855 48.8128C32.1317 48.8506 31.9039 48.8584 31.4949 48.6501C31.119 48.3266 30.9717 48.1141 30.8984 47.6198C30.9805 45.8677 32.1488 44.2072 33.3568 43.0285C33.4727 42.9112 33.4727 42.9112 33.591 42.7916C34.214 42.1921 34.912 41.7907 35.6705 41.3896C35.5903 41.2448 35.5903 41.2448 35.5085 41.097C35.438 40.9676 35.3674 40.8382 35.2969 40.7087C35.2617 40.6454 35.2266 40.5821 35.1903 40.5169C34.5164 39.2731 34.4929 37.9403 34.8782 36.5957C35.0977 35.9844 35.4363 35.5117 35.8633 35.0269C35.916 34.9662 35.9687 34.9056 36.023 34.8431C36.9464 33.85 38.1238 33.4265 39.4604 33.4362ZM37.9842 36.473C37.4359 37.0252 37.1693 37.5138 37.1166 38.3046C37.1707 38.9724 37.4159 39.4696 37.8878 39.9435C38.5619 40.4571 39.1634 40.6171 40.0087 40.522C40.721 40.3042 41.1885 39.9156 41.5512 39.2687C41.8245 38.6813 41.8584 38.0829 41.6596 37.4634C41.3639 36.8194 40.9732 36.3864 40.3461 36.0572C39.4639 35.8146 38.7061 35.8793 37.9842 36.473Z" fill="#A9805C"/>
<path d="M11.2078 34.1838C12.3613 35.0544 13.0893 36.0586 13.3498 37.4935C13.5214 38.8255 13.171 39.8645 12.5334 41.0044C12.4683 41.1325 12.4036 41.2609 12.3405 41.39C12.4059 41.4228 12.4713 41.4556 12.5386 41.4894C14.6355 42.5815 16.0672 44.3025 16.8716 46.4995C17.0697 47.1367 17.2188 47.6425 16.9017 48.2649C16.5571 48.6654 16.3473 48.7965 15.8171 48.8554C15.4048 48.8383 15.1619 48.6985 14.8471 48.4276C14.6232 48.0974 14.4956 47.7845 14.3831 47.4033C13.8549 45.7827 12.7978 44.5687 11.2921 43.776C9.75853 43.049 8.10553 42.9376 6.48998 43.4868C5.01193 44.0798 3.84407 44.9761 3.08568 46.4031C2.94565 46.746 2.8226 47.0888 2.71023 47.4417C2.53585 47.9507 2.34449 48.3661 1.92882 48.7168C1.4796 48.8665 1.10924 48.8585 0.657485 48.7168C0.288554 48.4544 0.127809 48.185 0.000726489 47.7527C-0.02661 46.1672 1.1131 44.4565 2.12163 43.3181C2.17743 43.2533 2.23323 43.1884 2.29072 43.1215C2.94531 42.4118 3.84768 41.793 4.72456 41.39C4.61666 41.1721 4.50632 40.956 4.39317 40.7408C4.34346 40.6449 4.29376 40.5489 4.24254 40.4501C4.19283 40.3551 4.14312 40.2602 4.09191 40.1624C3.58459 39.0099 3.59991 37.6514 4.0181 36.4734C4.54637 35.2801 5.30667 34.465 6.45985 33.8704C6.53454 33.8303 6.60923 33.7902 6.68618 33.7488C8.09221 33.1138 9.94868 33.3539 11.2078 34.1838ZM7.01832 36.4941C6.53222 36.9781 6.25657 37.5283 6.23089 38.2147C6.23884 38.8159 6.39498 39.2651 6.74907 39.7511C7.2477 40.2367 7.79675 40.5468 8.50243 40.5646C9.17355 40.5501 9.71121 40.3272 10.2087 39.875C10.6623 39.3731 10.8492 38.8873 10.8945 38.2087C10.8031 37.3774 10.4516 36.829 9.80728 36.305C8.92176 35.6605 7.82629 35.8377 7.01832 36.4941Z" fill="#A9805C"/>
<path d="M18.7805 16.2144C18.8758 16.2139 18.9711 16.2133 19.0693 16.2128C19.1737 16.2127 19.2781 16.2126 19.3857 16.2124C19.5508 16.2117 19.5508 16.2117 19.7192 16.211C20.0842 16.2096 20.4492 16.2089 20.8142 16.2084C21.0674 16.2078 21.3206 16.2073 21.5739 16.2067C22.0373 16.2058 22.5008 16.2052 22.9642 16.2049C23.6458 16.2045 24.3273 16.2028 25.0089 16.2C25.5996 16.1977 26.1904 16.1969 26.7812 16.1968C27.0323 16.1965 27.2834 16.1957 27.5345 16.1944C27.8858 16.1928 28.237 16.193 28.5882 16.1936C28.6921 16.1927 28.7959 16.1918 28.9029 16.1909C29.4251 16.1938 29.8335 16.1995 30.272 16.5172C30.5508 16.8662 30.5981 17.1351 30.6017 17.5757C30.6032 17.6896 30.6048 17.8035 30.6063 17.9209C30.6064 18.0431 30.6064 18.1653 30.6064 18.2913C30.6071 18.4176 30.6079 18.5439 30.6086 18.6741C30.6099 18.9411 30.6101 19.2081 30.6095 19.4751C30.6089 19.8163 30.6119 20.1573 30.6158 20.4984C30.6189 20.8252 30.6185 21.1519 30.6184 21.4786C30.62 21.6007 30.6216 21.7227 30.6232 21.8484C30.6158 22.7924 30.6158 22.7924 30.3407 23.1422C29.9633 23.4593 29.713 23.5786 29.2192 23.5805C29.0761 23.5818 29.0761 23.5818 28.9301 23.583C28.826 23.5829 28.7219 23.5828 28.6147 23.5827C28.5046 23.5834 28.3945 23.584 28.2811 23.5847C27.9167 23.5865 27.5522 23.5869 27.1878 23.5871C26.9347 23.5877 26.6816 23.5884 26.4285 23.5891C25.8976 23.5903 25.3668 23.5906 24.836 23.5905C24.2231 23.5904 23.6102 23.5924 22.9973 23.5954C22.407 23.5983 21.8167 23.5989 21.2264 23.5988C20.9756 23.5991 20.7247 23.5999 20.4739 23.6014C20.1231 23.6033 19.7724 23.6027 19.4216 23.6016C19.2661 23.6032 19.2661 23.6032 19.1074 23.6049C18.5388 23.6001 18.1809 23.5656 17.7394 23.1691C17.4402 22.8641 17.4128 22.6409 17.4081 22.2195C17.4063 22.1059 17.4044 21.9923 17.4025 21.8752C17.4021 21.6916 17.4021 21.6916 17.4016 21.5043C17.4006 21.378 17.3996 21.2518 17.3987 21.1217C17.3969 20.8545 17.3964 20.5874 17.3966 20.3202C17.3966 19.9791 17.3926 19.6382 17.3877 19.2972C17.3837 18.9704 17.3838 18.6437 17.3835 18.3169C17.3814 18.195 17.3793 18.0732 17.3772 17.9477C17.3822 17.3092 17.4128 16.8975 17.8761 16.4351C18.1667 16.2241 18.4347 16.2156 18.7805 16.2144ZM19.9567 18.7345C19.9567 19.498 19.9567 20.2616 19.9567 21.0482C22.629 21.0482 25.3014 21.0482 28.0547 21.0482C28.0547 20.2847 28.0547 19.5212 28.0547 18.7345C25.3823 18.7345 22.71 18.7345 19.9567 18.7345Z" fill="#A9805C"/>
</svg>
