<svg width="85" height="75" viewBox="0 0 85 75" fill="none" xmlns="http://www.w3.org/2000/svg">
<path d="M35.1431 0.0114321C35.9638 -0.0163508 36.5403 -0.0189647 37.1968 0.53378C37.5848 1.11457 37.5869 1.33801 37.5281 2.0214C37.3691 2.45919 37.3691 2.45919 37.1433 2.90464C37.0592 3.07291 36.9751 3.24119 36.8885 3.41456C36.7963 3.59382 36.7042 3.77308 36.6093 3.95777C36.4683 4.23772 36.4683 4.23772 36.3244 4.52332C36.0745 5.01845 35.8228 5.51262 35.5703 6.00645C35.3658 6.40735 35.1631 6.8091 34.9604 7.21091C33.2595 10.5826 33.2595 10.5826 32.5588 11.7736C32.7147 11.7278 32.8706 11.682 33.0312 11.6348C33.2374 11.5749 33.4437 11.515 33.6562 11.4534C33.9618 11.3642 33.9618 11.3642 34.2735 11.2732C37.9116 10.3054 42.0384 10.9156 45.2913 12.7771C48.8851 14.9352 48.8851 14.9352 49.6199 16.4018C49.6798 17.0349 49.6961 17.4274 49.3734 17.9844C48.8112 18.5261 48.2993 18.6313 47.5504 18.7977C47.4114 18.8313 47.2724 18.8649 47.1291 18.8995C46.8362 18.9703 46.5429 19.0399 46.2494 19.1083C45.6952 19.2388 45.1439 19.3792 44.5924 19.5203C43.8897 19.7 43.186 19.8756 42.4825 20.0518C42.3327 20.0893 42.1829 20.1268 42.0286 20.1655C41.2406 20.3629 40.4526 20.5601 39.6645 20.7571C38.8529 20.9601 38.0414 21.1639 37.2301 21.3679C36.602 21.5257 35.9737 21.6828 35.3454 21.8397C35.0459 21.9146 34.7464 21.9898 34.4469 22.0653C34.0311 22.17 33.615 22.2738 33.1988 22.3773C33.076 22.4085 32.9533 22.4397 32.8268 22.4718C32.272 22.6088 31.8099 22.6829 31.2337 22.6829C31.3465 22.7954 31.4592 22.9079 31.5753 23.0238C31.6511 23.0996 31.7269 23.1755 31.805 23.2536C31.9806 23.4284 32.1571 23.6023 32.3343 23.7753C33.0551 24.4832 33.7298 25.2166 34.3809 25.9887C34.497 26.1259 34.497 26.1259 34.6154 26.2658C35.9199 27.815 37.1128 29.3987 38.1907 31.1127C38.252 31.2095 38.3134 31.3063 38.3766 31.4059C40.8135 35.2717 42.6317 39.3925 44.0917 43.7162C44.1465 43.8784 44.2013 44.0406 44.2577 44.2078C44.5319 45.0457 44.6888 45.7594 44.8163 46.6501C46.1829 46.7047 47.5494 46.7592 48.9574 46.8154C49.1931 46.3041 49.4288 45.7927 49.6717 45.2658C51.6793 41.0206 54.4171 37.3953 57.7364 34.088C55.8459 33.5384 53.9405 33.0536 52.0289 32.5836C51.7811 32.5225 51.5333 32.4615 51.2856 32.4004C50.258 32.1474 49.2304 31.8948 48.2022 31.6441C47.5659 31.4889 46.93 31.3324 46.2942 31.1751C46.0541 31.1159 45.8139 31.0573 45.5736 30.9991C45.2394 30.9182 44.9056 30.8357 44.5719 30.7527C44.3826 30.7064 44.1934 30.66 43.9984 30.6123C43.4855 30.4498 43.0968 30.2726 42.663 29.9557C42.418 29.3816 42.2718 29.0073 42.4469 28.3977C43.6378 26.0529 46.7514 24.6653 49.112 23.8341C51.4752 23.1748 54.2438 23.2672 56.5769 24.0052C56.4619 23.7756 56.3468 23.5461 56.2317 23.3166C56.1209 23.0953 56.0105 22.8738 55.9004 22.6522C55.5336 21.9156 55.1604 21.1827 54.78 20.453C54.5512 20.0133 54.3247 19.5724 54.0984 19.1314C53.9845 18.9106 53.8696 18.6902 53.7537 18.4704C53.5879 18.1557 53.4257 17.8394 53.2641 17.5227C53.1684 17.3387 53.0728 17.1547 52.9742 16.9651C52.7181 16.2683 52.7056 15.8177 52.7671 15.0794C53.0997 14.5894 53.0997 14.5894 53.5953 14.253C54.0709 14.1719 54.4278 14.1421 54.8998 14.16C55.0236 14.1629 55.1474 14.1657 55.2749 14.1687C58.1394 14.2874 60.7574 15.4866 62.8713 17.3935C62.9885 17.4971 63.1057 17.6006 63.2265 17.7073C65.3008 19.6466 66.7409 22.6063 66.8758 25.4444C66.8775 25.9576 66.8694 26.4678 66.8467 26.9804C66.9633 26.9065 67.0799 26.8326 67.2 26.7564C70.373 24.8178 73.8465 24.1664 77.4844 25.0011C80.4024 25.7527 82.9981 27.5326 84.6842 30.0409C84.8945 30.4381 84.9773 30.6697 84.9845 31.1127C84.9896 31.2184 84.9947 31.3241 85 31.433C84.8427 31.9784 84.5406 32.2996 84.0734 32.6004C83.4399 32.7856 82.7992 32.8579 82.1446 32.9342C81.9583 32.9587 81.7719 32.9832 81.58 33.0084C80.9863 33.0858 80.3921 33.1582 79.7978 33.2305C79.3946 33.2822 78.9913 33.3342 78.5882 33.3865C77.6011 33.5138 76.6136 33.6371 75.6257 33.7574C75.8192 33.9501 75.8192 33.9501 76.0166 34.1466C78.9039 37.0332 80.2925 40.1346 80.3258 44.2121C80.3281 44.3961 80.3304 44.5801 80.3328 44.7697C80.3267 45.8257 80.2844 46.8603 79.7668 47.8072C79.2558 48.1471 78.9356 48.2494 78.3232 48.2295C77.4952 48.0289 76.9067 47.3694 76.2883 46.8154C76.1069 46.6597 75.9251 46.5046 75.7428 46.3499C75.3478 46.0147 74.954 45.6781 74.5613 45.3401C74.0079 44.8643 73.451 44.3928 72.8926 43.9228C72.1368 43.2864 71.3854 42.6451 70.6357 42.0013C69.963 41.4239 69.2857 40.8543 68.5963 40.2967C67.7156 39.5845 66.8614 38.8435 66.0101 38.0967C65.9085 38.0079 65.8068 37.9192 65.7021 37.8277C65.6113 37.748 65.5206 37.6683 65.427 37.5862C65.1879 37.3776 65.1879 37.3776 64.859 37.2285C61.4743 43.0171 61.4743 43.0171 60.0554 49.4601C60.1434 49.4915 60.2314 49.5229 60.3221 49.5553C64.6543 51.1151 68.678 53.1681 72.1472 56.2371C72.2871 56.3587 72.4269 56.4804 72.571 56.6057C73.6953 57.5979 73.6953 57.5979 74.1511 58.1315C75.0665 59.1866 75.8042 59.3785 77.1682 59.5945C79.2467 59.9812 80.6186 61.594 82.0695 63.01C82.6709 63.5891 83.2934 64.1457 83.9187 64.699C84.4615 65.19 84.8501 65.5902 84.9459 66.3319C84.9472 66.4537 84.9485 66.5755 84.9498 66.701C84.9529 66.9096 84.9529 66.9096 84.9562 67.1224C84.9567 67.3458 84.9567 67.3458 84.9573 67.5737C84.9584 67.7282 84.9595 67.8827 84.9606 68.0418C84.9623 68.3683 84.9631 68.6948 84.963 69.0213C84.9638 69.5195 84.9698 70.0173 84.9761 70.5154C84.977 70.8331 84.9777 71.1508 84.978 71.4684C84.9804 71.6167 84.9828 71.765 84.9852 71.9177C84.9785 72.8354 84.854 73.3618 84.2391 74.0886C83.3883 74.8365 82.8828 74.9393 81.774 74.9372C81.5683 74.9378 81.5683 74.9378 81.3585 74.9384C80.894 74.9395 80.4296 74.9394 79.9651 74.9393C79.6308 74.9399 79.2964 74.9405 78.962 74.9412C78.0393 74.9428 77.1166 74.9435 76.1938 74.9439C75.2002 74.9445 74.2065 74.9461 73.2129 74.9476C70.9249 74.9507 68.6369 74.9524 66.3489 74.9538C65.2187 74.9544 64.0885 74.9553 62.9583 74.9562C59.091 74.9591 55.2236 74.9616 51.3563 74.9628C51.1134 74.9629 50.8705 74.963 50.6277 74.9631C50.447 74.9631 50.447 74.9631 50.2627 74.9632C49.6525 74.9634 49.0422 74.9636 48.432 74.9638C48.3109 74.9638 48.1898 74.9639 48.065 74.9639C44.1375 74.9652 40.2101 74.9691 36.2826 74.9745C32.1321 74.9801 27.9816 74.9834 23.8311 74.9839C23.3756 74.984 22.9202 74.9841 22.4647 74.9842C22.2965 74.9842 22.2965 74.9842 22.1249 74.9842C20.3185 74.9846 18.512 74.9872 16.7056 74.9906C14.8905 74.9939 13.0755 74.9948 11.2604 74.9933C10.2767 74.9925 9.29299 74.9929 8.30927 74.996C7.4093 74.9989 6.5094 74.9988 5.60943 74.9962C5.28327 74.9958 4.95711 74.9966 4.63095 74.9985C4.18859 75.001 3.74642 74.9994 3.30406 74.9968C3.17655 74.9985 3.04904 75.0002 2.91767 75.002C2.06203 74.9909 1.5815 74.7902 0.921268 74.2538C0.374113 73.6341 0.0747025 73.2464 0.06374 72.4226C0.0616139 72.2835 0.0594879 72.1444 0.0572974 72.0011C0.0560738 71.8505 0.0548502 71.6998 0.0535895 71.5446C0.0522525 71.3897 0.0509155 71.2347 0.049538 71.0751C0.0472445 70.7466 0.0454689 70.4182 0.0441671 70.0897C0.0413202 69.5886 0.034052 69.0878 0.0267375 68.5868C0.0250596 68.2676 0.0236491 67.9484 0.0225317 67.6293C0.0196316 67.4799 0.0167316 67.3306 0.0137436 67.1768C0.0175482 66.0686 0.297459 65.4923 1.06042 64.6684C1.21478 64.5258 1.21478 64.5258 1.37225 64.3803C1.48781 64.2725 1.60336 64.1648 1.72242 64.0538C1.90492 63.8869 1.90492 63.8869 2.09111 63.7165C2.21737 63.6002 2.34363 63.4839 2.47371 63.364C2.72543 63.1322 2.97743 62.9008 3.22974 62.6696C3.51832 62.4022 3.80075 62.1307 4.08011 61.8537C5.40604 60.5681 6.83216 59.6302 8.68702 59.4344C9.86954 59.2551 10.4117 58.6775 11.1807 57.8073C11.4386 57.534 11.6974 57.2615 11.9572 56.9899C12.0812 56.859 12.2053 56.7281 12.3331 56.5933C16.9672 51.8596 24.4452 49.223 30.7368 47.8072C29.0718 36.4114 29.0718 36.4114 23.6142 26.4846C22.9305 26.4846 22.7782 26.7519 22.2891 27.218C22.1248 27.3719 21.9603 27.5253 21.7954 27.6784C21.7118 27.756 21.6282 27.8336 21.5421 27.9135C21.178 28.2438 20.798 28.5523 20.4152 28.8606C19.7036 29.434 19.0061 30.0209 18.3137 30.6169C17.4872 31.3276 16.6502 32.0226 15.8031 32.7088C15.2531 33.1612 14.7125 33.6237 14.1726 34.088C13.3473 34.7977 12.5118 35.4922 11.6653 36.1767C10.9971 36.7271 10.3427 37.2933 9.69122 37.8632C8.18283 39.1694 8.18283 39.1694 7.28812 39.2947C6.59441 39.194 6.34641 39.0838 5.89052 38.5509C4.82721 34.9135 5.47492 30.6297 7.21566 27.311C8.2382 25.5786 9.65165 23.8021 11.3567 22.6829C11.466 22.6829 11.5753 22.6829 11.688 22.6829C11.688 22.5738 11.688 22.4647 11.688 22.3523C11.5108 22.3571 11.3336 22.362 11.151 22.367C10.2091 22.3662 9.28639 22.2386 8.3538 22.1166C8.16356 22.0921 7.97333 22.0676 7.77733 22.0423C7.37675 21.9904 6.97623 21.938 6.57577 21.8852C5.96464 21.805 5.3532 21.7275 4.7417 21.6501C4.35141 21.5992 3.96114 21.548 3.57089 21.4968C3.389 21.474 3.20711 21.4513 3.01971 21.4278C0.862677 21.1368 0.862677 21.1368 0.0930589 20.3688C-0.0741816 19.5204 -0.0418829 19.1077 0.404931 18.3575C2.71148 15.157 6.1626 13.1194 10.0316 12.4348C14.0028 11.8463 17.8177 12.8762 21.1296 15.0794C21.1458 14.8815 21.162 14.6836 21.1787 14.4796C21.5729 10.0411 23.0836 6.11872 26.5957 3.17845C29.0889 1.26142 32.009 0.203963 35.1431 0.0114321ZM32.1551 3.60201C30.334 4.24034 28.9563 5.12727 27.5896 6.48428C27.4736 6.59422 27.3577 6.70417 27.2383 6.81744C25.7731 8.31081 24.8441 10.3995 24.4424 12.4348C24.4048 12.6189 24.3672 12.803 24.3285 12.9926C24.1741 14.7797 24.0637 17.1572 25.105 18.7159C25.364 18.3303 25.6228 17.9446 25.8814 17.5588C25.9535 17.4516 26.0255 17.3445 26.0998 17.234C26.3218 16.9025 26.542 16.5698 26.7614 16.2365C26.8296 16.1335 26.8978 16.0306 26.9681 15.9245C27.5648 15.001 28.0478 14.0303 28.5317 13.0443C29.1382 11.8205 29.7517 10.6024 30.3952 9.39754C31.4314 7.45446 32.4067 5.48058 33.3871 3.50903C32.9049 3.26845 32.6604 3.43479 32.1551 3.60201ZM29.1114 17.9514C28.4716 18.7608 28.0078 19.5953 27.5896 20.5341C29.3908 20.257 31.1509 19.7907 32.9173 19.3512C33.256 19.2672 33.5946 19.1832 33.9333 19.0993C34.6392 18.9241 35.3451 18.7484 36.0508 18.5724C36.9571 18.3466 37.8639 18.1225 38.7707 17.8988C39.4684 17.7265 40.1657 17.5529 40.8629 17.379C41.1974 17.2958 41.532 17.213 41.8667 17.1307C42.3321 17.0161 42.797 16.8998 43.2619 16.783C43.4009 16.7492 43.54 16.7154 43.6832 16.6805C44.0085 16.5979 44.3302 16.5012 44.6507 16.4018C44.7054 16.2927 44.76 16.1836 44.8163 16.0712C43.5874 15.3093 42.3971 14.6645 41.0066 14.253C40.8199 14.1971 40.8199 14.1971 40.6294 14.14C36.3684 13.0861 31.9335 14.6574 29.1114 17.9514ZM4.39974 18.5506C5.97925 18.7699 7.55919 18.9856 9.13977 19.1971C9.87426 19.2955 10.6086 19.395 11.3425 19.4973C14.9046 19.9929 18.3555 20.3445 21.9578 20.2035C21.801 19.9913 21.6438 19.7795 21.4864 19.5678C21.3989 19.4498 21.3114 19.3318 21.2212 19.2103C19.4253 16.9129 16.3092 15.7146 13.5204 15.317C10.0678 14.9499 6.84488 16.0841 4.39974 18.5506ZM56.9082 17.5588C57.1622 18.4096 57.5303 19.1629 57.9383 19.9472C58.0074 20.0814 58.0765 20.2156 58.1478 20.3539C58.3689 20.7828 58.591 21.2111 58.8131 21.6395C58.9572 21.9189 59.1013 22.1984 59.2453 22.4779C59.6059 23.177 59.9682 23.8752 60.3315 24.5729C60.481 24.8599 60.6302 25.147 60.7793 25.4341C61.0011 25.8608 61.2237 26.287 61.4465 26.7131C61.5131 26.8414 61.5796 26.9696 61.6482 27.1017C62.1491 28.0559 62.7051 28.938 63.3682 29.7904C64.2626 28.4517 64.0119 26.2091 63.7577 24.6825C63.0446 21.979 61.6017 19.845 59.1961 18.3749C58.4406 17.9641 57.7545 17.705 56.9082 17.5588ZM11.4259 26.6737C9.75842 28.6388 8.50148 31.0146 8.53044 33.6438C8.53193 33.8204 8.53343 33.997 8.53497 34.179C8.53689 34.3126 8.53881 34.4462 8.54079 34.5839C9.21795 34.3046 9.72617 33.831 10.2697 33.3545C10.4775 33.1745 10.6855 32.9946 10.8934 32.8147C10.9984 32.7236 11.1033 32.6325 11.2114 32.5387C11.6814 32.1322 12.1552 31.7304 12.6301 31.3297C12.7191 31.2545 12.8081 31.1792 12.8999 31.1018C13.4541 30.6348 14.0135 30.1747 14.5764 29.7181C15.382 29.0639 16.1701 28.3911 16.9568 27.7146C17.5406 27.2136 18.1299 26.721 18.7278 26.2366C19.4613 25.6403 20.1894 25.038 20.9122 24.4288C21.0157 24.3427 21.1193 24.2566 21.226 24.1679C21.4763 23.9556 21.7179 23.7333 21.9578 23.5093C21.9578 23.4002 21.9578 23.2911 21.9578 23.1787C18.0354 22.5989 14.1862 23.7792 11.4259 26.6737ZM26.4922 23.9225C26.2892 23.9916 26.2892 23.9916 26.082 24.062C25.9782 24.0978 25.8745 24.1336 25.7675 24.1705C25.832 24.2672 25.8965 24.364 25.9629 24.4636C27.9422 27.4945 29.4874 30.6954 30.7368 34.088C32.5634 33.9886 33.6749 33.0921 34.8778 31.7739C34.0211 30.318 33.0147 29.064 31.8963 27.8069C31.7781 27.6733 31.7781 27.6733 31.6576 27.5371C30.745 26.5095 29.8101 25.5442 28.7491 24.6664C28.641 24.5707 28.533 24.475 28.4217 24.3764C28.3179 24.2846 28.2141 24.1928 28.1072 24.0982C28.0154 24.0166 27.9236 23.935 27.829 23.8509C27.3774 23.5184 26.9825 23.7548 26.4922 23.9225ZM47.301 27.9722C47.301 28.0813 47.301 28.1904 47.301 28.3028C49.0229 28.7343 50.7449 29.1653 52.4671 29.5959C53.2667 29.7958 54.0662 29.9958 54.8657 30.1962C55.6368 30.3895 56.4079 30.5823 57.1791 30.7749C57.4738 30.8486 57.7685 30.9224 58.0632 30.9964C58.4748 31.0997 58.8865 31.2025 59.2983 31.3051C59.421 31.3361 59.5437 31.367 59.6701 31.3988C60.2696 31.5545 60.2696 31.5545 60.8836 31.6086C60.2138 29.7649 58.6388 28.3208 56.9289 27.4247C53.6157 25.8984 50.4675 26.241 47.301 27.9722ZM67.0123 30.7821C66.8963 30.9996 66.7848 31.2197 66.681 31.4433C69.559 31.5522 72.34 31.2363 75.1825 30.8303C75.7577 30.7487 76.3333 30.67 76.9088 30.591C78.0275 30.4371 79.1457 30.2801 80.2637 30.121C79.7308 28.9653 78.469 28.5159 77.3235 28.0858C73.7019 26.8036 69.6771 28.1612 67.0123 30.7821ZM66.5154 34.4186C67.7005 35.6405 68.9949 36.7368 70.318 37.8057C70.9017 38.2858 71.4733 38.7784 72.0437 39.274C74.5419 41.8551 74.5419 41.8551 77.2821 43.5096C77.4464 41.4192 76.5162 39.3729 75.2575 37.7438C73.5117 35.7172 71.3216 34.5663 68.6687 34.2533C67.9319 34.2045 67.2348 34.2391 66.5154 34.4186ZM35.6543 35.1107C34.4748 36.0193 33.2093 36.6409 31.7306 36.8979C31.8391 37.9867 32.0811 39.0106 32.3518 40.0695C32.9347 42.4086 33.3356 44.7675 33.7183 47.146C34.3089 47.3408 34.7953 47.2942 35.409 47.2248C35.6112 47.2027 35.8134 47.1806 36.0217 47.1578C36.2352 47.1335 36.4488 47.1091 36.6688 47.084C38.3349 46.9021 39.995 46.7338 41.6691 46.6501C41.5664 45.6386 41.2815 44.7354 40.9445 43.7782C40.8865 43.6132 40.8285 43.4483 40.7687 43.2783C39.6648 40.2079 38.2728 37.275 36.6999 34.4186C36.3411 34.4186 35.9118 34.9064 35.6543 35.1107ZM60.8907 35.2379C60.7297 35.3918 60.5721 35.5494 60.4177 35.7099C60.2896 35.8358 60.2896 35.8358 60.1589 35.9642C59.984 36.1367 59.8104 36.3105 59.6382 36.4856C59.4216 36.7036 59.1974 36.9141 58.9722 37.1233C58.0773 37.9654 57.3035 38.8883 56.5458 39.8525C56.4482 39.9745 56.3505 40.0965 56.2499 40.2223C56.1607 40.3385 56.0715 40.4547 55.9797 40.5744C55.8992 40.6781 55.8186 40.7819 55.7356 40.8887C55.5496 41.192 55.5496 41.192 55.6268 41.5484C55.9337 42.3244 56.7934 42.8287 57.5293 43.1584C58.051 43.3713 58.051 43.3713 58.5646 43.3443C58.6269 43.1799 58.6269 43.1799 58.6904 43.0122C59.5487 40.7635 60.4587 38.6136 61.6942 36.5446C61.9827 36.06 62.2607 35.5696 62.54 35.0797C61.8286 34.8985 61.5173 34.8241 60.8907 35.2379ZM53.761 44.3361C53.5981 44.5756 53.4446 44.8215 53.2951 45.0695C53.2121 45.2057 53.129 45.3418 53.0434 45.4821C52.6917 46.1274 52.4035 46.8054 52.1046 47.4766C53.7444 47.8584 55.3843 48.2402 57.0738 48.6336C57.4247 47.4065 57.4247 47.4065 57.5708 46.1543C57.4326 46.1061 57.2945 46.058 57.1521 46.0083C56.0713 45.6155 55.1263 45.1985 54.1932 44.524C53.9585 44.3202 53.9585 44.3202 53.761 44.3361ZM14.692 60.6241C15.2955 61.7123 15.7486 62.474 17.7095 62.6696C18.9821 62.5672 20.4133 61.8059 21.3305 60.9252C23.7445 59.1185 24.5222 58.7941 26.762 58.8174C28.5951 58.9256 29.9984 60.471 31.3165 61.7123C32.2007 62.5261 33.1106 62.9274 34.2981 63.0967C35.5361 62.9202 36.4178 62.5074 37.321 61.64C38.9591 60.0728 40.8263 59.4847 43.0661 59.508C44.8992 59.6162 46.3969 60.471 47.7151 61.7123C48.5992 62.5261 49.5091 62.9274 50.6966 63.0967C51.9346 62.9202 52.8163 62.5074 53.7196 61.64C55.3577 60.0728 57.2249 59.4847 59.4646 59.508C61.2978 59.6162 62.7955 60.471 64.1136 61.7123C64.9978 62.5261 65.9076 62.9274 67.0952 63.0967C68.591 62.8834 69.5315 62.2486 70.6112 61.2171C71.0426 60.814 71.4776 60.5084 71.9816 60.2041C70.4859 58.7009 68.9637 57.3835 67.178 56.2371C67.085 56.1768 66.992 56.1166 66.8962 56.0545C53.5545 47.4937 22.8392 49.7971 14.692 60.6241ZM6.06652 64.202C5.08785 65.153 4.09178 66.0675 3.07461 66.981C3.07461 68.6174 3.07461 70.2538 3.07461 71.9398C29.0936 71.9398 55.1126 71.9398 81.9201 71.9398C82.4516 67.2982 82.4516 67.2982 80.6985 65.5244C80.1568 65.1191 80.1568 65.1191 79.6018 64.7326C79.1406 64.4118 78.7681 64.0391 78.3691 63.6442C77.3159 62.7142 76.3016 62.219 74.8751 62.2915C73.7411 62.4616 73.0019 62.9599 72.1783 63.7372C70.6521 65.1749 68.7772 65.9221 66.6804 65.8756C64.3842 65.6366 62.8452 64.4701 61.1612 63.0063C60.2103 62.3136 59.2085 62.2198 58.0677 62.3528C57.1183 62.5933 56.4842 63.0723 55.7798 63.7372C54.2536 65.1749 52.3787 65.9221 50.2819 65.8756C47.9857 65.6366 46.4466 64.4701 44.7626 63.0063C43.8117 62.3136 42.8099 62.2198 41.6691 62.3528C40.5215 62.6435 39.7978 63.3362 38.9535 64.1291C37.464 65.4149 35.7947 65.9105 33.8549 65.8646C31.6049 65.669 30.0302 64.4982 28.3945 63.0424C27.4367 62.3165 26.4359 62.217 25.2706 62.3528C24.123 62.6435 23.3993 63.3362 22.555 64.1291C21.0818 65.4008 19.4023 65.9186 17.479 65.8756C15.1854 65.6341 13.6481 64.4688 11.9656 63.0063C11.2728 62.5017 10.5837 62.305 9.73134 62.2909C9.60387 62.2862 9.47639 62.2815 9.34506 62.2767C7.96596 62.4988 7.03085 63.2417 6.06652 64.202Z" fill="white"/>
</svg>
