<svg width="55" height="55" viewBox="0 0 55 55" fill="none" xmlns="http://www.w3.org/2000/svg">
<circle cx="27.5" cy="27.5" r="27" fill="#EBE0D0" stroke="#46301C"/>
<path d="M20.2759 25.8103C19.895 26.2103 19.9104 26.8433 20.3103 27.2241C20.7103 27.605 21.3433 27.5896 21.7241 27.1897L20.2759 25.8103ZM28.867 19.6897C29.2479 19.2897 29.2324 18.6567 28.8325 18.2759C28.4326 17.895 27.7996 17.9104 27.4187 18.3103L28.867 19.6897ZM28.8669 18.3103C28.486 17.9104 27.8531 17.895 27.4531 18.2759C27.0532 18.6567 27.0378 19.2897 27.4186 19.6897L28.8669 18.3103ZM34.5615 27.1897C34.9424 27.5896 35.5754 27.605 35.9753 27.2241C36.3752 26.8433 36.3907 26.2103 36.0098 25.8103L34.5615 27.1897ZM29.1429 19C29.1429 18.4477 28.6951 18 28.1429 18C27.5906 18 27.1429 18.4477 27.1429 19H29.1429ZM27.1429 39C27.1429 39.5523 27.5906 40 28.1429 40C28.6951 40 29.1429 39.5523 29.1429 39H27.1429ZM21 26.5L21.7241 27.1897L28.867 19.6897L28.1429 19L27.4187 18.3103L20.2759 25.8103L21 26.5ZM28.1428 19L27.4186 19.6897L34.5615 27.1897L35.2856 26.5L36.0098 25.8103L28.8669 18.3103L28.1428 19ZM28.1429 19H27.1429V39H28.1429H29.1429V19H28.1429Z" fill="#46301C"/>
</svg>
