<svg width="67" height="80" viewBox="0 0 67 80" fill="none" xmlns="http://www.w3.org/2000/svg">
<path d="M35.8614 0.484643C36.8454 1.13087 37.703 1.94947 38.5671 2.74484C44.1314 7.835 51.228 9.86998 58.5721 10.6084C61.318 10.8864 63.4511 11.8689 65.2709 13.9822C66.6889 15.9465 66.9839 18.1365 66.9826 20.4861C66.9834 20.6939 66.9834 20.6939 66.9842 20.9058C66.9856 21.3602 66.9859 21.8145 66.9861 22.2688C66.9866 22.5901 66.9871 22.9114 66.9877 23.2327C66.9886 23.9063 66.9889 24.58 66.9888 25.2537C66.9888 25.9359 66.9898 26.6181 66.9919 27.3003C67.0144 34.6872 67.0144 34.6872 66.6534 38.1981C66.6354 38.3799 66.6354 38.3799 66.6171 38.5655C66.5488 39.2442 66.4668 39.9201 66.3752 40.5962C66.349 40.7928 66.3227 40.9895 66.2957 41.1922C65.1722 49.3434 62.6059 57.1687 57.4447 63.6753C57.3266 63.826 57.2085 63.9768 57.0868 64.1321C55.1704 66.5285 52.9931 68.7355 50.5383 70.5818C50.4475 70.6513 50.3568 70.7207 50.2632 70.7924C47.6747 72.766 44.8647 74.4231 41.9236 75.8162C41.6314 75.9559 41.342 76.1005 41.0527 76.246C34.5314 79.4825 34.5314 79.4825 31.1822 78.4385C25.8381 76.6236 20.7621 73.8963 16.3129 70.4283C16.1781 70.3234 16.0434 70.2186 15.9046 70.1105C6.73573 62.7917 2.17214 52.2347 0.638995 40.7976C0.614624 40.6192 0.590252 40.4408 0.565142 40.257C0.484201 39.6226 0.415006 38.9879 0.351225 38.3516C0.337463 38.2182 0.323701 38.0848 0.309521 37.9474C-0.0360096 34.4462 -0.00304937 30.9363 0.00425306 27.4219C0.00601678 26.5648 0.00498183 25.7076 0.00315706 24.8505C0.00204262 24.1813 0.00240365 23.5121 0.00319688 22.843C0.0033994 22.5269 0.00315605 22.2108 0.00243342 21.8947C-0.00752957 16.3255 -0.0075284 16.3255 1.73252 14.1021C1.82333 13.9858 1.91414 13.8695 2.0077 13.7496C3.66131 11.7617 5.76171 10.8582 8.30626 10.592C8.66326 10.5616 9.02038 10.5327 9.3776 10.505C15.6948 9.92681 21.6704 7.99609 26.7493 4.12613C26.8842 4.02385 27.0192 3.92156 27.1582 3.81618C27.881 3.2528 28.5555 2.65083 29.2241 2.02541C31.02 0.351788 33.4556 -0.647043 35.8614 0.484643ZM32.9533 5.06153C32.8757 5.13983 32.7981 5.21812 32.7181 5.29879C32.6289 5.38629 32.5397 5.47378 32.4478 5.56393C32.305 5.7069 32.305 5.7069 32.1594 5.85275C26.5188 11.2961 18.7586 14.42 11.0107 15.1357C10.714 15.1633 10.714 15.1633 10.4112 15.1914C10.0265 15.2253 9.64143 15.2562 9.25616 15.2836C7.92906 15.3963 6.65317 15.6621 5.73252 16.7017C4.88182 17.9648 4.77896 19.0926 4.77977 20.5756C4.77925 20.7128 4.77874 20.85 4.77821 20.9914C4.77675 21.444 4.77645 21.8966 4.77629 22.3492C4.77579 22.668 4.77527 22.9869 4.77474 23.3058C4.77382 23.9756 4.77353 24.6454 4.77362 25.3153C4.77364 25.9942 4.77259 26.6732 4.77048 27.3522C4.74458 32.7063 4.74458 32.7063 5.10902 38.0446C5.12064 38.1604 5.13226 38.2761 5.14423 38.3954C5.20979 39.0446 5.28848 39.6908 5.3776 40.3372C5.41655 40.6212 5.41655 40.6212 5.45629 40.9111C6.70821 49.6433 10.1058 58.9516 17.0766 64.7928C17.2919 64.9757 17.5019 65.1649 17.7073 65.3587C19.8023 67.3321 22.2597 68.8615 24.7541 70.2748C24.8729 70.3422 24.9918 70.4097 25.1142 70.4792C26.9846 71.5286 28.926 72.3897 30.9214 73.1739C31.2127 73.2888 31.5025 73.4077 31.7907 73.5304C33.4768 74.2145 34.5953 73.8013 36.2265 73.1237C36.3946 73.0548 36.5628 72.986 36.736 72.915C41.0755 71.1162 45.1158 68.8854 48.6965 65.824C48.8151 65.7227 48.9336 65.6214 49.0557 65.517C57.8936 57.7525 61.3709 46.8681 62.128 35.3701C62.2271 33.7396 62.2277 32.1099 62.2283 30.4769C62.2288 30.1539 62.2293 29.831 62.2299 29.5081C62.2308 28.8364 62.2311 28.1648 62.231 27.4932C62.231 26.6358 62.2331 25.7784 62.2357 24.9209C62.2374 24.2561 62.2377 23.5913 62.2376 22.9265C62.2378 22.6104 62.2385 22.2942 62.2397 21.9781C62.2412 21.5361 62.2407 21.0942 62.2398 20.6522C62.2407 20.5241 62.2415 20.3959 62.2424 20.2639C62.2346 18.7736 62.0619 17.4939 60.9747 16.4043C59.7497 15.3297 58.0716 15.3371 56.5196 15.1784C49.8293 14.4898 43.3956 12.4592 37.9531 8.42349C37.86 8.35445 37.7669 8.2854 37.6709 8.21426C36.5358 7.36398 35.4695 6.46326 34.4632 5.4625C33.7948 4.81175 33.7948 4.81175 32.9533 5.06153Z" fill="white"/>
<path d="M46.5664 24.6542C50.3022 27.8758 52.7123 32.6743 53.1467 37.5847C53.4862 43.3231 51.8019 48.3999 48.0388 52.7636C44.7541 56.4481 39.8303 58.8061 34.9063 59.0974C29.0758 59.3245 23.9391 57.4545 19.6344 53.4829C15.9931 49.9724 13.9146 44.9264 13.8023 39.9018C13.7636 34.3274 15.8113 29.3283 19.6887 25.3065C27.1397 18.0375 38.736 18.1144 46.5664 24.6542ZM23.0652 28.8365C22.9615 28.9287 22.8578 29.0209 22.751 29.1159C20.3121 31.3694 18.785 34.9362 18.5949 38.2277C18.4612 42.3134 19.5702 45.8975 22.1443 49.0955C22.2646 49.2569 22.3849 49.4184 22.5088 49.5847C25.0001 52.2539 28.6367 54.1217 32.3029 54.3331C36.5968 54.4741 40.459 53.2477 43.6749 50.3329C46.1288 48.0321 47.6412 45.1963 48.2354 41.882C48.2773 41.6702 48.2773 41.6702 48.32 41.454C48.831 37.8011 47.9288 33.9508 45.7954 30.9402C45.263 30.2544 44.6912 29.6173 44.0916 28.99C43.9533 28.8345 43.9533 28.8345 43.8122 28.6758C41.4063 26.0721 37.7565 24.6982 34.272 24.481C29.9595 24.3231 26.169 25.8699 23.0652 28.8365Z" fill="white"/>
<path d="M42.1632 32.9033C42.7481 33.4739 43.1372 34.0356 43.195 34.8691C43.1022 36.2114 42.2543 37.0111 41.3428 37.9169C41.2374 38.0229 41.132 38.1288 41.0234 38.2379C40.6767 38.586 40.3289 38.9329 39.981 39.2798C39.739 39.522 39.497 39.7643 39.2551 40.0066C38.7488 40.5133 38.242 41.0194 37.7348 41.5252C37.0845 42.1738 36.4356 42.8237 35.7871 43.474C35.2881 43.9741 34.7884 44.4734 34.2885 44.9726C34.0489 45.212 33.8095 45.4516 33.5703 45.6915C33.2364 46.0262 32.9016 46.3599 32.5664 46.6933C32.4183 46.8423 32.4183 46.8423 32.2672 46.9943C32.1756 47.0851 32.0839 47.1759 31.9895 47.2694C31.9105 47.3483 31.8315 47.4272 31.7501 47.5085C31.2171 47.9572 30.7564 48.0687 30.0673 48.0783C29.9268 48.0827 29.7864 48.0871 29.6416 48.0915C28.6387 47.9294 27.9206 47.0916 27.2304 46.4003C27.0852 46.2561 27.0852 46.2561 26.9372 46.1091C26.734 45.9068 26.5313 45.7042 26.3289 45.5011C26.0195 45.1912 25.708 44.8834 25.3964 44.5757C25.1987 44.3782 25.001 44.1807 24.8035 43.983C24.7106 43.8916 24.6177 43.8001 24.522 43.7058C23.8945 43.0713 23.5705 42.5881 23.4678 41.6803C23.5488 40.8839 23.773 40.2333 24.3653 39.6725C24.9971 39.2497 25.614 39.2007 26.3605 39.1911C27.4194 39.4136 28.1527 40.3326 28.8778 41.0759C28.9835 41.183 29.0891 41.29 29.198 41.4003C29.4565 41.6624 29.7141 41.9253 29.9714 42.1887C30.9341 41.4018 31.8019 40.5274 32.6754 39.645C32.9466 39.371 33.2185 39.0976 33.4904 38.8244C34.2628 38.0483 35.0344 37.2712 35.8053 36.4935C36.2785 36.0161 36.7526 35.5395 37.227 35.0633C37.4072 34.8822 37.587 34.7009 37.7665 34.5192C38.017 34.2658 38.2684 34.0133 38.52 33.7611C38.6627 33.6173 38.8053 33.4735 38.9522 33.3254C39.8761 32.4885 41.0274 32.4077 42.1632 32.9033Z" fill="white"/>
</svg>
