<svg width="40" height="40" viewBox="0 0 40 40" fill="none" xmlns="http://www.w3.org/2000/svg">
<rect x="0.714844" y="0.5" width="38.176" height="38.176" rx="19.088" fill="white" stroke="#9CB2A9"/>
<path d="M19.5007 16.9673V12.9673H16.0577C15.7407 14.1753 15.5507 15.5363 15.5137 16.9673H19.5007Z" fill="#015533"/>
<path d="M19.5003 11.9672V8.0332C18.2253 8.3472 17.0953 9.8412 16.3633 11.9672H19.5003Z" fill="#015533"/>
<path d="M19.5007 17.9673H15.5127C15.5497 19.3983 15.7407 20.7593 16.0567 21.9673H19.5007V17.9673Z" fill="#015533"/>
<path d="M14.5134 17.9673H10.5254C10.6014 19.4073 10.9874 20.7663 11.6364 21.9673H15.0194C14.7234 20.7503 14.5474 19.4013 14.5134 17.9673Z" fill="#015533"/>
<path d="M24.488 16.9673C24.451 15.5363 24.26 14.1753 23.944 12.9673H20.5V16.9673H24.488Z" fill="#015533"/>
<path d="M15.0194 12.9673H11.6364C10.9874 14.1683 10.6004 15.5273 10.5254 16.9673H14.5124C14.5474 15.5333 14.7234 14.1843 15.0194 12.9673Z" fill="#015533"/>
<path d="M20.5 8.0332V11.9672H23.637C22.905 9.8412 21.775 8.3472 20.5 8.0332Z" fill="#015533"/>
<path d="M24.9814 21.9673H28.3644C29.0134 20.7663 29.4004 19.4073 29.4754 17.9673H25.4884C25.4534 19.4013 25.2774 20.7503 24.9814 21.9673Z" fill="#015533"/>
<path d="M19.5003 26.9013V22.9673H16.3633C17.0953 25.0933 18.2253 26.5873 19.5003 26.9013Z" fill="#015533"/>
<path d="M15.2986 22.9673H12.2686C13.4676 24.6473 15.1936 25.9263 17.2096 26.5473C16.4236 25.6783 15.7686 24.4493 15.2986 22.9673Z" fill="#015533"/>
<path d="M24.702 11.9672H27.732C26.533 10.2872 24.807 9.00821 22.791 8.38721C23.577 9.25621 24.232 10.4852 24.702 11.9672Z" fill="#015533"/>
<path d="M24.702 22.9673C24.232 24.4493 23.577 25.6783 22.791 26.5473C24.807 25.9263 26.533 24.6473 27.732 22.9673H24.702Z" fill="#015533"/>
<path d="M15.2986 11.9672C15.7686 10.4852 16.4236 9.25621 17.2096 8.38721C15.1936 9.00821 13.4676 10.2872 12.2686 11.9672H15.2986Z" fill="#015533"/>
<path d="M20.5 22.9673V26.9013C21.775 26.5873 22.905 25.0933 23.637 22.9673H20.5Z" fill="#015533"/>
<path d="M24.9814 12.9673C25.2774 14.1843 25.4534 15.5333 25.4874 16.9673H29.4744C29.3984 15.5273 29.0124 14.1683 28.3634 12.9673H24.9814Z" fill="#015533"/>
<path d="M20.5 17.9673V21.9673H23.943C24.26 20.7593 24.45 19.3983 24.487 17.9673H20.5Z" fill="#015533"/>
<path d="M22 28.9673H21.5V28.4673C21.5 28.1913 21.276 27.9673 21 27.9673H19C18.724 27.9673 18.5 28.1913 18.5 28.4673V28.9673H18C17.724 28.9673 17.5 29.1913 17.5 29.4673V31.4673C17.5 31.7433 17.724 31.9673 18 31.9673H22C22.276 31.9673 22.5 31.7433 22.5 31.4673V29.4673C22.5 29.1913 22.276 28.9673 22 28.9673Z" fill="#015533"/>
<path d="M27 30.9673H22C21.724 30.9673 21.5 30.7433 21.5 30.4673C21.5 30.1913 21.724 29.9673 22 29.9673H27C27.276 29.9673 27.5 30.1913 27.5 30.4673C27.5 30.7433 27.276 30.9673 27 30.9673Z" fill="#015533"/>
<path d="M18 30.9673H13C12.724 30.9673 12.5 30.7433 12.5 30.4673C12.5 30.1913 12.724 29.9673 13 29.9673H18C18.276 29.9673 18.5 30.1913 18.5 30.4673C18.5 30.7433 18.276 30.9673 18 30.9673Z" fill="#015533"/>
</svg>
