<svg width="40" height="40" viewBox="0 0 40 40" fill="none" xmlns="http://www.w3.org/2000/svg">
<rect x="1.10742" y="0.5" width="38.176" height="38.176" rx="19.088" fill="white" stroke="#9CB2A9"/>
<path d="M31.2503 14.2318C31.1237 13.7586 30.8743 13.3267 30.5269 12.9794C30.1796 12.6321 29.7465 12.3815 29.2711 12.2527C27.5209 11.7852 20.5252 11.7852 20.5252 11.7852C20.5252 11.7852 13.5295 11.7852 11.7793 12.2527C11.3038 12.3815 10.8708 12.6321 10.5234 12.9794C10.1761 13.3267 9.92667 13.7586 9.80011 14.2318C9.33203 15.9783 9.33203 19.6204 9.33203 19.6204C9.33203 19.6204 9.33203 23.2625 9.80011 25.009C9.92667 25.4822 10.1761 25.914 10.5234 26.2613C10.8708 26.6086 11.3038 26.8592 11.7793 26.988C13.5295 27.4556 20.5252 27.4556 20.5252 27.4556C20.5252 27.4556 27.5209 27.4556 29.2711 26.988C29.7465 26.8592 30.1796 26.6086 30.5269 26.2613C30.8743 25.914 31.1237 25.4822 31.2503 25.009C31.7183 23.2625 31.7183 19.6204 31.7183 19.6204C31.7183 19.6204 31.7183 15.9783 31.2503 14.2318Z" fill="#015533"/>
<path d="M18.2871 21.8593V16.2627L23.8837 19.061L18.2871 21.8593Z" fill="#E0E2E2"/>
</svg>
