<svg width="453" height="407" viewBox="0 0 453 407" fill="none" xmlns="http://www.w3.org/2000/svg">
<g opacity="0.1">
<path d="M26.4595 444.007L118.431 423.873L143.139 330.016C135.361 331.681 128.04 333.044 123.159 333.649C95.3998 338.039 70.0811 336.374 45.3724 331.53C40.7967 335.163 36.6785 337.585 30.4251 337.434C28.2898 337.434 26.307 337.131 24.4767 336.677L2.97098 418.272L0.225562 428.263C-0.994621 437.497 2.05585 449.305 26.4595 444.007Z" fill="#A6CE39"/>
<path d="M202.18 15.9043C200.814 15.9043 199.601 15.9043 198.539 16.2078L103.435 33.6616L35.7852 291.522C45.1894 295.013 50.0432 302.45 51.1049 310.797C72.1886 315.654 104.648 319.296 146.361 311.86C147.423 308.824 216.893 45.1963 216.893 45.1963C223.415 20.0021 210.674 16.0561 202.18 16.0561V15.9043Z" fill="#A6CE39"/>
<path d="M149.805 497.717L241.388 477.9L299.903 256.712L304.17 240.554C292.132 247.261 277.96 258.542 273.693 261.743C248.55 280.493 220.054 299.09 190.644 310.066C187.596 318.145 179.825 323.937 170.834 323.785C169.158 323.785 167.329 323.48 165.653 323.023L126.186 472.107L123.443 482.016C122.376 491.315 125.271 502.9 149.653 497.717H149.805Z" fill="#A6CE39"/>
<path d="M325.657 69.5817C324.142 69.5817 322.93 69.5817 321.719 69.8852L227.053 86.8846L174.949 286.475C178.887 287.234 182.371 289.359 184.946 292.243C186.309 291.788 187.672 291.332 188.884 290.877C227.962 276.458 250.985 257.03 277.339 239.727C279.914 238.209 291.88 230.62 307.784 221.817L340.197 98.4199C346.559 73.5279 334.139 69.5817 325.657 69.5817Z" fill="#A6CE39"/>
<path d="M306.409 428.229L396.955 408.533L455.261 186.876C450.44 187.482 445.468 188.392 441.4 189.149C440.948 189.301 440.496 189.301 440.195 189.452C435.524 190.513 432.511 191.119 432.511 191.119C410.063 196.876 379.931 206.572 347.69 222.632C346.635 230.511 339.855 236.571 331.87 236.571C330.213 236.571 328.556 236.117 326.899 235.662L283.056 402.927L280.495 412.623C279.441 421.865 282.303 433.38 306.409 428.077V428.229Z" fill="#A6CE39"/>
<path d="M497.269 28.9078C503.672 3.95581 490.866 0 482.481 0C481.109 0 479.889 0 478.822 0.304293L383.692 17.4968L333.992 205.55C336.889 206.006 339.328 206.919 341.462 208.745C364.635 198.703 393.753 188.662 433.391 180.141C438.574 179.229 447.417 177.555 458.546 175.881L497.421 28.9078H497.269Z" fill="#A6CE39"/>
</g>
</svg>
