<svg width="48" height="48" viewBox="0 0 48 48" fill="none" xmlns="http://www.w3.org/2000/svg">
<path d="M44.9582 25.1716C45.7304 11.2726 35.7151 2 23.115 2C21.7501 2 20.2519 2.74259 18.9531 2.98077C17.2773 4.01376 15.7449 4.01011 14.4525 5.52628C12.2618 8.0961 10.7432 11.046 10.2282 14.4756C9.32053 20.5293 11.1447 25.6691 15.2727 29.9583C16.0059 30.7275 16.1018 31.3248 15.5171 32.3562C14.8101 33.5959 13.7367 34.4376 12.5934 35.2067C12.4711 35.2792 12.349 35.3696 12.2268 35.4511C12.0435 35.614 12.1569 35.6954 12.314 35.7679V35.7589C14.5396 36.2112 16.7128 35.9036 18.851 35.225C19.5753 34.9989 20.2998 34.7727 21.0328 34.5826C21.5304 34.4469 22.0539 34.474 22.5341 34.6551C28.0675 36.6278 33.5308 36.4467 38.9071 34.0035C41.0979 32.999 42.2865 31.7228 43.9797 29.9583C44.5003 28.436 44.8647 26.8543 44.9582 25.1716Z" fill="white"/>
<path d="M19.0057 20.8871C20.3402 20.8871 21.5951 20.8781 22.8412 20.8871C23.5394 20.8962 23.9194 21.1972 23.9902 21.7719C24.0697 22.4924 23.6632 22.9757 22.9032 22.9849C21.4716 23.0032 20.0487 22.994 18.6169 22.994C18.2017 22.994 17.795 23.0123 17.3797 22.9849C16.8671 22.9576 16.3634 22.8481 16.1159 22.3008C15.8685 21.7536 16.0452 21.2612 16.3811 20.8141C17.7421 19.0266 19.1119 17.2298 20.4818 15.442C20.5613 15.3326 20.6408 15.2231 20.7204 15.1227C20.6321 14.9676 20.5083 15.0406 20.4022 15.0316C19.4477 15.0225 18.4845 15.0316 17.53 15.0225C17.3091 15.0225 17.0882 14.9951 16.8761 14.9495C16.3723 14.831 16.0631 14.311 16.1779 13.8004C16.2575 13.4537 16.5226 13.171 16.8584 13.0889C17.0705 13.0342 17.2914 13.0068 17.5123 13.0068C19.0854 12.9977 20.6672 12.9977 22.2404 13.0068C22.5232 12.9977 22.7972 13.0342 23.0711 13.1072C23.672 13.317 23.9283 13.8915 23.6897 14.4935C23.4776 15.0134 23.1419 15.4603 22.8059 15.9072C21.6482 17.4304 20.4905 18.9445 19.3328 20.4493C19.2356 20.5678 19.1472 20.6865 19.0059 20.8871H19.0057Z" fill="#014129"/>
<path d="M29.0809 16.5137C29.2819 16.258 29.4911 16.0187 29.8344 15.9528C30.4957 15.8209 31.1151 16.2416 31.1236 16.9014C31.1487 18.5511 31.1404 20.2007 31.1236 21.8503C31.1236 22.2791 30.839 22.6585 30.4288 22.7823C30.0104 22.939 29.5332 22.8152 29.2569 22.4606C29.1145 22.2873 29.056 22.2544 28.8551 22.4111C28.0933 23.0214 27.231 23.1287 26.3019 22.8318C24.8118 22.3534 24.2007 21.2069 24.0334 19.813C23.8576 18.3036 24.3682 17.0169 25.7411 16.2251C26.8796 15.5569 28.0347 15.6147 29.0811 16.5138L29.0809 16.5137ZM26.1175 19.5242C26.1343 19.8871 26.2514 20.2335 26.4691 20.5223C26.9212 21.1162 27.7834 21.2399 28.3945 20.7945C28.495 20.7203 28.5871 20.6295 28.6708 20.5223C29.1395 19.8954 29.1395 18.8644 28.6708 18.2376C28.4364 17.9159 28.068 17.7262 27.6746 17.7179C26.7539 17.6602 26.1092 18.3613 26.1177 19.5242H26.1175ZM34.8821 19.5737C34.8151 17.4539 36.2298 15.8703 38.2389 15.8126C40.3735 15.7465 41.9305 17.1571 41.9975 19.2191C42.0645 21.3058 40.767 22.7823 38.7663 22.9802C36.5814 23.1948 34.8486 21.6357 34.8821 19.5737ZM36.9831 19.3758C36.9663 19.7881 37.0919 20.1924 37.3431 20.5305C37.8034 21.1244 38.6657 21.2398 39.2684 20.778C39.3606 20.7119 39.4359 20.6295 39.5113 20.547C39.9968 19.9202 39.9968 18.8644 39.5196 18.2376C39.2852 17.9241 38.9168 17.7262 38.5235 17.7179C37.6193 17.6684 36.9831 18.3448 36.9831 19.3758ZM34.1454 17.9324C34.1454 19.2109 34.1537 20.4894 34.1454 21.7678C34.1537 22.3534 33.685 22.8401 33.0907 22.8565C32.9903 22.8565 32.8815 22.8483 32.781 22.8236C32.3625 22.7164 32.0444 22.2791 32.0444 21.7596V15.2024C32.0444 14.8148 32.0361 14.4353 32.0444 14.0477C32.0527 13.4126 32.4629 13.0001 33.0824 13.0001C33.7186 12.9919 34.1456 13.4043 34.1456 14.0641C34.1539 15.3507 34.1456 16.6458 34.1456 17.9324H34.1454Z" fill="#014129"/>
</svg>
