<svg width="413" height="200" viewBox="0 0 413 200" fill="none" xmlns="http://www.w3.org/2000/svg">
<path d="M272.802 130.718L299.84 124.764L307.104 97.009C304.817 97.5015 302.665 97.9044 301.23 98.0834C293.069 99.3816 285.626 98.8892 278.362 97.4567C277.017 98.5311 275.806 99.2473 273.968 99.2026C273.34 99.2026 272.757 99.1131 272.219 98.9788L265.897 123.108L265.09 126.062C264.731 128.793 265.628 132.285 272.802 130.718Z" fill="url(#paint0_linear_293_2073)"/>
<path d="M324.948 4.70093C324.545 4.70093 324.186 4.70093 323.872 4.79046L295.758 9.93858L275.76 85.9965C278.54 87.0261 279.975 89.2197 280.289 91.6818C286.521 93.1144 296.117 94.1888 308.448 91.9952C308.761 91.0999 329.298 13.3408 329.298 13.3408C331.226 5.90962 327.459 4.74569 324.948 4.74569V4.70093Z" fill="url(#paint1_linear_293_2073)"/>
<path d="M309.167 146.609L336.115 140.79L353.334 75.8339L354.589 71.0887C351.047 73.0584 346.877 76.3711 345.621 77.3112C338.223 82.8175 329.838 88.2789 321.184 91.5021C320.287 93.8747 318 95.5759 315.355 95.5311C314.862 95.5311 314.324 95.4416 313.83 95.3073L302.217 139.089L301.41 141.999C301.096 144.729 301.948 148.131 309.122 146.609H309.167Z" fill="url(#paint2_linear_293_2073)"/>
<path d="M361.359 20.5925C360.911 20.5925 360.552 20.5925 360.193 20.6821L332.169 25.6959L316.744 84.5636C317.91 84.7874 318.941 85.4141 319.704 86.2647C320.107 86.1304 320.511 85.9961 320.869 85.8618C332.438 81.609 339.253 75.8789 347.055 70.7756C347.818 70.3279 351.36 68.0896 356.068 65.4931L365.664 29.0981C367.547 21.7565 363.87 20.5925 361.359 20.5925Z" fill="url(#paint3_linear_293_2073)"/>
<path d="M355.216 126.017L382.164 120.197L399.517 54.7043C398.082 54.8834 396.602 55.152 395.392 55.3758C395.257 55.4206 395.123 55.4206 395.033 55.4654C393.643 55.7787 392.746 55.9578 392.746 55.9578C386.065 57.6589 377.097 60.524 367.502 65.2692C367.188 67.597 365.17 69.3877 362.794 69.3877C362.301 69.3877 361.807 69.2534 361.314 69.1191L348.266 118.541L347.504 121.406C347.19 124.137 348.042 127.539 355.216 125.972V126.017Z" fill="url(#paint4_linear_293_2073)"/>
<path d="M411.757 8.5056C413.64 1.16392 409.874 0 407.408 0C407.004 0 406.645 0 406.332 0.0895326L378.352 5.14812L363.734 60.4793C364.586 60.6136 365.304 60.8822 365.931 61.4194C372.747 58.4648 381.311 55.5102 392.969 53.0033C394.494 52.7347 397.095 52.2423 400.368 51.7498L411.802 8.5056H411.757Z" fill="url(#paint5_linear_293_2073)"/>
<path d="M294.189 170.514C294.189 171.052 294.189 171.499 294.144 171.857C294.099 172.215 294.054 172.484 293.965 172.753C293.875 172.976 293.785 173.111 293.696 173.2C293.561 173.29 293.427 173.335 293.292 173.335C293.068 173.335 292.664 173.2 292.171 172.887C291.678 172.574 291.005 172.215 290.153 171.857C289.301 171.454 288.27 171.096 287.104 170.828C285.938 170.47 284.593 170.335 283.069 170.335C281.41 170.335 279.885 170.604 278.585 171.231C277.24 171.768 276.119 172.618 275.132 173.603C274.235 174.678 273.473 175.931 272.98 177.408C272.487 178.886 272.218 180.542 272.218 182.288C272.218 184.258 272.487 186.003 273.025 187.436C273.518 188.913 274.28 190.167 275.177 191.152C276.119 192.181 277.284 192.897 278.585 193.435C279.93 193.927 281.365 194.196 282.934 194.196C283.696 194.196 284.459 194.106 285.221 193.927C285.983 193.748 286.701 193.479 287.284 193.166V185.198H280.872C280.513 185.198 280.244 185.019 280.109 184.616C279.93 184.213 279.885 183.541 279.885 182.601C279.885 182.109 279.885 181.706 279.93 181.348C279.93 181.034 280.065 180.766 280.109 180.587C280.199 180.363 280.334 180.229 280.423 180.139C280.513 180.05 280.692 180.005 280.872 180.005H292.35C292.664 180.005 292.889 180.005 293.113 180.139C293.337 180.229 293.561 180.408 293.74 180.587C293.875 180.811 294.009 180.99 294.099 181.258C294.189 181.527 294.234 181.885 294.234 182.198V195.763C294.234 196.3 294.144 196.747 293.965 197.105C293.785 197.508 293.427 197.867 292.844 198.046C292.261 198.314 291.543 198.538 290.736 198.762C289.929 198.986 289.032 199.21 288.136 199.389C287.239 199.568 286.297 199.702 285.4 199.791C284.504 199.881 283.562 199.926 282.62 199.926C279.885 199.926 277.464 199.523 275.312 198.762C273.159 198.001 271.321 196.837 269.886 195.404C268.361 193.882 267.241 192.092 266.478 189.943C265.671 187.839 265.268 185.422 265.268 182.691C265.268 179.96 265.671 177.408 266.523 175.215C267.375 173.021 268.541 171.096 270.11 169.574C271.635 168.007 273.518 166.843 275.715 165.993C277.912 165.187 280.334 164.784 283.024 164.784C284.504 164.784 285.849 164.919 287.059 165.098C288.27 165.321 289.301 165.545 290.198 165.814C291.14 166.127 291.857 166.441 292.44 166.754C293.068 167.067 293.471 167.381 293.696 167.605C293.92 167.828 294.144 168.186 294.234 168.634C294.323 169.082 294.368 169.798 294.368 170.649" fill="white"/>
<path d="M322.707 198.404C322.707 198.628 322.707 198.762 322.572 198.897C322.528 199.076 322.348 199.165 322.079 199.255C321.81 199.344 321.407 199.344 320.913 199.434C320.42 199.523 319.703 199.523 318.806 199.523C318.089 199.523 317.506 199.523 317.012 199.434C316.609 199.389 316.25 199.344 315.981 199.255C315.712 199.12 315.533 199.031 315.443 198.897C315.353 198.718 315.264 198.538 315.174 198.359L312.125 190.704C311.766 189.854 311.408 189.138 311.004 188.466C310.69 187.795 310.287 187.257 309.838 186.81C309.39 186.362 308.941 186.004 308.358 185.78C307.776 185.556 307.148 185.422 306.386 185.422H304.233V198.404C304.233 198.404 304.188 198.718 304.054 198.897C303.964 199.031 303.785 199.12 303.471 199.255C303.202 199.344 302.888 199.389 302.44 199.434C301.991 199.568 301.408 199.568 300.736 199.568C300.063 199.568 299.525 199.568 299.077 199.434C298.628 199.434 298.27 199.389 298.001 199.255C297.732 199.165 297.552 199.031 297.463 198.897C297.328 198.718 297.283 198.583 297.283 198.404V167.471C297.283 166.71 297.463 166.128 297.866 165.814C298.225 165.501 298.718 165.277 299.301 165.277H308.134C309.031 165.277 309.748 165.277 310.331 165.277C310.914 165.322 311.408 165.367 311.901 165.411C313.291 165.546 314.546 165.904 315.622 166.351C316.699 166.799 317.64 167.426 318.402 168.232C319.165 168.948 319.792 169.888 320.151 170.962C320.555 171.947 320.779 173.201 320.779 174.544C320.779 175.663 320.644 176.693 320.375 177.633C320.061 178.617 319.658 179.423 319.075 180.184C318.492 180.901 317.82 181.527 317.012 182.064C316.205 182.602 315.219 183.049 314.188 183.407C314.681 183.631 315.174 183.945 315.667 184.303C316.116 184.661 316.519 185.064 316.923 185.601C317.326 186.093 317.685 186.675 317.999 187.302C318.358 187.929 318.716 188.69 319.03 189.451L321.9 196.166C322.169 196.837 322.348 197.33 322.438 197.643C322.528 197.912 322.572 198.18 322.572 198.315M313.784 175.26C313.784 174.141 313.515 173.246 313.022 172.44C312.484 171.679 311.677 171.141 310.511 170.783C310.152 170.739 309.748 170.649 309.3 170.56C308.852 170.56 308.224 170.47 307.462 170.47H304.368V180.14H307.865C308.897 180.14 309.704 180.005 310.466 179.781C311.183 179.558 311.811 179.244 312.304 178.797C312.798 178.394 313.156 177.856 313.425 177.274C313.649 176.648 313.784 175.976 313.784 175.215" fill="white"/>
<path d="M355.216 181.886C355.216 184.706 354.857 187.213 354.14 189.451C353.467 191.689 352.391 193.57 351.001 195.136C349.566 196.659 347.862 197.822 345.844 198.673C343.827 199.434 341.405 199.926 338.76 199.926C336.114 199.926 333.783 199.524 331.81 198.852C329.837 198.181 328.178 197.106 326.833 195.674C325.532 194.286 324.546 192.45 323.873 190.257C323.201 188.063 322.887 185.467 322.887 182.512C322.887 179.737 323.245 177.23 323.918 175.036C324.635 172.843 325.667 170.963 327.057 169.396C328.447 167.874 330.151 166.665 332.213 165.859C334.231 165.053 336.652 164.606 339.343 164.606C342.033 164.606 344.23 164.964 346.203 165.635C348.176 166.307 349.835 167.381 351.135 168.769C352.481 170.202 353.467 171.992 354.184 174.186C354.857 176.379 355.171 178.931 355.171 181.841M347.952 182.199C347.952 180.453 347.772 178.842 347.503 177.364C347.234 175.932 346.741 174.678 346.069 173.559C345.396 172.574 344.499 171.724 343.378 171.186C342.257 170.605 340.822 170.291 339.118 170.291C337.415 170.291 336.025 170.605 334.859 171.276C333.738 171.903 332.796 172.753 332.079 173.828C331.361 174.947 330.868 176.156 330.599 177.588C330.33 179.021 330.195 180.543 330.195 182.109C330.195 183.945 330.33 185.691 330.599 187.123C330.868 188.645 331.361 189.854 332.034 190.928C332.706 191.958 333.603 192.809 334.724 193.391C335.845 193.928 337.235 194.196 338.984 194.196C340.733 194.196 342.078 193.838 343.244 193.256C344.41 192.63 345.306 191.734 346.024 190.66C346.741 189.585 347.234 188.332 347.503 186.81C347.817 185.422 347.952 183.855 347.952 182.199Z" fill="white"/>
<path d="M385.706 186.631C385.706 188.69 385.437 190.57 384.81 192.227C384.182 193.883 383.285 195.271 382.074 196.435C380.864 197.554 379.429 198.449 377.635 198.986C375.887 199.613 373.869 199.882 371.582 199.882C369.475 199.882 367.547 199.613 365.798 199.031C364.139 198.539 362.659 197.688 361.493 196.614C360.328 195.539 359.431 194.152 358.803 192.585C358.175 190.928 357.861 189.048 357.861 186.899V166.173C357.861 166.173 357.906 165.814 357.996 165.68C358.086 165.501 358.265 165.412 358.579 165.367C358.848 165.277 359.207 165.232 359.655 165.143C360.058 165.053 360.641 165.053 361.359 165.053C362.076 165.053 362.569 165.053 363.018 165.143C363.421 165.232 363.825 165.232 364.049 165.367C364.273 165.412 364.542 165.501 364.632 165.68C364.767 165.859 364.811 165.993 364.811 166.173V186.273C364.811 187.616 364.946 188.824 365.305 189.764C365.663 190.794 366.112 191.6 366.739 192.227C367.367 192.898 368.13 193.39 368.981 193.659C369.833 193.972 370.82 194.152 371.896 194.152C373.017 194.152 373.959 194.017 374.855 193.659C375.707 193.346 376.425 192.853 377.052 192.227C377.635 191.6 378.084 190.794 378.443 189.854C378.756 188.959 378.936 187.839 378.936 186.676V166.173C378.936 166.173 378.936 165.814 379.07 165.68C379.205 165.501 379.384 165.412 379.608 165.367C379.877 165.277 380.236 165.232 380.684 165.143C381.133 165.053 381.716 165.053 382.343 165.053C382.971 165.053 383.554 165.053 384.003 165.143C384.451 165.232 384.765 165.232 385.034 165.367C385.303 165.412 385.482 165.501 385.572 165.68C385.662 165.859 385.706 165.993 385.706 166.173V186.586V186.631Z" fill="white"/>
<path d="M412.252 175.619C412.252 177.499 411.938 179.2 411.355 180.677C410.772 182.154 409.875 183.408 408.754 184.438C407.588 185.467 406.198 186.228 404.495 186.765C402.88 187.303 400.907 187.526 398.665 187.526H395.841V198.405C395.841 198.405 395.751 198.718 395.661 198.897C395.527 199.031 395.347 199.121 395.078 199.255C394.809 199.345 394.451 199.389 394.002 199.434C393.554 199.569 393.016 199.569 392.343 199.569C391.671 199.569 391.133 199.569 390.639 199.434C390.191 199.434 389.877 199.389 389.563 199.255C389.294 199.166 389.115 199.031 389.025 198.897C388.935 198.718 388.846 198.584 388.846 198.405V167.74C388.846 166.889 389.025 166.262 389.473 165.86C389.922 165.457 390.46 165.233 391.177 165.233H399.204C400.011 165.233 400.773 165.233 401.49 165.322C402.208 165.367 403.105 165.501 404.136 165.68C405.167 165.904 406.198 166.307 407.275 166.8C408.306 167.382 409.203 168.053 409.92 168.904C410.682 169.709 411.265 170.694 411.579 171.813C411.983 172.933 412.207 174.186 412.207 175.574M404.988 176.111C404.988 174.947 404.764 173.917 404.36 173.156C403.956 172.395 403.418 171.813 402.835 171.411C402.208 171.052 401.58 170.829 400.907 170.739C400.235 170.65 399.517 170.56 398.8 170.56H395.885V182.154H398.979C400.1 182.154 401.042 181.975 401.759 181.707C402.522 181.349 403.149 180.946 403.598 180.453C404.046 179.916 404.45 179.245 404.674 178.528C404.898 177.723 405.033 176.962 405.033 176.111" fill="white"/>
<path d="M222.716 128.927C207.829 123.287 202.673 121.631 202.673 115.856C202.673 110.081 208.412 106.723 217.335 106.723C225.362 106.723 233.074 108.469 240.248 111.871L242.131 112.812L248.768 88.8168L247.422 88.1901C238.768 84.2954 228.814 82.3705 217.873 82.3705C191.239 82.3705 173.617 95.5318 173.617 116.841C173.617 132.598 184.468 143.387 205.812 150.773C219.084 155.563 223.523 159.145 223.523 165.009C223.523 171.679 217.649 175.484 207.336 175.484C198.458 175.484 188.19 173.918 179.805 169.665L177.832 168.68L177.204 168.501C177.339 167.247 177.653 165.904 177.653 164.517C177.653 151.534 170.344 141.238 157.923 136.403C168.102 131.434 173.752 122.839 173.752 112.364C173.752 101.889 168.461 93.6516 159.358 88.7721C151.377 84.0716 142.319 82.5496 126.222 82.46H0V107.932H30.3113V199.837H59.4567V107.932H90.3509V198.002L91.8306 198.226C96.0903 198.852 105.417 199.927 119.765 199.927C140.436 199.927 154.785 197.151 163.887 190.66C168.506 193.078 179.895 197.688 193.705 199.345C196.889 199.703 200.252 199.927 203.704 199.927C204.242 199.927 208.233 200.464 219.532 198.629C244.015 194.197 253.252 177.767 253.252 163.263C253.252 146.879 243.566 136.672 222.761 129.017M119.138 104.53C121.066 104.306 123.935 104.082 128.285 104.082C135.728 104.082 144.606 106.052 144.606 115.363C144.606 123.018 137.567 127.584 125.729 127.584H119.138V104.53ZM127.254 177.454C123.891 177.454 121.29 177.454 119.138 177.32V149.296H126.133C134.069 149.296 147.341 151.176 147.341 163.487C147.341 175.798 134.786 177.454 127.298 177.454" fill="white"/>
<defs>
<linearGradient id="paint0_linear_293_2073" x1="275.093" y1="105.388" x2="306.082" y2="115.486" gradientUnits="userSpaceOnUse">
<stop stop-color="#A6CE39"/>
<stop offset="1" stop-color="#598527"/>
</linearGradient>
<linearGradient id="paint1_linear_293_2073" x1="294.464" y1="27.1222" x2="326.902" y2="31.6638" gradientUnits="userSpaceOnUse">
<stop stop-color="#A6CE39"/>
<stop offset="1" stop-color="#598527"/>
</linearGradient>
<linearGradient id="paint2_linear_293_2073" x1="311.514" y1="93.7636" x2="346.376" y2="103.095" gradientUnits="userSpaceOnUse">
<stop stop-color="#A6CE39"/>
<stop offset="1" stop-color="#598527"/>
</linearGradient>
<linearGradient id="paint3_linear_293_2073" x1="327.012" y1="48.0443" x2="361.872" y2="58.9252" gradientUnits="userSpaceOnUse">
<stop stop-color="#A6CE39"/>
<stop offset="1" stop-color="#598527"/>
</linearGradient>
<linearGradient id="paint4_linear_293_2073" x1="360.332" y1="75.9409" x2="392.095" y2="85.2689" gradientUnits="userSpaceOnUse">
<stop stop-color="#A6CE39"/>
<stop offset="1" stop-color="#598527"/>
</linearGradient>
<linearGradient id="paint5_linear_293_2073" x1="377.38" y1="20.9225" x2="407.59" y2="33.3487" gradientUnits="userSpaceOnUse">
<stop stop-color="#A6CE39"/>
<stop offset="1" stop-color="#598527"/>
</linearGradient>
</defs>
</svg>
