<svg width="101" height="79" viewBox="0 0 101 79" fill="none" xmlns="http://www.w3.org/2000/svg">
<path opacity="0.2" d="M25.6328 78.9414H21.0918C15.2324 78.9414 10.3496 76.5977 6.44336 71.9102C2.63477 67.125 0.730469 60.1914 0.730469 51.1094L0.876953 49.9375V48.7656C0.876953 37.3398 4.7832 26.4512 12.5957 16.0996C20.4082 5.65039 27.5371 0.425781 33.9824 0.425781H35.7402C38.7676 0.425781 40.2812 2.52539 40.2812 6.72461L31.1992 18.8828C27.293 24.0586 25.3398 29.1367 25.3398 34.1172C25.3398 36.9492 28.2207 41.002 33.9824 46.2754C39.8418 51.4512 42.7715 56.1875 42.7715 60.4844V62.5352C42.7715 67.2227 40.8184 71.1289 36.9121 74.2539C33.1035 77.3789 29.3438 78.9414 25.6328 78.9414ZM58.2988 52.1348V49.9375C58.2988 37.9258 62.2051 26.6953 70.0176 16.2461C77.9277 5.69922 85.3496 0.425781 92.2832 0.425781C95.8965 0.425781 97.7031 2.28125 97.7031 5.99219C97.7031 6.67578 95.2129 10.2891 90.2324 16.832C85.3496 23.375 82.9082 29.4297 82.9082 34.9961C82.9082 37.1445 85.7891 40.8555 91.5508 46.1289C97.4102 51.3047 100.34 56.0898 100.34 60.4844V62.5352C100.34 67.125 98.3867 70.9824 94.4805 74.1074C90.6719 77.2324 86.8633 78.7949 83.0547 78.7949H78.5137C72.752 78.7949 67.918 76.4512 64.0117 71.7637C60.2031 67.0762 58.2988 60.5332 58.2988 52.1348Z" fill="#A6CE39"/>
</svg>
