<svg width="101" height="79" viewBox="0 0 101 79" fill="none" xmlns="http://www.w3.org/2000/svg">
<path opacity="0.2" d="M75.3672 78.9414H79.9082C85.7676 78.9414 90.6504 76.5977 94.5566 71.9102C98.3652 67.125 100.27 60.1914 100.27 51.1094L100.123 49.9375V48.7656C100.123 37.3398 96.2168 26.4512 88.4043 16.0996C80.5918 5.65039 73.4629 0.425781 67.0176 0.425781H65.2598C62.2324 0.425781 60.7188 2.52539 60.7188 6.72461L69.8008 18.8828C73.707 24.0586 75.6602 29.1367 75.6602 34.1172C75.6602 36.9492 72.7793 41.002 67.0176 46.2754C61.1582 51.4512 58.2285 56.1875 58.2285 60.4844V62.5352C58.2285 67.2227 60.1816 71.1289 64.0879 74.2539C67.8965 77.3789 71.6562 78.9414 75.3672 78.9414ZM42.7012 52.1348V49.9375C42.7012 37.9258 38.7949 26.6953 30.9824 16.2461C23.0723 5.69922 15.6504 0.425781 8.7168 0.425781C5.10352 0.425781 3.29688 2.28125 3.29688 5.99219C3.29688 6.67578 5.78711 10.2891 10.7676 16.832C15.6504 23.375 18.0918 29.4297 18.0918 34.9961C18.0918 37.1445 15.2109 40.8555 9.44922 46.1289C3.58984 51.3047 0.660156 56.0898 0.660156 60.4844V62.5352C0.660156 67.125 2.61328 70.9824 6.51953 74.1074C10.3281 77.2324 14.1367 78.7949 17.9453 78.7949H22.4863C28.248 78.7949 33.082 76.4512 36.9883 71.7637C40.7969 67.0762 42.7012 60.5332 42.7012 52.1348Z" fill="#A6CE39"/>
</svg>
