<svg width="38" height="38" viewBox="0 0 38 38" fill="none" xmlns="http://www.w3.org/2000/svg">
<path d="M24.6687 19C24.6687 22.135 22.1354 24.6683 19.0004 24.6683C15.8654 24.6683 13.332 22.135 13.332 19C13.332 15.865 15.8654 13.3317 19.0004 13.3317C22.1354 13.3317 24.6687 15.865 24.6687 19Z" stroke="#174375" stroke-width="2" stroke-linecap="round" stroke-linejoin="round"/>
<path d="M19.0007 32.0942C24.5899 32.0942 29.7991 28.8008 33.4249 23.1008C34.8499 20.8683 34.8499 17.1158 33.4249 14.8833C29.7991 9.18335 24.5899 5.89001 19.0007 5.89001C13.4116 5.89001 8.2024 9.18335 4.57656 14.8833C3.15156 17.1158 3.15156 20.8683 4.57656 23.1008C8.2024 28.8008 13.4116 32.0942 19.0007 32.0942Z" stroke="#174375" stroke-width="2" stroke-linecap="round" stroke-linejoin="round"/>
</svg>
