<svg width="32" height="32" viewBox="0 0 32 32" fill="none" xmlns="http://www.w3.org/2000/svg">
<path d="M16.0013 29.3333C23.3651 29.3333 29.3346 23.3638 29.3346 16C29.3346 8.6362 23.3651 2.66667 16.0013 2.66667C8.63751 2.66667 2.66797 8.6362 2.66797 16C2.66797 23.3638 8.63751 29.3333 16.0013 29.3333Z" stroke="#E0E2E2" stroke-width="1.5" stroke-linecap="round" stroke-linejoin="round"/>
<path d="M10.0547 16C10.0547 20.0533 10.708 24.1067 12.0014 28H10.668" stroke="#E0E2E2" stroke-width="1.5" stroke-linecap="round" stroke-linejoin="round"/>
<path d="M10.6685 4H12.0018C11.3485 5.94667 10.8685 7.93333 10.5352 9.94667" stroke="#E0E2E2" stroke-width="1.5" stroke-linecap="round" stroke-linejoin="round"/>
<path d="M21.5067 21.8133C21.1733 23.8933 20.68 25.9733 20 28" stroke="#E0E2E2" stroke-width="1.5" stroke-linecap="round" stroke-linejoin="round"/>
<path d="M20 4C21.2933 7.89333 21.9467 11.9467 21.9467 16" stroke="#E0E2E2" stroke-width="1.5" stroke-linecap="round" stroke-linejoin="round"/>
<path d="M4 21.3333V20C11.7867 22.6 20.2133 22.6 28 20V21.3333" stroke="#E0E2E2" stroke-width="1.5" stroke-linecap="round" stroke-linejoin="round"/>
<path d="M4 12C11.7867 9.39997 20.2133 9.39997 28 12" stroke="#E0E2E2" stroke-width="1.5" stroke-linecap="round" stroke-linejoin="round"/>
</svg>
