<svg width="8" height="16" viewBox="0 0 8 16" fill="none" xmlns="http://www.w3.org/2000/svg">
<path d="M0.695551 16C0.518755 16 0.34196 15.9354 0.202384 15.797C-0.0674615 15.5293 -0.0674615 15.0864 0.202384 14.8187L6.26926 8.80173C6.71591 8.35876 6.71591 7.63893 6.26926 7.19596L0.202384 1.17895C-0.0674615 0.91132 -0.0674615 0.468349 0.202384 0.200721C0.47223 -0.066907 0.918871 -0.066907 1.18872 0.200721L7.2556 6.21774C7.73015 6.68839 8 7.32516 8 7.99885C8 8.67253 7.73946 9.3093 7.2556 9.77996L1.18872 15.797C1.04914 15.9262 0.872346 16 0.695551 16Z" fill="#989898"/>
</svg>
