<svg width="30" height="30" viewBox="0 0 30 30" fill="none" xmlns="http://www.w3.org/2000/svg">
<path fill-rule="evenodd" clip-rule="evenodd" d="M7.32929 7.95244C8.42929 6.79369 8.81804 6.46869 9.28679 6.31744C9.61119 6.23244 9.95141 6.22772 10.278 6.30369C10.708 6.42869 10.8218 6.52369 12.2318 7.92869C13.4705 9.16244 13.5943 9.29619 13.713 9.53744C13.9401 9.96091 13.9756 10.4612 13.8105 10.9124C13.6855 11.2562 13.508 11.4837 12.7568 12.2374L12.2668 12.7287C12.1381 12.8595 12.1079 13.058 12.1918 13.2212C13.2805 15.0785 14.825 16.6274 16.6793 17.7212C16.8927 17.8355 17.1556 17.7986 17.3293 17.6299L17.8005 17.1662C18.0918 16.8676 18.4002 16.5863 18.7243 16.3237C19.2332 16.0112 19.8674 15.9833 20.4018 16.2499C20.663 16.3749 20.7493 16.4524 22.0268 17.7274C23.3443 19.0412 23.3818 19.0824 23.5268 19.3837C23.7996 19.8824 23.7968 20.4863 23.5193 20.9824C23.378 21.2624 23.2918 21.3637 22.5505 22.1212C22.103 22.5787 21.6818 22.9962 21.6143 23.0574C21.0028 23.5637 20.2182 23.8121 19.4268 23.7499C17.9787 23.618 16.5771 23.1704 15.3205 22.4387C12.537 20.9639 10.1673 18.8151 8.42804 16.1887C8.04922 15.639 7.71243 15.0616 7.42054 14.4612C6.63752 13.1192 6.23316 11.5899 6.25054 10.0362C6.31032 9.22339 6.70011 8.47046 7.32929 7.95244Z" stroke="white" stroke-width="1.5" stroke-linecap="round" stroke-linejoin="round"/>
</svg>
