<svg width="26" height="26" viewBox="0 0 26 26" fill="none" xmlns="http://www.w3.org/2000/svg">
<path d="M20.917 9.77957C20.9317 10.1935 21.2792 10.5171 21.6932 10.5024C22.1071 10.4877 22.4308 10.1401 22.416 9.72619L20.917 9.77957ZM17.0233 5.41955V6.16955C17.0317 6.16955 17.04 6.16941 17.0484 6.16913L17.0233 5.41955ZM10.0597 5.41955L10.0346 6.16913C10.043 6.16941 10.0513 6.16955 10.0597 6.16955V5.41955ZM4.66698 9.72619C4.65224 10.1401 4.97586 10.4877 5.38981 10.5024C5.80377 10.5171 6.15129 10.1935 6.16603 9.77957L4.66698 9.72619ZM22.4165 9.75288C22.4165 9.33867 22.0807 9.00288 21.6665 9.00288C21.2523 9.00288 20.9165 9.33867 20.9165 9.75288H22.4165ZM21.6665 16.2529L22.416 16.2796C22.4163 16.2707 22.4165 16.2618 22.4165 16.2529H21.6665ZM17.0233 20.5862L17.0484 19.8366C17.04 19.8364 17.0317 19.8362 17.0233 19.8362V20.5862ZM10.0597 20.5862V19.8362C10.0513 19.8362 10.043 19.8364 10.0346 19.8366L10.0597 20.5862ZM5.4165 16.2529H4.6665C4.6665 16.2618 4.66666 16.2707 4.66698 16.2796L5.4165 16.2529ZM6.1665 9.75288C6.1665 9.33867 5.83072 9.00288 5.4165 9.00288C5.00229 9.00288 4.6665 9.33867 4.6665 9.75288H6.1665ZM22.0448 10.4005C22.4025 10.1916 22.523 9.73224 22.3141 9.37458C22.1052 9.01692 21.6459 8.89635 21.2882 9.10528L22.0448 10.4005ZM15.9638 13.0841L15.5855 12.4365L15.5793 12.4402L15.9638 13.0841ZM11.1192 13.0841L11.5037 12.4402L11.4975 12.4365L11.1192 13.0841ZM5.7948 9.10528C5.43714 8.89635 4.97783 9.01692 4.7689 9.37458C4.55997 9.73224 4.68054 10.1916 5.0382 10.4005L5.7948 9.10528ZM22.416 9.72619C22.3131 6.8353 19.8894 4.57334 16.9983 4.66997L17.0484 6.16913C19.1128 6.10013 20.8435 7.71531 20.917 9.77957L22.416 9.72619ZM17.0233 4.66955H10.0597V6.16955H17.0233V4.66955ZM10.0847 4.66997C7.19362 4.57334 4.76992 6.8353 4.66698 9.72619L6.16603 9.77957C6.23954 7.71531 7.9702 6.10013 10.0346 6.16913L10.0847 4.66997ZM20.9165 9.75288V16.2529H22.4165V9.75288H20.9165ZM20.917 16.2262C20.8435 18.2905 19.1128 19.9056 17.0484 19.8366L16.9983 21.3358C19.8894 21.4324 22.3131 19.1705 22.416 16.2796L20.917 16.2262ZM17.0233 19.8362H10.0597V21.3362H17.0233V19.8362ZM10.0346 19.8366C7.9702 19.9056 6.23954 18.2905 6.16603 16.2262L4.66698 16.2796C4.76992 19.1705 7.19362 21.4324 10.0847 21.3358L10.0346 19.8366ZM6.1665 16.2529V9.75288H4.6665V16.2529H6.1665ZM21.2882 9.10528L15.5855 12.4365L16.3421 13.7317L22.0448 10.4005L21.2882 9.10528ZM15.5793 12.4402C14.3242 13.1898 12.7588 13.1898 11.5037 12.4402L10.7346 13.728C12.4635 14.7605 14.6195 14.7605 16.3484 13.728L15.5793 12.4402ZM11.4975 12.4365L5.7948 9.10528L5.0382 10.4005L10.7409 13.7317L11.4975 12.4365Z" fill="white"/>
</svg>
