<svg width="30" height="30" viewBox="0 0 30 30" fill="none" xmlns="http://www.w3.org/2000/svg">
<path fill-rule="evenodd" clip-rule="evenodd" d="M11.3565 22.4775L9.14775 23.6025C9.0619 23.6452 8.95999 23.6401 8.87882 23.5891C8.79764 23.538 8.74892 23.4484 8.75025 23.3525V7.44375C8.737 6.798 9.24951 6.26366 9.89525 6.25H21.354C21.9997 6.26366 22.5123 6.798 22.499 7.44375V23.3525C22.5003 23.4484 22.4516 23.538 22.3704 23.5891C22.2893 23.6401 22.1874 23.6452 22.1015 23.6025L19.8928 22.4775C19.8048 22.4326 19.6993 22.4393 19.6178 22.495L17.8403 23.7025C17.7482 23.7651 17.6273 23.7651 17.5353 23.7025L15.7778 22.5087C15.6857 22.4462 15.5648 22.4462 15.4728 22.5087L13.7153 23.7025C13.6232 23.7651 13.5023 23.7651 13.4103 23.7025L11.6315 22.5C11.5509 22.4427 11.4454 22.4341 11.3565 22.4775Z" stroke="white" stroke-width="1.5" stroke-linecap="round" stroke-linejoin="round"/>
<path d="M11.874 14.25C11.4598 14.25 11.124 14.5858 11.124 15C11.124 15.4142 11.4598 15.75 11.874 15.75V14.25ZM19.374 15.75C19.7882 15.75 20.124 15.4142 20.124 15C20.124 14.5858 19.7882 14.25 19.374 14.25V15.75ZM13.124 16.75C12.7098 16.75 12.374 17.0858 12.374 17.5C12.374 17.9142 12.7098 18.25 13.124 18.25V16.75ZM18.124 18.25C18.5382 18.25 18.874 17.9142 18.874 17.5C18.874 17.0858 18.5382 16.75 18.124 16.75V18.25ZM13.124 11.75C12.7098 11.75 12.374 12.0858 12.374 12.5C12.374 12.9142 12.7098 13.25 13.124 13.25V11.75ZM18.124 13.25C18.5382 13.25 18.874 12.9142 18.874 12.5C18.874 12.0858 18.5382 11.75 18.124 11.75V13.25ZM11.874 15.75H19.374V14.25H11.874V15.75ZM13.124 18.25H18.124V16.75H13.124V18.25ZM13.124 13.25H18.124V11.75H13.124V13.25Z" fill="white"/>
</svg>
