<svg width="66" height="66" viewBox="0 0 66 66" fill="none" xmlns="http://www.w3.org/2000/svg">
<path d="M13.75 23.75C13.1977 23.75 12.75 24.1977 12.75 24.75C12.75 25.3023 13.1977 25.75 13.75 25.75V23.75ZM22 25.75C22.5523 25.75 23 25.3023 23 24.75C23 24.1977 22.5523 23.75 22 23.75V25.75ZM27.5 23.75C26.9477 23.75 26.5 24.1977 26.5 24.75C26.5 25.3023 26.9477 25.75 27.5 25.75V23.75ZM44 25.75C44.5523 25.75 45 25.3023 45 24.75C45 24.1977 44.5523 23.75 44 23.75V25.75ZM33 32C32.4477 32 32 32.4477 32 33C32 33.5523 32.4477 34 33 34V32ZM44 34C44.5523 34 45 33.5523 45 33C45 32.4477 44.5523 32 44 32V34ZM38.5 40.25C37.9477 40.25 37.5 40.6977 37.5 41.25C37.5 41.8023 37.9477 42.25 38.5 42.25V40.25ZM44 42.25C44.5523 42.25 45 41.8023 45 41.25C45 40.6977 44.5523 40.25 44 40.25V42.25ZM13.75 32C13.1977 32 12.75 32.4477 12.75 33C12.75 33.5523 13.1977 34 13.75 34V32ZM22 34C22.5523 34 23 33.5523 23 33C23 32.4477 22.5523 32 22 32V34ZM13.75 40.25C13.1977 40.25 12.75 40.6977 12.75 41.25C12.75 41.8023 13.1977 42.25 13.75 42.25V40.25ZM22 42.25C22.5523 42.25 23 41.8023 23 41.25C23 40.6977 22.5523 40.25 22 40.25V42.25ZM13.75 25.75H22V23.75H13.75V25.75ZM27.5 25.75H44V23.75H27.5V25.75ZM33 34H44V32H33V34ZM38.5 42.25H44V40.25H38.5V42.25ZM13.75 34H22V32H13.75V34ZM13.75 42.25H22V40.25H13.75V42.25ZM20.25 46.75V19.25H18.25V46.75H20.25ZM20.25 19.25C20.25 16.7647 22.2647 14.75 24.75 14.75V12.75C21.1601 12.75 18.25 15.6601 18.25 19.25H20.25ZM24.75 14.75H46.75V12.75H24.75V14.75ZM46.75 14.75C49.2353 14.75 51.25 16.7647 51.25 19.25H53.25C53.25 15.6601 50.3399 12.75 46.75 12.75V14.75ZM51.25 19.25V46.75H53.25V19.25H51.25ZM51.25 46.75C51.25 49.2353 49.2353 51.25 46.75 51.25V53.25C50.3399 53.25 53.25 50.3399 53.25 46.75H51.25ZM46.75 51.25H24.75V53.25H46.75V51.25ZM24.75 51.25C22.2647 51.25 20.25 49.2353 20.25 46.75H18.25C18.25 50.3399 21.1601 53.25 24.75 53.25V51.25Z" fill="#014129"/>
</svg>
