<svg width="41" height="63" viewBox="0 0 41 63" fill="none" xmlns="http://www.w3.org/2000/svg">
<path d="M26.6721 1.73983C22.6358 0.310297 18.4733 0.310297 14.3529 1.61369C11.5779 2.58073 9.01316 4.05231 6.74273 6.15456C2.95867 9.56021 0.814372 13.8068 0.435966 18.7681C-0.152665 25.1169 1.57118 30.8771 5.43933 35.9645C8.46658 39.8327 11.2836 43.7429 14.0586 47.8212C17.1699 52.4041 19.3563 57.3655 20.5756 62.7472C21.5006 59.3836 22.6778 56.2302 24.1914 53.1609C25.9994 49.461 28.1857 46.0553 30.6243 42.7758C32.8948 39.7065 35.1232 36.5111 37.1413 33.2736C39.5799 29.4055 40.7572 25.3271 40.7572 20.9124C40.7572 16.4977 39.3277 12.3772 36.6788 8.8034C34.072 5.35571 30.7084 3.00118 26.6301 1.69778L26.6721 1.73983ZM10.9893 10.8636C14.5631 7.66819 18.6415 6.53297 23.3085 7.41591C27.7232 8.34091 31.0448 10.8636 33.147 14.984C35.2913 19.1465 35.3754 23.351 33.4414 27.4714C31.6334 31.5498 28.48 34.1566 24.0653 35.2497C19.4824 36.2588 15.362 35.2918 11.7461 32.4748C8.55067 30.0362 6.74273 26.7987 6.36432 22.7624C5.90183 18.0533 7.49954 14.059 11.0313 10.9057L10.9893 10.8636Z" fill="url(#paint0_linear_293_3146)"/>
<path d="M23.3084 7.41641C18.6414 6.57551 14.563 7.71072 10.9892 10.8641C7.45741 14.0595 5.85969 18.0118 6.32219 22.7208C6.70059 26.7571 8.55058 29.9946 11.704 32.4332C15.3198 35.2923 19.4403 36.2593 24.0232 35.2082C28.4379 34.115 31.5913 31.5082 33.3992 27.4299C35.3333 23.2674 35.2912 19.0629 33.1049 14.9425C31.0027 10.8641 27.7231 8.29935 23.2664 7.37436L23.3084 7.41641Z" fill="white"/>
<defs>
<linearGradient id="paint0_linear_293_3146" x1="20.5756" y1="0.0580265" x2="20.5756" y2="64.0506" gradientUnits="userSpaceOnUse">
<stop stop-color="#A0CB38"/>
<stop offset="1" stop-color="#77A03B"/>
</linearGradient>
</defs>
</svg>
