<svg width="32" height="32" viewBox="0 0 32 32" fill="none" xmlns="http://www.w3.org/2000/svg">
<path fill-rule="evenodd" clip-rule="evenodd" d="M4.86839 23.9587C3.01514 22.0663 1.75817 19.6715 1.25338 17.0713C0.744409 14.4638 1.00576 11.7646 2.00552 9.3032C2.99674 6.85563 4.68901 4.7555 6.86983 3.26656C11.2945 0.24448 17.1195 0.24448 21.5442 3.26656C23.725 4.7555 25.4173 6.85563 26.4085 9.3032C27.4082 11.7646 27.6696 14.4638 27.1606 17.0713C26.6558 19.6715 25.3989 22.0663 23.5456 23.9587C21.0913 26.4774 17.7237 27.8979 14.207 27.8979C10.6903 27.8979 7.32272 26.4774 4.86839 23.9587V23.9587Z" stroke="#014129" stroke-width="2" stroke-linecap="round" stroke-linejoin="round"/>
<path d="M14.2853 6.32441C13.736 6.3826 13.338 6.875 13.3962 7.42421C13.4544 7.97342 13.9468 8.37147 14.496 8.31327L14.2853 6.32441ZM18.7476 10.8181C18.9629 11.3267 19.5498 11.5644 20.0583 11.3491C20.5669 11.1338 20.8047 10.547 20.5894 10.0384L18.7476 10.8181ZM24.4467 23.045C24.0559 22.6548 23.4227 22.6553 23.0325 23.0462C22.6423 23.4371 22.6429 24.0702 23.0338 24.4604L24.4467 23.045ZM30.2938 31.7078C30.6847 32.098 31.3178 32.0974 31.708 31.7066C32.0982 31.3157 32.0976 30.6826 31.7068 30.2924L30.2938 31.7078ZM14.496 8.31327C16.3101 8.12104 18.0364 9.13809 18.7476 10.8181L20.5894 10.0384C19.5349 7.54743 16.9751 6.03937 14.2853 6.32441L14.496 8.31327ZM23.0338 24.4604L30.2938 31.7078L31.7068 30.2924L24.4467 23.045L23.0338 24.4604Z" fill="#014129"/>
</svg>
