<svg width="15" height="11" viewBox="0 0 15 11" fill="none" xmlns="http://www.w3.org/2000/svg">
<path d="M8.3476 8.8126C8.04778 9.09841 8.03642 9.57314 8.32222 9.87296C8.60803 10.1728 9.08276 10.1841 9.38258 9.89833L8.3476 8.8126ZM13.8378 5.65136C14.1376 5.36555 14.149 4.89082 13.8632 4.591C13.5774 4.29118 13.1026 4.27982 12.8028 4.56562L13.8378 5.65136ZM12.8028 5.65136C13.1026 5.93716 13.5774 5.9258 13.8632 5.62598C14.149 5.32616 14.1376 4.85143 13.8378 4.56562L12.8028 5.65136ZM9.38258 0.318645C9.08276 0.0328436 8.60803 0.0442038 8.32222 0.34402C8.03642 0.643836 8.04778 1.11857 8.3476 1.40438L9.38258 0.318645ZM13.3203 5.85851C13.7345 5.85851 14.0703 5.52272 14.0703 5.10851C14.0703 4.69429 13.7345 4.35851 13.3203 4.35851V5.85851ZM1.43971 4.35851C1.0255 4.35851 0.689713 4.69429 0.689713 5.10851C0.689713 5.52272 1.0255 5.85851 1.43971 5.85851V4.35851ZM9.38258 9.89833L13.8378 5.65136L12.8028 4.56562L8.3476 8.8126L9.38258 9.89833ZM13.8378 4.56562L9.38258 0.318645L8.3476 1.40438L12.8028 5.65136L13.8378 4.56562ZM13.3203 4.35851L1.43971 4.35851V5.85851L13.3203 5.85851V4.35851Z" fill="white"/>
</svg>
