<svg width="20" height="22" viewBox="0 0 20 22" fill="none" xmlns="http://www.w3.org/2000/svg">
<path fill-rule="evenodd" clip-rule="evenodd" d="M2.47445 4.80907C0.153912 8.20046 0.613643 12.7703 3.5632 15.6315L6.83319 18.1415L9.74943 20.999L12.6657 18.1415L15.9357 15.6315C18.8852 12.7703 19.345 8.20046 17.0244 4.80907C16.0551 3.39291 14.6893 2.29449 13.0982 1.65158C10.9505 0.781506 8.54841 0.781506 6.40069 1.65158C4.80958 2.29449 3.44373 3.39291 2.47445 4.80907Z" stroke="#A6CE39" stroke-width="1.5" stroke-linecap="round" stroke-linejoin="round"/>
<path fill-rule="evenodd" clip-rule="evenodd" d="M9.74827 12.4278C11.3184 12.3955 12.5682 11.1022 12.5467 9.53191C12.5253 7.96162 11.2407 6.7029 9.67034 6.71344C8.09995 6.72399 6.83236 7.99984 6.83203 9.57027C6.84852 11.1645 8.15401 12.4437 9.74827 12.4278Z" stroke="#A6CE39" stroke-width="1.5" stroke-linecap="round" stroke-linejoin="round"/>
</svg>
