<svg width="22" height="17" viewBox="0 0 22 17" fill="none" xmlns="http://www.w3.org/2000/svg">
<path d="M13.1327 14.7425C12.8328 15.0282 12.8212 15.5029 13.1069 15.8029C13.3926 16.1028 13.8673 16.1144 14.1672 15.8287L13.1327 14.7425ZM21.5172 8.82874C21.8172 8.54308 21.8288 8.06835 21.5431 7.7684C21.2574 7.46845 20.7827 7.45687 20.4828 7.74254L21.5172 8.82874ZM20.4828 8.82883C20.7827 9.11449 21.2574 9.10292 21.5431 8.80297C21.8288 8.50302 21.8172 8.02829 21.5172 7.74262L20.4828 8.82883ZM14.1672 0.742618C13.8673 0.456953 13.3926 0.468533 13.1069 0.76848C12.8212 1.06843 12.8328 1.54316 13.1327 1.82882L14.1672 0.742618ZM21 9.03562C21.4142 9.03562 21.75 8.69983 21.75 8.28562C21.75 7.87141 21.4142 7.53562 21 7.53562V9.03562ZM1.39997 7.53562C0.98576 7.53562 0.649973 7.87141 0.649973 8.28562C0.649973 8.69983 0.98576 9.03562 1.39997 9.03562V7.53562ZM14.1672 15.8287L21.5172 8.82874L20.4828 7.74254L13.1327 14.7425L14.1672 15.8287ZM21.5172 7.74262L14.1672 0.742618L13.1327 1.82882L20.4828 8.82883L21.5172 7.74262ZM21 7.53562L1.39997 7.53562V9.03562L21 9.03562V7.53562Z" fill="#014129"/>
</svg>
