<svg width="55" height="55" viewBox="0 0 55 55" fill="none" xmlns="http://www.w3.org/2000/svg">
<circle cx="27.5" cy="27.5" r="27" fill="#FBF6F0" stroke="#015533"/>
<path d="M38.1465 25.3687C40.0616 25.8978 41.5673 26.5613 42.5996 27.3335C43.6322 28.106 44.2207 29.0118 44.2207 30.02C44.2207 31.1419 43.4845 32.6297 40.4258 33.8999C38.284 34.7931 35.2866 35.4379 31.9912 35.7192L31.9805 35.7202H31.9062L29.1465 35.6802V35.6792C28.6402 35.6772 28.2402 35.2667 28.2402 34.7798V34.7729L28.248 34.6821C28.3073 34.2338 28.7035 33.8999 29.1602 33.8999H29.1641L31.8809 33.939C34.99 33.6698 37.7678 33.0651 39.7139 32.2593L40.0361 32.1196C40.766 31.7905 41.3371 31.4408 41.7354 31.0933C42.1962 30.6909 42.3906 30.3235 42.3906 30.02C42.3906 29.816 42.3036 29.5846 42.1016 29.3296C41.8994 29.0745 41.5916 28.8096 41.1797 28.5444C40.3558 28.0141 39.1495 27.5074 37.6436 27.0913V27.0903C37.1501 26.9634 36.8712 26.4646 37.0107 25.9897C37.1359 25.5641 37.5571 25.3041 37.9863 25.3511L38.0068 25.3306L38.1465 25.3687Z" fill="#015533" stroke="#015533" stroke-width="0.5"/>
<path d="M21.8501 20.7002C22.3479 20.7004 22.7698 21.0922 22.77 21.5898V29.4697C22.77 29.9675 22.348 30.3602 21.8501 30.3604H18.4497C17.9517 30.3603 17.5298 29.9676 17.5298 29.4697C17.5301 28.9721 17.9519 28.5801 18.4497 28.5801H20.9399V26.4199H18.4497C17.9517 26.4199 17.5298 26.0281 17.5298 25.5303C17.5298 25.0324 17.9517 24.6407 18.4497 24.6406H20.9399V22.4805H18.4497C17.9517 22.4804 17.5298 22.0877 17.5298 21.5898C17.53 21.0921 17.9518 20.7002 18.4497 20.7002H21.8501Z" fill="#015533" stroke="#015533" stroke-width="0.5"/>
<path d="M27.9805 20.7002C28.4783 20.7004 28.9002 21.0922 28.9004 21.5898C28.9004 22.0876 28.4784 22.4803 27.9805 22.4805H25.4902V24.6406H28.6602C29.1582 24.6406 29.5801 25.0324 29.5801 25.5303V29.4697C29.5801 29.9676 29.1582 30.3604 28.6602 30.3604H24.5801C24.0821 30.3603 23.6602 29.9676 23.6602 29.4697V21.5898C23.6604 21.0921 24.0822 20.7002 24.5801 20.7002H27.9805ZM25.4902 28.5801H27.7402V26.4199H25.4902V28.5801Z" fill="#015533" stroke="#015533" stroke-width="0.5"/>
<path d="M35.4702 20.7002C35.9681 20.7002 36.3899 21.0921 36.3901 21.5898V29.4697C36.3901 29.9676 35.9683 30.3604 35.4702 30.3604H31.3901C30.8921 30.3603 30.4702 29.9676 30.4702 29.4697V21.5898C30.4704 21.0921 30.8922 20.7002 31.3901 20.7002H35.4702ZM32.3003 28.5801H34.5503V22.4805H32.3003V28.5801Z" fill="#015533" stroke="#015533" stroke-width="0.5"/>
<path d="M17.1631 25.5781C17.6082 25.4842 18.0812 25.7208 18.2275 26.1729C18.3722 26.6201 18.1446 27.0865 17.7217 27.2666L17.6348 27.2988C16.3234 27.7096 15.2922 28.185 14.5947 28.6748C13.8839 29.1741 13.5801 29.6441 13.5801 30.0303C13.5803 30.3622 13.8037 30.7609 14.335 31.1924C14.8591 31.6181 15.6424 32.0411 16.6582 32.4258C18.583 33.1533 21.1747 33.6867 24.0547 33.9404L22.9717 32.7051L22.9697 32.7021C22.6377 32.3143 22.6945 31.7541 23.0811 31.4365L23.0859 31.4336C23.4668 31.1344 24.0369 31.1723 24.3672 31.5439L24.5234 31.7197L24.5117 31.7305L26.6279 34.1455L26.6318 34.1494C26.7643 34.3084 26.8495 34.5139 26.8496 34.7295V34.7803C26.8495 35.005 26.7648 35.2146 26.6143 35.3789L26.6123 35.3809L24.1924 37.9688L24.1934 37.9697C24.0123 38.1647 23.7634 38.2598 23.5195 38.2598C23.2973 38.2596 23.0806 38.1762 22.9082 38.0303L22.9072 38.0293C22.5202 37.6973 22.4888 37.122 22.8398 36.7568L23.8154 35.7148C20.8117 35.4436 18.0721 34.8789 15.9912 34.083C14.6396 33.5717 13.5869 32.9729 12.8682 32.2988C12.1469 31.6222 11.7501 30.8576 11.75 30.0303C11.75 29.0233 12.3239 28.1165 13.3711 27.3389H13.3721C14.2715 26.6772 15.519 26.0866 17.0752 25.6016L17.1631 25.5781Z" fill="#015533" stroke="#015533" stroke-width="0.5"/>
<path d="M40.1196 16.75C40.6176 16.75 41.0394 17.1419 41.0396 17.6396V20.2695C41.0396 20.7674 40.6177 21.1602 40.1196 21.1602H37.3999C36.9019 21.1601 36.48 20.7674 36.48 20.2695V17.6396C36.4802 17.142 36.902 16.75 37.3999 16.75H40.1196ZM38.3198 19.3799H39.2104V18.54H38.3198V19.3799Z" fill="#015533" stroke="#015533" stroke-width="0.5"/>
</svg>
