<svg width="55" height="55" viewBox="0 0 55 55" fill="none" xmlns="http://www.w3.org/2000/svg">
<circle cx="27.5" cy="27.5" r="27" fill="#FBF6F0" stroke="#015533"/>
<path d="M32 19H36L34 21.67L32 19ZM18.67 15H37.34C38.05 15 38.73 15.28 39.23 15.78C39.73 16.28 40.01 16.96 40.01 17.67V39C40.01 40.48 38.82 41.67 37.34 41.67H18.67C17.96 41.67 17.28 41.39 16.78 40.89C16.28 40.39 16 39.71 16 39V17.67C16 16.2 17.2 15 18.67 15ZM18.67 17.67V23H37.34V17.67H18.67ZM18.67 39H37.34V25.67H18.67V39ZM21.33 28.33H34.66V31H21.33V28.33ZM21.33 33.67H34.66V36.34H21.33V33.67Z" fill="#015533"/>
</svg>
