<svg width="74" height="76" viewBox="0 0 74 76" fill="none" xmlns="http://www.w3.org/2000/svg">
<path d="M40.2658 0.915059C40.7289 1.25595 41.1728 1.61549 41.6144 1.98327C41.8032 2.13663 41.9923 2.28969 42.1816 2.44249C42.5877 2.77077 42.9926 3.10048 43.3967 3.43117C43.9368 3.87189 44.4831 4.30396 45.0327 4.73277C45.783 5.31859 46.5245 5.91436 47.262 6.51622C48.3415 7.39675 49.4336 8.25995 50.5317 9.11709C51.7326 10.0545 52.924 11.002 54.1043 11.9652C54.7412 12.4841 55.3831 12.9958 56.0307 13.5014C56.8838 14.1675 57.7245 14.8479 58.563 15.5322C59.2837 16.1193 60.0118 16.6957 60.7446 17.2675C61.4005 17.7808 62.0463 18.3056 62.6908 18.8332C63.5023 19.4971 64.3255 20.1419 65.1616 20.7746C66.263 21.6085 67.3313 22.4776 68.3929 23.3615C68.8503 23.7417 69.3163 24.1084 69.7874 24.4715C71.2134 25.6109 72.3498 27.0096 72.5608 28.8806C72.6711 30.8722 72.3316 32.5049 71.0414 34.0854C70.1085 35.1024 68.735 35.9549 67.3237 36.0344C67.221 36.0336 67.1182 36.0328 67.0124 36.032C66.9003 36.0316 66.7882 36.0311 66.6728 36.0306C66.5572 36.0293 66.4417 36.0281 66.3227 36.0268C66.2049 36.0261 66.087 36.0255 65.9656 36.0248C65.6759 36.023 65.3862 36.0204 65.0966 36.0175C65.0995 36.2487 65.0995 36.2487 65.1026 36.4845C65.1207 37.9386 65.134 39.3926 65.1428 40.8468C65.1474 41.5944 65.1537 42.3419 65.1638 43.0894C65.1735 43.8112 65.1789 44.5329 65.1812 45.2547C65.1828 45.5297 65.186 45.8047 65.1908 46.0797C65.1973 46.4658 65.1982 46.8515 65.1978 47.2376C65.201 47.3506 65.2042 47.4636 65.2075 47.58C65.1985 48.366 64.9692 48.7684 64.4399 49.3444C63.9238 49.7783 63.3604 49.7342 62.7186 49.6907C62.1034 49.4541 61.7127 49.2263 61.381 48.6503C61.2564 48.2408 61.216 47.8826 61.2249 47.4557C61.2269 47.3376 61.2289 47.2195 61.2309 47.0979C61.2338 46.9697 61.2367 46.8414 61.2396 46.7093C61.2445 46.4271 61.2492 46.1449 61.2539 45.8627C61.2578 45.6385 61.2578 45.6385 61.2619 45.4097C61.2766 44.4487 61.2802 43.4875 61.2853 42.5263C61.2904 41.683 61.2997 40.8402 61.3185 39.9971C61.3365 39.18 61.3427 38.3636 61.3411 37.5464C61.3425 37.2364 61.3482 36.9264 61.3582 36.6166C61.4478 34.964 61.4478 34.964 60.8547 33.4732C60.3025 32.9047 59.6793 32.4673 59.0084 32.0502C58.5343 31.7462 58.1028 31.3925 57.6655 31.0387C57.4954 30.9053 57.3251 30.7721 57.1546 30.6393C56.5762 30.1848 56.0061 29.7203 55.4362 29.2553C54.3567 28.3747 53.2646 27.5115 52.1665 26.6544C50.9656 25.717 49.7742 24.7695 48.5939 23.8063C47.957 23.2874 47.3151 22.7757 46.6675 22.2701C45.8144 21.6039 44.9737 20.9236 44.1352 20.2393C43.4983 19.7204 42.8564 19.2087 42.2089 18.7032C41.4465 18.1077 40.6927 17.5025 39.9424 16.8918C39.7919 16.77 39.7919 16.77 39.6383 16.6456C39.1993 16.2897 38.7629 15.9322 38.336 15.5618C38.2071 15.452 38.0782 15.3422 37.9453 15.2291C37.8375 15.1345 37.7296 15.0399 37.6185 14.9423C37.3154 14.7394 37.3154 14.7394 36.9665 14.7508C36.3423 15.0012 35.8873 15.4244 35.3816 15.8608C35.1546 16.0524 34.9274 16.2437 34.7 16.4349C34.5874 16.5301 34.4748 16.6252 34.3588 16.7233C33.9087 17.0993 33.4485 17.4612 32.9851 17.8207C32.2375 18.403 31.4992 18.9956 30.7651 19.5949C29.9442 20.2648 29.1166 20.9248 28.2815 21.5769C27.6166 22.0973 26.9606 22.628 26.3064 23.1618C25.4817 23.8347 24.6509 24.4987 23.8124 25.1542C23.1788 25.6499 22.5496 26.1509 21.9221 26.6544C21.2103 27.2255 20.4953 27.7922 19.7764 28.3542C19.0232 28.9434 18.2787 29.5425 17.5378 30.147C16.6228 30.8934 15.7005 31.6293 14.7703 32.3566C14.6969 32.4178 14.6234 32.479 14.5477 32.5421C14.2681 32.7479 14.2681 32.7479 13.9317 32.9016C13.4719 33.1503 13.2327 33.3568 12.9305 33.7882C12.6681 34.8137 12.7654 35.9254 12.7831 36.9743C12.7834 37.2902 12.783 37.6061 12.782 37.922C12.7809 38.7524 12.7873 39.5826 12.7958 40.4129C12.8081 41.7418 12.809 43.0707 12.8096 44.3996C12.8109 44.8629 12.8156 45.3261 12.8208 45.7893C12.8222 46.0744 12.8236 46.3595 12.8249 46.6445C12.8273 46.7726 12.8296 46.9006 12.832 47.0325C12.8324 47.8341 12.7139 48.3852 12.336 49.0962C11.8583 49.5441 11.4496 49.6793 10.7941 49.7278C10.0524 49.6767 9.71731 49.4479 9.19773 48.9333C8.83637 48.3762 8.83824 47.9133 8.85027 47.2713C8.85018 47.1495 8.85009 47.0276 8.85 46.902C8.85042 46.5007 8.85503 46.0995 8.8597 45.6982C8.86081 45.4194 8.86165 45.1405 8.86225 44.8617C8.86451 44.1289 8.87035 43.3962 8.87693 42.6635C8.88302 41.9153 8.88573 41.1672 8.88873 40.419C8.8951 38.9518 8.90524 37.4847 8.91775 36.0175C8.65969 36.0217 8.65969 36.0217 8.39642 36.026C8.16768 36.0283 7.93895 36.0305 7.71021 36.0326C7.59717 36.0346 7.48414 36.0367 7.36768 36.0387C5.71542 36.0503 4.33994 35.3763 3.13082 34.2672C1.75773 32.8201 1.4124 31.1665 1.44548 29.2419C1.50678 27.8222 2.02935 26.6609 2.97291 25.614C3.07952 25.4922 3.07952 25.4922 3.18829 25.3679C3.97403 24.5287 4.91049 23.8512 5.81841 23.1515C6.25254 22.8165 6.68433 22.4785 7.11572 22.14C7.2007 22.0734 7.28568 22.0068 7.37323 21.9381C8.14495 21.3312 8.90596 20.7115 9.66659 20.0907C10.3869 19.5039 11.1149 18.9278 11.8472 18.356C12.5121 17.8355 13.1681 17.3049 13.8223 16.7711C14.6431 16.1012 15.4707 15.4412 16.3059 14.7891C16.9707 14.2686 17.6267 13.738 18.2809 13.2042C19.4436 12.2557 20.6218 11.3283 21.8045 10.405C22.9205 9.53339 24.0261 8.65049 25.1232 7.75519C25.8435 7.16832 26.5715 6.59223 27.3038 6.02043C27.9687 5.49998 28.6247 4.96931 29.2789 4.43552C30.2817 3.61812 31.2893 2.808 32.3137 2.01767C32.5358 1.84453 32.7548 1.66728 32.9735 1.4898C35.1029 -0.178062 37.9045 -0.547727 40.2658 0.915059ZM34.4713 5.33654C34.2455 5.52566 34.0195 5.71453 33.7932 5.90316C33.6825 5.9955 33.5718 6.08784 33.4577 6.18298C33.0351 6.53069 32.6034 6.86317 32.1677 7.1943C31.3397 7.82408 30.5319 8.47574 29.7264 9.13396C29.0872 9.65561 28.443 10.17 27.7926 10.6776C27.0423 11.2635 26.3008 11.8592 25.5633 12.4611C24.7424 13.131 23.9148 13.791 23.0797 14.4431C22.4149 14.9635 21.7588 15.4942 21.1047 16.028C19.942 16.9764 18.7638 17.9039 17.581 18.8271C16.4651 19.6988 15.3595 20.5817 14.2624 21.477C13.5421 22.0638 12.8141 22.6399 12.0818 23.2117C11.3151 23.8119 10.5604 24.4261 9.80629 25.042C9.14464 25.5813 8.4763 26.111 7.8031 26.6358C6.17337 27.7361 6.17337 27.7361 5.30092 29.3789C5.28653 30.2929 5.37716 30.8305 5.94533 31.5589C6.51896 32.0145 7.14236 32.287 7.87741 32.302C8.82826 32.0157 9.46204 31.5984 10.2089 30.9551C10.4183 30.7798 10.6279 30.6046 10.8376 30.4297C10.9404 30.3435 11.0432 30.2572 11.149 30.1684C11.5611 29.8274 11.9842 29.5042 12.4104 29.1809C13.2409 28.5475 14.0521 27.8929 14.8609 27.232C15.5001 26.7104 16.1443 26.196 16.7947 25.6884C17.545 25.1025 18.2865 24.5068 19.024 23.9049C19.8448 23.2351 20.6722 22.5751 21.5073 21.9232C22.1758 21.4001 22.8346 20.8658 23.4919 20.3287C24.3521 19.6261 25.2242 18.9442 26.1073 18.2706C26.7787 17.7542 27.4323 17.2159 28.0881 16.6799C28.7274 16.1583 29.3716 15.6439 30.022 15.1362C30.7723 14.5504 31.5137 13.9546 32.2513 13.3528C33.0247 12.7225 33.8002 12.0953 34.5828 11.4765C34.6666 11.4097 34.7504 11.3429 34.8368 11.2741C36.1474 10.2424 36.1474 10.2424 36.9979 10.241C37.1188 10.2382 37.2396 10.2353 37.3642 10.2323C38.2897 10.4091 39.0443 11.2133 39.7566 11.8016C40.5184 12.4258 41.2836 13.0444 42.0603 13.65C42.8142 14.2384 43.5584 14.8377 44.2989 15.4428C45.0062 16.0205 45.7184 16.5888 46.4446 17.1426C47.2752 17.7761 48.0863 18.4306 48.8951 19.0915C49.5343 19.6132 50.1785 20.1276 50.8289 20.6352C51.682 21.3013 52.5228 21.9817 53.3613 22.666C53.9982 23.1849 54.6401 23.6966 55.2876 24.2021C56.0379 24.788 56.7793 25.3837 57.5169 25.9856C58.5129 26.798 59.5189 27.5964 60.5319 28.3876C60.8745 28.6552 61.2168 28.9232 61.5588 29.1917C61.7306 29.3264 61.9027 29.4608 62.075 29.5949C62.5399 29.9581 62.9967 30.3284 63.4466 30.7101C63.5923 30.8318 63.5923 30.8318 63.741 30.956C63.9264 31.1113 64.1103 31.2683 64.2922 31.4276C64.9439 31.9692 65.5809 32.2449 66.4342 32.302C67.2743 32.1397 67.8159 31.7767 68.3662 31.113C68.635 30.6635 68.7111 30.3164 68.7192 29.794C68.7234 29.6718 68.7276 29.5496 68.732 29.4236C68.5714 28.5064 67.8881 27.9311 67.1958 27.3696C67.1114 27.2997 67.027 27.2297 66.94 27.1577C66.2575 26.5954 65.5629 26.0484 64.8653 25.5051C64.192 24.9804 63.5284 24.4448 62.8672 23.9049C62.0465 23.235 61.2191 22.5751 60.384 21.9232C59.7155 21.4001 59.0566 20.8658 58.3993 20.3287C57.692 19.751 56.9798 19.1827 56.2536 18.6288C55.423 17.9954 54.6119 17.3408 53.8031 16.6799C53.1639 16.1583 52.5197 15.6439 51.8693 15.1362C51.0162 14.4701 50.1754 13.7898 49.3369 13.1055C48.7 12.5866 48.0581 12.0749 47.4106 11.5693C46.6603 10.9835 45.9188 10.3877 45.1813 9.78588C44.1858 8.97383 43.1802 8.17592 42.1676 7.38523C41.8191 7.11263 41.4717 6.83872 41.1243 6.56469C40.9506 6.42805 40.7767 6.2918 40.6023 6.15599C40.1684 5.81783 39.7396 5.47555 39.3178 5.12231C38.2278 4.204 38.2278 4.204 36.8731 3.85207C35.9031 4.04894 35.2021 4.71514 34.4713 5.33654Z" fill="white"/>
<path d="M41.5353 42.7114C42.9745 43.8264 44.1047 45.6041 44.4067 47.4232C44.6012 49.5048 44.2549 51.3437 43.1005 53.1091C43.0024 53.2072 42.9043 53.3053 42.8033 53.4064C42.931 53.4839 43.0588 53.5615 43.1905 53.6415C46.4016 55.6253 48.8879 58.2113 49.9917 61.9103C50.168 62.6851 50.3169 63.4127 49.9005 64.128C49.5366 64.5745 49.302 64.8142 48.7481 64.9988C47.9718 65.0574 47.4634 64.9989 46.816 64.5529C46.348 63.9147 46.1301 63.2572 45.8779 62.5094C45.4082 61.1524 44.7407 60.0363 43.695 59.054C43.695 58.9559 43.695 58.8578 43.695 58.7567C43.6107 58.7178 43.5264 58.6789 43.4396 58.6389C43.073 58.4449 42.7631 58.2162 42.4317 57.9672C40.2696 56.4364 37.7716 56.0117 35.1847 56.4107C32.713 56.9298 30.5645 58.3176 29.1301 60.3915C28.5283 61.4373 28.0581 62.4853 27.7438 63.6525C27.5631 64.2059 27.247 64.5534 26.7893 64.8966C26.1095 65.1044 25.5013 65.1004 24.8573 64.8223C23.9847 64.1194 23.9847 64.1194 23.8709 63.494C23.7574 61.0526 25.3664 58.4382 26.9306 56.6622C28.1437 55.3529 29.5563 54.245 31.2108 53.555C31.1302 53.4272 31.0495 53.2994 30.9664 53.1677C29.7484 51.1803 29.2401 49.1814 29.7432 46.8577C30.3075 44.847 31.5066 43.2435 33.3083 42.1866C35.9795 40.7914 39.0543 41.0218 41.5353 42.7114ZM34.1832 46.5698C33.5872 47.4638 33.3533 48.1688 33.4401 49.245C33.7345 50.4644 34.3553 51.2053 35.3722 51.9201C36.2765 52.3819 37.3315 52.3401 38.2889 52.0595C39.3728 51.4372 40.0726 50.8073 40.4816 49.6037C40.7824 48.4349 40.4173 47.562 39.8773 46.5419C39.3447 45.8942 38.6917 45.4965 37.8988 45.2322C36.3288 45.0903 35.2206 45.3307 34.1832 46.5698Z" fill="white"/>
<path d="M60.8342 51.5481C61.038 51.5492 61.038 51.5492 61.2459 51.5504C63.1945 51.6003 64.799 52.4164 66.231 53.7217C67.7218 55.2958 68.2963 57.1707 68.2815 59.2887C68.2307 60.7852 67.8068 62.0576 66.9068 63.2584C66.7045 63.5017 66.7045 63.5017 66.7326 63.8093C66.9925 63.9746 67.2606 64.1271 67.5314 64.2738C70.7496 66.1025 72.9438 69.0541 73.932 72.6117C74.0892 73.3919 73.9725 73.8635 73.6063 74.5565C73.1113 75.1478 72.7644 75.2321 72.0086 75.2996C71.2917 75.2356 70.9544 75.0037 70.4388 74.5194C70.0807 73.9533 69.9142 73.3806 69.7126 72.7446C68.8628 70.2207 67.096 68.5035 64.7616 67.3362C62.6155 66.3133 60.0849 66.2279 57.8304 66.9588C56.5983 67.3984 55.5465 68.0166 54.5457 68.8625C54.3859 68.9947 54.3859 68.9947 54.2229 69.1295C52.8855 70.3425 52.1336 72.0244 51.5978 73.7179C51.3355 74.5023 50.9688 74.8866 50.2356 75.2532C49.536 75.3115 49.1848 75.3235 48.5544 75.0024C47.9747 74.5036 47.7477 74.1761 47.6348 73.414C47.7612 70.7129 49.5623 68.1531 51.4246 66.3359C51.6034 66.1551 51.6034 66.1551 51.7857 65.9707C52.7461 65.0466 53.8222 64.4277 54.9915 63.8093C54.8679 63.5861 54.8679 63.5861 54.7419 63.3583C54.6331 63.1588 54.5243 62.9593 54.4156 62.7597C54.3614 62.6621 54.3072 62.5645 54.2513 62.4639C53.2123 60.5465 53.1761 58.4918 53.77 56.4189C54.1085 55.4765 54.6305 54.7478 55.2888 54.0004C55.37 53.9069 55.4512 53.8134 55.5349 53.717C56.9585 52.186 58.7736 51.5332 60.8342 51.5481ZM58.5584 56.2297C57.7131 57.0811 57.3021 57.8343 57.2208 59.0535C57.3043 60.0829 57.6823 60.8494 58.4098 61.58C59.449 62.3717 60.3763 62.6185 61.6795 62.4718C62.7776 62.136 63.4983 61.537 64.0574 60.5397C64.4788 59.6341 64.5311 58.7116 64.2246 57.7565C63.7687 56.7637 63.1664 56.0963 62.1996 55.5887C60.8396 55.2147 59.6714 55.3145 58.5584 56.2297Z" fill="white"/>
<path d="M17.278 52.7006C19.0562 54.0429 20.1785 55.591 20.5801 57.8031C20.8447 59.8565 20.3045 61.4583 19.3215 63.2156C19.2211 63.4131 19.1214 63.6109 19.0243 63.81C19.125 63.8606 19.2258 63.9112 19.3296 63.9633C22.5623 65.6468 24.7693 68.3 26.0094 71.687C26.3149 72.6693 26.5447 73.4491 26.0559 74.4086C25.5246 75.026 25.2013 75.2281 24.3839 75.3189C23.7482 75.2925 23.3738 75.077 22.8884 74.6594C22.5433 74.1504 22.3466 73.668 22.1732 73.0803C21.3588 70.582 19.7292 68.7104 17.408 67.4884C15.0437 66.3676 12.4954 66.1958 10.0048 67.0426C7.72619 67.9567 5.92578 69.3385 4.75662 71.5383C4.54074 72.0671 4.35105 72.5954 4.17781 73.1395C3.90898 73.9242 3.61398 74.5646 2.97317 75.1053C2.28063 75.3361 1.70966 75.3237 1.01323 75.1053C0.444469 74.7008 0.196658 74.2854 0.000743605 73.619C-0.0413994 71.1747 1.71562 68.5374 3.27041 66.7825C3.35643 66.6825 3.44245 66.5825 3.53108 66.4794C4.54022 65.3853 5.93135 64.4313 7.28318 63.81C7.11684 63.4742 6.94672 63.141 6.7723 62.8092C6.69566 62.6613 6.61903 62.5134 6.54008 62.361C6.46344 62.2146 6.38681 62.0682 6.30785 61.9174C5.52575 60.1407 5.54938 58.0464 6.19407 56.2304C7.00848 54.3908 8.18058 53.1342 9.95836 52.2176C10.0735 52.1557 10.1886 52.0938 10.3073 52.0301C12.4749 51.051 15.3369 51.4212 17.278 52.7006ZM10.8193 56.2623C10.0699 57.0084 9.64497 57.8566 9.60539 58.9148C9.61765 59.8417 9.85836 60.5342 10.4042 61.2835C11.1729 62.0321 12.0194 62.5102 13.1073 62.5375C14.1419 62.5152 14.9708 62.1716 15.7378 61.4745C16.437 60.7007 16.7252 59.9517 16.7949 58.9055C16.654 57.624 16.1122 56.7786 15.1189 55.9709C13.7537 54.9772 12.0649 55.2504 10.8193 56.2623Z" fill="white"/>
<path d="M28.9525 24.9987C29.0994 24.9978 29.2463 24.997 29.3976 24.9961C29.5586 24.9959 29.7196 24.9958 29.8855 24.9956C30.14 24.9945 30.14 24.9945 30.3996 24.9933C30.9623 24.9912 31.5249 24.9902 32.0876 24.9893C32.478 24.9885 32.8684 24.9876 33.2588 24.9868C33.9733 24.9853 34.6878 24.9845 35.4022 24.984C36.453 24.9834 37.5036 24.9808 38.5543 24.9764C39.4651 24.9728 40.3758 24.9717 41.2866 24.9714C41.6737 24.971 42.0608 24.9698 42.4479 24.9678C42.9894 24.9653 43.5309 24.9656 44.0724 24.9666C44.2325 24.9652 44.3925 24.9638 44.5575 24.9624C45.3626 24.9669 45.9922 24.9757 46.6681 25.4654C47.098 26.0034 47.1709 26.418 47.1764 27.0973C47.1788 27.2729 47.1811 27.4485 47.1836 27.6294C47.1836 27.8178 47.1836 28.0062 47.1837 28.2004C47.1848 28.3951 47.1859 28.5899 47.1871 28.7906C47.1891 29.2022 47.1893 29.6138 47.1885 30.0254C47.1876 30.5514 47.1921 31.0771 47.1981 31.603C47.2029 32.1067 47.2023 32.6104 47.2022 33.1142C47.2047 33.3023 47.2071 33.4904 47.2096 33.6842C47.1982 35.1394 47.1982 35.1394 46.7741 35.6788C46.1923 36.1676 45.8064 36.3515 45.0451 36.3545C44.8245 36.3564 44.8245 36.3564 44.5994 36.3583C44.439 36.3582 44.2785 36.3581 44.1132 36.3579C43.9435 36.3589 43.7738 36.3599 43.5989 36.3609C43.0371 36.3638 42.4753 36.3643 41.9134 36.3647C41.5232 36.3656 41.133 36.3666 40.7428 36.3677C39.9245 36.3696 39.1061 36.37 38.2878 36.3698C37.3429 36.3696 36.3981 36.3728 35.4533 36.3775C34.5432 36.3818 33.6332 36.3829 32.7232 36.3827C32.3365 36.3831 31.9498 36.3844 31.5631 36.3867C31.0223 36.3896 30.4816 36.3887 29.9408 36.3869C29.701 36.3894 29.701 36.3894 29.4564 36.392C28.5799 36.3846 28.0281 36.3315 27.3474 35.7203C26.8863 35.25 26.8439 34.9059 26.8368 34.2562C26.8339 34.0811 26.8311 33.906 26.8281 33.7255C26.8274 33.4424 26.8274 33.4424 26.8266 33.1536C26.8252 32.959 26.8237 32.7644 26.8221 32.5639C26.8195 32.152 26.8186 31.7401 26.8189 31.3282C26.819 30.8024 26.8129 30.2769 26.8052 29.7511C26.799 29.2474 26.7993 28.7437 26.7988 28.2398C26.7956 28.052 26.7924 27.8642 26.7891 27.6707C26.7967 26.6863 26.8439 26.0517 27.5583 25.3388C28.0061 25.0135 28.4193 25.0005 28.9525 24.9987ZM30.7657 28.8837C30.7657 30.0608 30.7657 31.2378 30.7657 32.4506C34.8855 32.4506 39.0052 32.4506 43.2499 32.4506C43.2499 31.2735 43.2499 30.0964 43.2499 28.8837C39.1301 28.8837 35.0103 28.8837 30.7657 28.8837Z" fill="white"/>
</svg>
