<svg width="55" height="55" viewBox="0 0 55 55" fill="none" xmlns="http://www.w3.org/2000/svg">
<circle cx="27.5" cy="27.5" r="27" fill="#FBF6F0" stroke="#015533"/>
<path d="M18.5789 31.1684C19.8126 31.1684 21.0211 30.9758 22.1663 30.5979C22.7253 30.4053 23.36 30.5537 23.7274 30.9284L25.9979 32.6432C28.6032 31.2526 30.2705 29.5863 31.6421 27L29.9737 24.7832C29.5537 24.3632 29.4032 23.7484 29.5832 23.1726C29.9642 22.02 30.1579 20.8105 30.1579 19.5789C30.1579 18.7084 30.8663 18 31.7368 18H35.4211C36.2916 18 37 18.7084 37 19.5789C37 29.7358 28.7358 38 18.5789 38C17.7084 38 17 37.2916 17 36.4211V32.7474C17 31.8768 17.7084 31.1684 18.5789 31.1684Z" fill="#015533"/>
</svg>
