<svg width="74" height="78" viewBox="0 0 74 78" fill="none" xmlns="http://www.w3.org/2000/svg">
<path d="M43.1885 20.3406C43.3238 20.3828 43.4591 20.425 43.5985 20.4684C49.1618 22.2552 53.6148 26.0837 56.3313 31.2369C56.9106 32.4074 57.3393 33.6235 57.7191 34.8712C57.7574 34.9938 57.7958 35.1165 57.8353 35.2429C58.9024 38.8094 58.835 43.2942 57.7191 46.8375C57.6769 46.9728 57.6347 47.1081 57.5913 47.2475C55.8045 52.8107 51.976 57.2637 46.8228 59.9802C45.6523 60.5595 44.4362 60.9882 43.1885 61.368C43.0659 61.4064 42.9432 61.4447 42.8168 61.4843C39.2503 62.5514 34.7655 62.484 31.2222 61.368C31.0869 61.3258 30.9516 61.2836 30.8122 61.2402C25.249 59.4534 20.796 55.6249 18.0795 50.4717C17.5002 49.3012 17.0715 48.0851 16.6917 46.8375C16.6342 46.6535 16.6342 46.6535 16.5754 46.4658C15.5083 42.8993 15.5757 38.4144 16.6917 34.8712C16.7339 34.7359 16.776 34.6006 16.8195 34.4612C18.6063 28.8979 22.4348 24.4449 27.588 21.7284C28.7585 21.1491 29.9746 20.7204 31.2222 20.3406C31.3449 20.3023 31.4675 20.2639 31.5939 20.2244C35.1604 19.1573 39.6453 19.2247 43.1885 20.3406ZM36.4254 24.2617C33.9921 27.3191 33.2598 31.2606 32.7608 35.0421C32.7381 35.2109 32.7154 35.3797 32.692 35.5536C32.5642 36.6493 32.5898 37.6842 32.5898 38.8029C35.6361 38.8029 38.6824 38.8029 41.821 38.8029C41.821 37.4284 41.7921 36.1474 41.618 34.7964C41.584 34.5323 41.584 34.5323 41.5494 34.2629C41.1039 31.0005 40.3704 26.5075 37.8892 24.1015C37.2217 23.8459 37.002 23.8258 36.4254 24.2617ZM26.4357 27.6914C26.2975 27.8071 26.1594 27.9227 26.017 28.0419C22.6409 30.9527 21.0934 34.4734 20.2816 38.8029C22.933 38.8029 25.5844 38.8029 28.3161 38.8029C28.3831 38.0202 28.4501 37.2375 28.5191 36.4311C28.8642 32.7505 29.493 29.2426 30.7841 25.7669C30.8979 25.467 30.8979 25.467 30.8803 25.1272C29.4403 25.1272 27.467 26.794 26.4357 27.6914ZM43.5304 25.1272C43.5575 25.2168 43.5846 25.3065 43.6126 25.3989C43.7007 25.6917 43.7881 25.9846 43.875 26.2777C43.9945 26.6745 44.1177 27.0702 44.2436 27.465C45.4108 31.1773 45.7529 34.9414 46.0946 38.8029C48.746 38.8029 51.3974 38.8029 54.1292 38.8029C53.1895 33.7915 50.9924 29.6339 46.7385 26.6912C45.2215 25.6347 45.2215 25.6347 43.5304 25.1272ZM20.2816 42.9057C20.6353 45.0319 20.6353 45.0319 21.2752 46.9764C21.3193 47.0807 21.3634 47.1851 21.4088 47.2926C22.0983 48.8908 22.9198 50.2949 24.0424 51.624C24.1526 51.7591 24.2628 51.8942 24.3763 52.0333C26.0729 54.0284 28.1644 55.497 30.5384 56.5815C30.6513 56.5815 30.7641 56.5815 30.8803 56.5815C30.8532 56.4918 30.8261 56.4021 30.7982 56.3097C30.71 56.017 30.6227 55.724 30.5358 55.4309C30.4163 55.0341 30.293 54.6384 30.1672 54.2436C29 50.5313 28.6579 46.7673 28.3161 42.9057C25.6647 42.9057 23.0133 42.9057 20.2816 42.9057ZM32.5898 42.9057C32.5898 44.2802 32.6187 45.5613 32.7928 46.9123C32.8154 47.0883 32.8381 47.2644 32.8614 47.4458C33.3069 50.7081 34.0403 55.2011 36.5216 57.6072C37.0158 57.8344 37.0158 57.8344 37.5473 57.7781C40.402 55.6196 41.0859 50.6876 41.5545 47.381C41.5867 47.1429 41.6186 46.9047 41.65 46.6665C41.6727 46.4977 41.6954 46.3289 41.7188 46.155C41.8466 45.0594 41.821 44.0244 41.821 42.9057C38.7747 42.9057 35.7284 42.9057 32.5898 42.9057ZM46.0946 42.9057C45.9942 44.0798 45.9942 44.0798 45.8916 45.2776C45.5466 48.9581 44.9178 52.466 43.6267 55.9417C43.5129 56.2416 43.5129 56.2416 43.5304 56.5815C47.0488 55.6306 50.0171 52.565 51.9069 49.5726C53.104 47.4743 53.8293 45.3046 54.1292 42.9057C51.4778 42.9057 48.8264 42.9057 46.0946 42.9057Z" fill="white"/>
<path d="M35.7468 0.353075C36.1866 0.594431 36.6115 0.850713 37.0355 1.11887C37.1856 1.21205 37.3358 1.30522 37.4905 1.40121C40.4688 3.28096 40.4688 3.28096 40.9673 5.12545C41.2332 6.39402 41.2141 7.5434 40.6254 8.71535C39.4214 10.5301 37.1535 12.1564 35.155 12.989C34.614 13.0459 34.1362 12.9779 33.6165 12.8181C33.0537 12.3608 32.6368 11.9862 32.5441 11.2502C32.4914 9.9139 32.4914 9.9139 32.9968 9.30298C33.4456 8.88629 33.4456 8.88629 33.7875 8.71535C28.5005 9.21007 22.9496 11.0513 18.6933 14.3159C18.4022 14.5276 18.4022 14.5276 18.0603 14.5276C18.1077 14.641 18.1551 14.7545 18.2039 14.8715C18.2968 15.0979 18.2968 15.0979 18.3915 15.3289C18.4837 15.552 18.4837 15.552 18.5778 15.7796C19.2047 17.5041 19.1534 19.6898 18.4022 21.3654C18.0911 21.9581 17.7484 22.5186 17.3765 23.0749C17.2778 23.2265 17.1791 23.3781 17.0774 23.5343C15.6888 24.9615 13.8096 25.8779 11.8134 26.0097C10.7204 26.0178 9.7201 25.8971 8.6582 25.6391C6.11773 30.2336 4.86234 35.4551 4.86531 40.6932C4.8652 40.896 4.86509 41.0988 4.86498 41.3078C4.87323 42.6882 4.9737 44.021 5.16113 45.3869C5.4108 47.2882 5.4108 47.2882 5.02557 48.1935C4.61463 48.6778 4.27663 49.0161 3.63796 49.133C2.66734 49.1346 2.05238 49.0642 1.30747 48.3751C-1.27087 43.4954 0.510656 34.918 1.99126 29.9128C2.65843 27.8433 3.4339 25.8107 4.5043 23.9136C4.75715 23.4513 4.90189 23.1474 4.86865 22.6148C4.73557 22.2456 4.58835 21.9202 4.3952 21.5791C3.52115 19.8755 3.462 17.971 3.96784 16.1409C4.68122 14.0628 5.84278 12.5717 7.78811 11.5246C8.94952 10.976 9.9236 10.7394 11.2117 10.7133C11.3244 10.7108 11.437 10.7083 11.5531 10.7058C12.3884 10.7094 12.9793 10.9052 13.7546 11.2368C14.3461 11.4282 14.7534 11.5425 15.3433 11.3064C16.1746 10.8375 16.9255 10.2554 17.6831 9.67759C21.5722 6.80658 26.6352 5.31092 31.3332 4.5147C31.9851 4.39653 32.629 4.24806 33.2746 4.09977C33.0684 3.90409 33.0684 3.90409 32.8579 3.70445C32.3446 3.16606 32.2646 2.89817 32.1955 2.16593C32.2727 1.25575 32.6331 0.775253 33.3067 0.178664C34.1381 -0.135443 34.9394 -0.00207538 35.7468 0.353075ZM8.58342 16.408C7.99564 17.228 7.87716 17.9673 7.97441 18.9722C8.35117 20.0989 8.8295 20.8199 9.87754 21.3928C10.6964 21.7612 11.4141 21.8417 12.2902 21.6025C13.3311 21.204 13.9176 20.6175 14.4704 19.656C14.7852 18.7116 14.781 17.7909 14.3636 16.8781C13.912 16.077 13.3368 15.6121 12.5366 15.1579C10.9391 14.7493 9.61167 15.0957 8.58342 16.408Z" fill="white"/>
<path d="M11.0306 54.7105C11.2329 54.7739 11.4352 54.8372 11.6436 54.9025C12.7713 55.2803 13.7315 55.646 14.3 56.7512C14.4614 57.4677 14.4707 58.0047 14.0856 58.6476C13.6659 59.161 13.3998 59.4445 12.7614 59.6573C12.3626 59.6645 11.9636 59.6643 11.5648 59.6573C11.3392 59.6573 11.1135 59.6573 10.881 59.6573C16.0718 66.6741 23.4272 71.359 32.0785 72.8202C32.1945 72.8403 32.3106 72.8603 32.4301 72.8809C40.4251 74.1987 49.0218 72.1348 55.6206 67.4851C56.3649 66.9475 57.0964 66.396 57.7927 65.7974C58.5395 65.1651 59.1039 64.7869 60.1012 64.7503C60.8144 64.8215 61.2847 65.1086 61.7913 65.5977C62.1852 66.344 62.2224 66.9541 62.0156 67.7666C60.0678 71.628 52.9029 74.4577 49.0557 75.7691C39.696 78.8389 29.3969 78.148 20.5669 73.7504C17.6847 72.2662 14.9897 70.4159 12.6165 68.2047C12.2779 67.89 11.9299 67.5931 11.5755 67.2965C10.0948 66.0043 8.83057 64.4563 7.63301 62.9053C7.5625 63.0886 7.49198 63.272 7.41933 63.4609C7.17876 64.0214 6.91653 64.3956 6.43638 64.7857C5.66122 65.0441 5.00429 65.089 4.2568 64.7323C3.54304 64.197 3.29646 63.9064 3.16701 63.0014C3.03234 61.9857 2.9514 60.9684 2.88922 59.9458C2.8795 59.803 2.86978 59.6602 2.85976 59.5131C2.78287 57.9957 3.09673 56.7638 4.04312 55.5546C6.0157 53.4232 8.49775 53.8423 11.0306 54.7105Z" fill="white"/>
<path d="M50.0926 6.30344C57.9485 9.24941 64.4924 14.9068 68.8327 22.0493C68.9442 22.2262 69.0557 22.4032 69.1706 22.5855C74.1468 30.8032 75.0983 41.0434 72.8467 50.2483C72.3129 52.3143 71.5621 54.2844 70.7131 56.2388C70.826 56.1823 70.9388 56.1259 71.055 56.0678C71.8529 56.0013 72.2653 55.9906 72.9889 56.3456C73.5131 56.8089 73.7436 57.1118 73.9611 57.7773C73.994 58.475 73.8957 58.9647 73.5411 59.5702C72.9288 60.1751 72.2588 60.4075 71.461 60.7048C71.3154 60.7618 71.1697 60.8189 71.0196 60.8777C67.3143 62.3072 67.3143 62.3072 65.371 61.5915C64.0015 60.9743 63.306 60.1378 62.6786 58.803C62.3748 57.8916 62.4761 56.9147 62.4756 55.961C62.4735 55.7479 62.4714 55.5348 62.4693 55.3152C62.4648 52.4781 62.4648 52.4781 63.0562 51.6895C63.6694 51.1138 64.2463 50.9394 65.0719 50.9394C65.7333 51.1378 66.1375 51.2994 66.589 51.8262C66.8369 52.4459 66.8778 53.0113 66.9523 53.6745C70.2046 45.3892 70.5287 36.4534 66.985 28.1767C65.5711 24.999 63.7721 22.1072 61.482 19.4851C61.4042 19.3959 61.3265 19.3066 61.2463 19.2147C60.1061 17.916 58.9184 16.7866 57.5502 15.7242C57.4217 15.6147 57.2932 15.5052 57.1609 15.3924C54.8827 13.4647 52.1084 11.9544 49.3501 10.8269C49.1868 10.7599 49.1868 10.7599 49.0203 10.6915C48.7246 10.5722 48.427 10.4573 48.1294 10.3427C47.4722 9.99729 47.0783 9.58789 46.8292 8.88167C46.7327 8.05377 46.7953 7.54184 47.2933 6.83497C48.2028 6.04957 48.9471 6.00116 50.0926 6.30344Z" fill="white"/>
<path d="M71.0544 71.6245C71.6582 71.8557 71.8552 72.0617 72.2297 72.586C72.4811 73.3402 72.4851 73.9403 72.251 74.7015C71.7937 75.2644 71.4192 75.6813 70.6831 75.7739C69.3465 75.8266 69.3465 75.8266 68.7359 75.3319C68.1512 74.6872 68.0983 74.1929 68.1109 73.3333C68.1824 72.6814 68.4929 72.288 68.969 71.8615C69.6227 71.4493 70.3075 71.5372 71.0544 71.6245Z" fill="white"/>
</svg>
