<svg width="55" height="55" viewBox="0 0 55 55" fill="none" xmlns="http://www.w3.org/2000/svg">
<circle cx="27.5" cy="27.5" r="27" transform="rotate(90 27.5 27.5)" fill="#EBE0D0" stroke="#46301C"/>
<path d="M29.1897 20.2759C28.7897 19.895 28.1567 19.9104 27.7759 20.3103C27.395 20.7103 27.4104 21.3433 27.8103 21.7241L29.1897 20.2759ZM35.3103 28.867C35.7103 29.2479 36.3433 29.2324 36.7241 28.8325C37.105 28.4326 37.0896 27.7996 36.6897 27.4187L35.3103 28.867ZM36.6897 28.8669C37.0896 28.486 37.105 27.8531 36.7241 27.4531C36.3433 27.0532 35.7103 27.0378 35.3103 27.4186L36.6897 28.8669ZM27.8103 34.5615C27.4104 34.9424 27.395 35.5754 27.7759 35.9753C28.1567 36.3752 28.7897 36.3907 29.1897 36.0098L27.8103 34.5615ZM36 29.1429C36.5523 29.1429 37 28.6951 37 28.1429C37 27.5906 36.5523 27.1429 36 27.1429L36 29.1429ZM16 27.1429C15.4477 27.1429 15 27.5906 15 28.1429C15 28.6951 15.4477 29.1429 16 29.1429L16 27.1429ZM28.5 21L27.8103 21.7241L35.3103 28.867L36 28.1429L36.6897 27.4187L29.1897 20.2759L28.5 21ZM36 28.1428L35.3103 27.4186L27.8103 34.5615L28.5 35.2856L29.1897 36.0098L36.6897 28.8669L36 28.1428ZM36 28.1429L36 27.1429L16 27.1429L16 28.1429L16 29.1429L36 29.1429L36 28.1429Z" fill="#46301C"/>
</svg>
