<svg width="55" height="55" viewBox="0 0 55 55" fill="none" xmlns="http://www.w3.org/2000/svg">
<circle cx="27.5" cy="27.5" r="27" transform="matrix(4.37114e-08 1 1 -4.37114e-08 0 0)" fill="#EBE0D0" stroke="#46301C"/>
<path d="M25.8103 20.2759C26.2103 19.895 26.8433 19.9104 27.2241 20.3103C27.605 20.7103 27.5896 21.3433 27.1897 21.7241L25.8103 20.2759ZM19.6897 28.867C19.2897 29.2479 18.6567 29.2324 18.2759 28.8325C17.895 28.4326 17.9104 27.7996 18.3103 27.4187L19.6897 28.867ZM18.3103 28.8669C17.9104 28.486 17.895 27.8531 18.2759 27.4531C18.6567 27.0532 19.2897 27.0378 19.6897 27.4186L18.3103 28.8669ZM27.1897 34.5615C27.5896 34.9424 27.605 35.5754 27.2241 35.9753C26.8433 36.3752 26.2103 36.3907 25.8103 36.0098L27.1897 34.5615ZM19 29.1429C18.4477 29.1429 18 28.6951 18 28.1429C18 27.5906 18.4477 27.1429 19 27.1429L19 29.1429ZM39 27.1429C39.5523 27.1429 40 27.5906 40 28.1429C40 28.6951 39.5523 29.1429 39 29.1429L39 27.1429ZM26.5 21L27.1897 21.7241L19.6897 28.867L19 28.1429L18.3103 27.4187L25.8103 20.2759L26.5 21ZM19 28.1428L19.6897 27.4186L27.1897 34.5615L26.5 35.2856L25.8103 36.0098L18.3103 28.8669L19 28.1428ZM19 28.1429L19 27.1429L39 27.1429L39 28.1429L39 29.1429L19 29.1429L19 28.1429Z" fill="#46301C"/>
</svg>
